<svg id="Layer_1" data-name="Layer 1" xmlns="http://www.w3.org/2000/svg" viewBox="0 0 483.35 486.22"><defs><style>.cls-1{font-size:36px;stroke:#009c88;stroke-miterlimit:10;font-family:JosefinSans-Regular, Josefin Sans;}.cls-1,.cls-2{fill:#009c88;}.cls-2{fill-rule:evenodd;}.cls-3{font-size:26.9px;fill:#231f20;font-family:Tahoma;letter-spacing:1.03em;}</style></defs><title>fav-works</title><text class="cls-1" transform="translate(170.47 54.26) rotate(-15.32)">C</text><text class="cls-1" transform="translate(193.79 47.71) rotate(-7.69)">H</text><text class="cls-1" transform="matrix(1, -0.02, 0.02, 1, 220.86, 44.27)">E</text><text class="cls-1" transform="translate(243.71 43.92) rotate(6.49)">C</text><text class="cls-1" transform="translate(267.8 46.62) rotate(13.58)">K</text><text class="cls-1" transform="matrix(0.95, 0.32, -0.32, 0.95, 291.01, 52.51)"> </text><text class="cls-1" transform="translate(301.36 55.44) rotate(24.82)">O</text><text class="cls-1" transform="translate(328.56 68.14) rotate(33.02)">U</text><text class="cls-1" transform="matrix(0.77, 0.64, -0.64, 0.77, 349.99, 82.2)">T</text><text class="cls-1" transform="matrix(0.71, 0.7, -0.7, 0.71, 365.62, 95.43)"> </text><text class="cls-1" transform="translate(373.54 102.89) rotate(48.95)">S</text><text class="cls-1" transform="translate(387.09 117.88) rotate(56.33)">O</text><text class="cls-1" transform="matrix(0.41, 0.91, -0.91, 0.41, 403.84, 142.71)">M</text><text class="cls-1" transform="translate(417.04 172.41) rotate(73.72)">E</text><text class="cls-1" transform="translate(423.25 194.53) rotate(78.74)"> </text><text class="cls-1" transform="matrix(0.09, 1, -1, 0.09, 425.89, 204.98)">O</text><text class="cls-1" transform="translate(428.36 234.95) rotate(92.12)">F</text><text class="cls-1" transform="translate(427.42 255.64) rotate(96.75)"> </text><text class="cls-1" transform="translate(426.81 266.39) rotate(103.17)">M</text><text class="cls-1" transform="matrix(-0.37, 0.93, -0.93, -0.37, 419.16, 297.98)">Y</text><text class="cls-1" transform="translate(409.96 320.5) rotate(116.77)"> </text><text class="cls-1" transform="matrix(-0.55, 0.83, -0.83, -0.55, 405.82, 330.43)">W</text><text class="cls-1" transform="translate(386.17 359.75) rotate(133.15)">O</text><text class="cls-1" transform="matrix(-0.78, 0.63, -0.63, -0.78, 365.49, 381.54)">R</text><text class="cls-1" transform="matrix(-0.85, 0.53, -0.53, -0.85, 347.62, 396.13)">K</text><text class="cls-1" transform="translate(327.24 408.65) rotate(152.93)"> </text><text class="cls-1" transform="matrix(-0.91, 0.4, -0.4, -0.91, 317.4, 413.68)">-</text><text class="cls-1" transform="translate(307.73 417.97) rotate(159.35)"> </text><text class="cls-1" transform="translate(297.7 422.11) rotate(164.59)">C</text><text class="cls-1" transform="matrix(-0.99, 0.14, -0.14, -0.99, 274.42, 428.69)">H</text><text class="cls-1" transform="translate(247.25 432.2) rotate(179.07)">E</text><text class="cls-1" transform="translate(224.5 432.57) rotate(-173.61)">C</text><text class="cls-1" transform="translate(200.41 429.9) rotate(-166.52)">K</text><text class="cls-1" transform="translate(177.2 424.06) rotate(-161.35)"> </text><text class="cls-1" transform="matrix(-0.91, -0.42, 0.42, -0.91, 166.83, 421.14)">O</text><text class="cls-1" transform="translate(139.62 408.49) rotate(-147.08)">U</text><text class="cls-1" transform="translate(118.17 394.46) rotate(-140.34)">T</text><text class="cls-1" transform="translate(102.51 381.26) rotate(-135.74)"> </text><text class="cls-1" transform="matrix(-0.66, -0.75, 0.75, -0.66, 94.58, 373.82)">S</text><text class="cls-1" transform="matrix(-0.56, -0.83, 0.83, -0.56, 80.99, 358.83)">O</text><text class="cls-1" transform="matrix(-0.42, -0.91, 0.91, -0.42, 64.21, 334.05)">M</text><text class="cls-1" transform="translate(50.95 304.35) rotate(-106.38)">E</text><text class="cls-1" transform="matrix(-0.2, -0.98, 0.98, -0.2, 44.71, 282.26)"> </text><text class="cls-1" transform="translate(42.06 271.8) rotate(-95.31)">O</text><text class="cls-1" transform="translate(39.53 241.83) rotate(-87.97)">F</text><text class="cls-1" transform="translate(40.44 221.15) rotate(-83.35)"> </text><text class="cls-1" transform="translate(41.04 210.42) rotate(-76.93)">M</text><text class="cls-1" transform="matrix(0.37, -0.93, 0.93, 0.37, 48.63, 178.8)">Y</text><text class="cls-1" transform="translate(57.8 156.25) rotate(-63.32)"> </text><text class="cls-1" transform="matrix(0.55, -0.83, 0.83, 0.55, 61.91, 146.32)">W</text><text class="cls-1" transform="matrix(0.68, -0.73, 0.73, 0.68, 81.53, 116.96)">O</text><text class="cls-1" transform="translate(102.17 95.14) rotate(-39.17)">R</text><text class="cls-1" transform="translate(120 80.54) rotate(-32.3)">K</text><text class="cls-1" transform="matrix(0.89, -0.46, 0.46, 0.89, 140.36, 67.98)"> </text><text class="cls-1" transform="translate(150.18 62.93) rotate(-23.96)">-</text><text class="cls-1" transform="matrix(0.94, -0.35, 0.35, 0.94, 159.85, 58.62)"> </text><path class="cls-2" d="M233.94,181.86a61.25,61.25,0,1,0,43.32,17.94,61.25,61.25,0,0,0-43.32-17.94Zm-32,32.81c-5.88,1.46-8.43,6.24-7.54,14.24a2.24,2.24,0,0,1-1.92,2.42h-.25a2.23,2.23,0,0,1-2.23-2c-1.12-10.08,2.81-17,10.82-18.95A12.66,12.66,0,0,1,211.08,212a18.49,18.49,0,0,1,7.35,11,2.23,2.23,0,0,1-4.29.8,14.12,14.12,0,0,0-5.34-8.11,8.42,8.42,0,0,0-6.84-1Zm54.72,18.38c-5.32,10.55-12.61,17-21.62,19.22a28.54,28.54,0,0,1-6.95.83,38.21,38.21,0,0,1-20.68-6.44,2.23,2.23,0,1,1,2.55-3.55c3.13,2.23,13.55,7.51,24.05,4.94,7.72-1.9,14-7.6,18.76-17a2.22,2.22,0,0,1,1.88-1.67,2.23,2.23,0,0,1,2,3.64Zm4.9-21.24a2.24,2.24,0,0,1-2.58-1.7s-2.7-9.92-11.51-8.51-9.52,11.49-9.07,14.91a2.23,2.23,0,0,1-1.9,2.43h-.34a2.24,2.24,0,0,1-2.24-1.92c-.8-6.71,1.93-18,12.75-19.74,11.17-1.79,15.89,9.12,16.45,11.92A2.23,2.23,0,0,1,261.58,211.81Z"/><text class="cls-3" transform="translate(245.22 183.4)">	</text></svg>