<?xml version="1.0" standalone="no"?>
<!DOCTYPE svg PUBLIC "-//W3C//DTD SVG 20010904//EN"
 "http://www.w3.org/TR/2001/REC-SVG-20010904/DTD/svg10.dtd">
<svg version="1.0" xmlns="http://www.w3.org/2000/svg"
 width="768.000000pt" height="768.000000pt" viewBox="0 0 768.000000 768.000000"
 preserveAspectRatio="xMidYMid meet">
<metadata>
Created by potrace 1.14, written by Peter Selinger 2001-2017
</metadata>
<g transform="translate(0.000000,768.000000) scale(0.100000,-0.100000)"
fill="#000000" stroke="none">
<path d="M3490 7251 c0 -6 -7 -7 -17 -4 -12 5 -14 3 -8 -7 6 -9 4 -11 -6 -5
-22 14 -48 13 -53 -2 -4 -10 -11 -11 -22 -5 -22 12 -56 3 -47 -12 4 -6 -1 -5
-10 3 -16 13 -22 8 -17 -14 1 -5 -4 -4 -11 3 -15 14 -33 16 -24 3 3 -5 1 -12
-5 -16 -5 -3 -10 -1 -10 6 0 8 -3 9 -13 0 -8 -6 -17 -8 -20 -4 -4 3 -7 1 -7
-5 0 -6 -6 -9 -14 -6 -8 3 -17 1 -21 -5 -3 -6 -15 -11 -25 -11 -10 0 -20 -5
-22 -10 -2 -6 -19 -13 -37 -15 -19 -3 -38 -10 -43 -17 -4 -7 -8 -8 -8 -3 0 6
-6 3 -13 -6 -13 -17 -14 -17 -47 -26 -11 -3 -20 -10 -20 -15 0 -5 -4 -6 -10
-3 -5 3 -10 1 -10 -6 0 -8 -4 -8 -15 1 -13 11 -14 10 -9 -4 4 -12 0 -16 -15
-16 -12 0 -21 -5 -21 -11 0 -6 -7 -9 -15 -5 -8 3 -14 2 -14 -2 3 -17 -2 -35
-7 -29 -4 3 -13 -1 -21 -9 -8 -8 -19 -12 -24 -8 -5 3 -8 0 -7 -7 2 -7 -8 -18
-22 -25 -14 -7 -25 -18 -25 -23 0 -5 -4 -13 -9 -18 -5 -5 -6 -3 -2 5 4 6 2 12
-3 12 -6 0 -11 -5 -11 -11 0 -5 -4 -7 -10 -4 -6 4 -7 -1 -3 -11 4 -11 3 -15
-5 -10 -6 3 -14 0 -19 -7 -4 -8 -17 -19 -28 -26 -16 -10 -17 -11 -2 -7 11 3
15 2 12 -4 -3 -6 -13 -10 -21 -10 -8 0 -14 -5 -14 -11 0 -5 -6 -7 -12 -3 -8 5
-7 0 2 -11 10 -13 11 -16 2 -11 -15 9 -55 -27 -44 -40 4 -4 -2 -4 -12 0 -16 5
-17 4 -7 -8 10 -12 8 -16 -9 -21 -11 -3 -18 -10 -15 -15 3 -5 -4 -11 -14 -15
-11 -3 -18 -12 -15 -19 3 -7 -2 -16 -10 -19 -9 -4 -13 -13 -10 -22 4 -10 0
-15 -11 -15 -9 0 -14 -3 -12 -7 8 -13 -12 -55 -23 -48 -6 3 -7 -1 -4 -10 4 -9
-1 -23 -9 -33 -15 -17 -17 -21 -17 -43 0 -5 -4 -7 -10 -4 -6 4 -7 -1 -3 -11 5
-13 3 -15 -7 -9 -9 6 -11 4 -6 -4 5 -7 0 -21 -11 -33 -12 -14 -13 -19 -3 -13
8 4 4 -4 -9 -18 -14 -15 -20 -27 -14 -27 6 0 14 6 16 13 4 7 6 8 6 1 1 -6 -6
-17 -14 -24 -8 -7 -15 -21 -15 -31 0 -11 -5 -19 -11 -19 -5 0 -7 -4 -4 -10 3
-5 1 -10 -5 -10 -6 0 -9 -4 -6 -9 4 -5 0 -12 -6 -14 -11 -4 -11 -6 0 -6 8 -1
9 -6 3 -18 -17 -32 -24 -57 -24 -90 0 -22 -4 -30 -13 -26 -8 3 -14 0 -14 -6 0
-6 5 -11 11 -11 8 0 9 -4 0 -13 -6 -8 -8 -17 -4 -20 3 -4 1 -7 -5 -7 -6 0 -9
-6 -6 -14 3 -8 1 -17 -5 -21 -6 -3 -11 -11 -11 -16 0 -6 6 -7 13 -3 8 5 7 2
-2 -9 -8 -10 -11 -20 -8 -24 4 -3 -1 -12 -11 -20 -16 -14 -16 -14 2 -8 19 6
19 5 1 -15 -14 -15 -15 -20 -4 -20 12 0 11 -2 -1 -10 -8 -5 -11 -12 -7 -16 4
-4 -1 -16 -10 -27 -10 -11 -12 -17 -5 -13 18 11 15 -19 -3 -34 -10 -8 -12 -17
-7 -22 12 -12 3 -48 -12 -48 -6 0 -4 -5 4 -10 12 -8 13 -11 1 -19 -9 -6 -10
-11 -2 -15 8 -5 7 -13 -4 -28 -10 -16 -12 -25 -4 -35 9 -9 7 -14 -6 -19 -13
-5 -14 -9 -4 -15 10 -6 9 -12 -6 -29 -14 -15 -15 -19 -4 -15 10 4 16 0 16 -9
0 -8 -6 -12 -13 -9 -9 3 -11 -4 -7 -27 3 -25 2 -30 -9 -24 -10 6 -11 5 -1 -7
14 -17 14 -30 1 -46 -6 -8 -7 -13 -1 -13 5 0 10 -7 10 -15 0 -8 -3 -12 -7 -10
-3 2 -6 -16 -6 -40 0 -28 4 -42 10 -39 6 3 4 0 -4 -8 -8 -7 -15 -28 -14 -46 0
-18 -3 -35 -8 -38 -4 -3 -8 -10 -8 -15 0 -6 6 -7 13 -3 9 6 9 4 1 -7 -6 -8
-10 -29 -8 -47 1 -20 -1 -30 -8 -26 -6 4 -5 -2 1 -15 8 -14 8 -21 1 -21 -5 0
-10 -5 -10 -11 0 -5 4 -7 10 -4 6 3 7 -1 4 -9 -3 -9 -11 -13 -18 -9 -6 3 -2
-4 9 -17 11 -13 15 -20 8 -17 -6 4 -14 3 -18 -3 -3 -5 0 -10 7 -10 8 0 9 -3 3
-8 -12 -8 -13 -27 -3 -38 4 -4 3 -13 -3 -21 -9 -10 -8 -13 2 -13 11 0 11 -2
-1 -10 -13 -9 -13 -10 0 -10 13 0 13 -1 0 -10 -9 -6 -11 -13 -5 -17 13 -11 18
-36 5 -28 -14 9 -13 -8 3 -24 10 -11 9 -12 -3 -6 -12 6 -13 5 -2 -6 15 -16 16
-33 1 -23 -6 3 -3 -6 7 -22 18 -28 18 -29 0 -14 -18 14 -19 14 -7 -7 6 -13 13
-37 14 -55 2 -18 6 -38 10 -44 3 -6 3 -14 0 -18 -11 -10 -12 -37 -2 -30 5 3 9
-9 9 -26 0 -22 4 -29 13 -24 8 5 8 2 -2 -9 -10 -13 -10 -17 -1 -17 10 0 10 -3
1 -14 -9 -11 -9 -16 0 -22 8 -5 9 -3 4 6 -5 8 -4 11 3 6 6 -3 9 -15 7 -26 -2
-11 1 -20 6 -20 6 0 7 -4 4 -10 -3 -5 0 -10 7 -10 9 0 9 -3 -2 -10 -13 -9 -8
-14 12 -11 4 0 5 -8 3 -19 -2 -11 1 -20 6 -20 6 0 8 -4 4 -9 -3 -5 0 -13 6
-16 5 -4 8 -13 5 -20 -2 -7 2 -16 10 -19 8 -3 14 -15 14 -26 0 -12 5 -18 10
-15 14 9 13 -8 -2 -23 -9 -9 -8 -12 6 -12 9 0 14 -4 11 -10 -3 -5 -1 -10 5
-10 6 0 8 -4 5 -10 -3 -5 -1 -10 6 -10 7 0 9 -10 7 -25 -3 -13 -1 -22 3 -19 5
3 9 -2 9 -10 0 -9 5 -16 10 -16 6 0 10 -9 10 -20 0 -11 5 -20 11 -20 6 0 9 -7
5 -15 -3 -9 3 -19 15 -26 14 -7 19 -17 16 -31 -4 -13 -1 -18 8 -14 8 3 16 -5
19 -20 4 -16 11 -22 19 -17 8 5 8 2 -1 -9 -11 -14 -10 -17 7 -23 12 -3 21 -11
21 -16 0 -6 -5 -7 -12 -3 -6 4 -4 -3 5 -17 20 -27 21 -39 6 -39 -5 0 -7 5 -3
12 4 7 3 8 -5 4 -9 -6 -9 -11 -1 -21 8 -10 8 -15 0 -20 -6 -4 -9 -14 -6 -22 3
-8 2 -12 -3 -9 -5 3 -12 -1 -15 -10 -5 -12 -2 -15 11 -10 17 6 17 5 0 -8 -10
-8 -18 -17 -18 -20 1 -3 1 -7 0 -8 -6 -21 -5 -37 2 -33 5 4 6 -1 3 -9 -3 -9
-11 -13 -17 -9 -6 4 -7 1 -1 -8 12 -20 14 -40 2 -33 -12 8 -6 -29 7 -38 6 -4
2 -8 -9 -8 -15 0 -16 -3 -6 -15 10 -12 10 -15 0 -15 -8 0 -9 -5 -4 -12 5 -7 9
-29 9 -48 0 -19 4 -39 10 -43 7 -6 6 -10 -3 -14 -16 -6 -5 -24 11 -17 9 3 13
-4 11 -25 -2 -35 -11 -51 -27 -51 -7 0 -6 4 3 11 13 9 13 10 0 6 -8 -2 -14
-11 -14 -20 1 -9 -2 -15 -6 -12 -5 3 -11 -1 -14 -7 -3 -7 -3 -2 0 12 4 21 3
22 -6 7 -6 -9 -15 -15 -21 -12 -5 3 -6 0 -3 -8 4 -10 -1 -15 -13 -14 -10 1
-17 -3 -16 -9 1 -8 -6 -10 -19 -6 -16 4 -20 2 -16 -10 5 -11 0 -14 -18 -10
-13 2 -24 0 -24 -7 0 -6 -7 -8 -17 -4 -11 5 -14 3 -8 -6 6 -11 3 -11 -16 0
-21 11 -23 10 -11 -3 10 -13 9 -15 -12 -13 -19 2 -23 -1 -19 -12 5 -13 2 -13
-14 -4 -17 8 -22 7 -27 -5 -3 -8 -10 -13 -15 -10 -5 4 -11 1 -13 -6 -2 -6 -15
-13 -29 -15 -13 -2 -35 -15 -48 -31 -13 -15 -20 -20 -16 -12 4 8 -4 3 -17 -12
-14 -15 -29 -24 -34 -20 -4 4 -2 -1 5 -11 12 -15 12 -17 -4 -11 -13 5 -16 4
-11 -4 4 -7 2 -12 -3 -12 -6 0 -11 -7 -11 -15 0 -8 -4 -15 -9 -15 -6 0 -8 -9
-6 -21 4 -18 2 -19 -12 -7 -9 7 -14 8 -10 2 4 -7 0 -17 -8 -24 -12 -10 -13
-16 -4 -26 6 -8 8 -15 3 -15 -12 -2 -28 -5 -34 -8 -17 -8 -59 -8 -55 0 3 5 -1
6 -9 3 -9 -3 -13 -10 -10 -15 3 -5 -2 -6 -10 -3 -9 3 -13 11 -9 18 4 6 -1 5
-10 -3 -12 -9 -17 -10 -17 -2 0 7 -5 9 -10 6 -6 -4 -8 -12 -4 -18 3 -7 -2 -3
-10 7 -10 13 -16 15 -16 7 0 -10 -11 -12 -40 -8 -22 3 -38 1 -34 -4 5 -8 -5
-7 -43 7 -10 4 -26 8 -35 9 -14 1 -15 -1 -6 -12 9 -11 6 -12 -16 -3 -35 13
-39 13 -30 -2 5 -8 0 -7 -11 2 -11 9 -16 10 -11 3 4 -7 2 -13 -3 -13 -6 0 -11
4 -11 9 0 14 -42 4 -52 -11 -6 -10 -8 -10 -8 2 0 11 -3 11 -12 2 -16 -16 -31
-15 -23 1 4 6 -3 1 -15 -13 -12 -14 -18 -19 -14 -11 5 9 3 12 -4 7 -7 -4 -12
-14 -12 -22 0 -8 -5 -12 -10 -9 -6 3 -10 -3 -10 -14 0 -11 -5 -23 -11 -26 -6
-4 -8 -13 -5 -21 3 -8 1 -14 -5 -14 -6 0 -5 -8 2 -21 8 -15 8 -19 0 -15 -6 4
-11 1 -11 -8 0 -8 5 -18 10 -21 16 -10 12 -25 -7 -25 -12 0 -14 -3 -6 -8 6 -4
10 -24 9 -45 -1 -21 2 -41 6 -43 14 -9 8 -24 -9 -24 -17 -1 -17 -1 -1 -11 10
-5 18 -15 18 -20 0 -6 -5 -7 -11 -3 -8 5 -9 2 -2 -11 6 -10 8 -27 6 -39 -4
-17 -3 -18 6 -6 6 8 11 10 11 5 0 -6 -5 -16 -12 -23 -9 -9 -9 -12 1 -12 11 0
11 -3 1 -15 -10 -12 -10 -15 0 -15 10 0 10 -3 0 -15 -10 -12 -10 -15 0 -15 10
0 10 -3 1 -14 -9 -11 -9 -16 0 -22 8 -5 9 -3 4 6 -6 9 -4 11 4 6 9 -6 8 -12
-4 -26 -11 -12 -13 -20 -5 -25 6 -3 10 -23 10 -43 -1 -64 1 -72 13 -72 7 0 6
-4 -3 -10 -13 -9 -13 -11 0 -20 13 -9 13 -10 0 -10 -13 0 -13 -1 0 -10 12 -8
12 -10 -5 -11 -15 0 -16 -2 -5 -7 8 -4 16 -15 18 -26 2 -10 -1 -16 -5 -13 -5
3 -9 -13 -8 -35 1 -23 7 -44 14 -46 8 -3 7 -8 -6 -19 -10 -8 -13 -12 -6 -9 6
4 14 2 18 -4 3 -5 1 -10 -5 -10 -6 0 -8 -5 -5 -10 4 -6 11 -7 17 -4 7 4 8 2 4
-4 -4 -7 -15 -12 -24 -12 -11 0 -13 -3 -6 -8 6 -4 17 -18 24 -32 12 -23 12
-24 -4 -11 -15 12 -16 12 -10 -5 4 -10 12 -25 18 -33 8 -11 8 -13 -2 -7 -9 6
-12 1 -10 -16 2 -12 7 -29 12 -37 7 -10 6 -12 -4 -6 -10 6 -12 4 -7 -7 3 -9 0
-21 -6 -27 -9 -9 -8 -11 6 -6 17 7 24 -5 10 -19 -11 -10 -11 -46 0 -46 5 0 4
-7 -3 -15 -9 -10 -9 -15 -1 -15 6 0 11 -5 11 -11 0 -5 -4 -8 -8 -5 -5 3 -9 -1
-9 -9 0 -18 9 -19 27 -3 8 7 6 3 -4 -9 -11 -13 -14 -23 -8 -23 6 0 9 -7 6 -15
-4 -8 -10 -12 -15 -9 -5 3 -9 0 -9 -5 0 -6 6 -11 13 -11 8 0 14 -7 14 -15 0
-8 -4 -12 -9 -9 -4 3 -8 1 -8 -5 0 -5 8 -15 18 -20 16 -10 16 -10 -2 -11 -15
0 -16 -3 -6 -15 10 -12 10 -15 -1 -15 -8 0 -6 -6 7 -16 10 -8 13 -13 7 -9 -9
4 -13 -1 -13 -15 0 -14 4 -19 13 -14 9 6 10 4 0 -7 -17 -17 -17 -32 0 -23 8 5
8 2 -2 -9 -11 -14 -11 -17 0 -17 12 0 12 -2 0 -9 -9 -6 -10 -10 -2 -16 9 -5 9
-10 1 -20 -8 -10 -7 -14 2 -18 8 -4 9 -8 3 -14 -13 -11 -18 -36 -5 -28 11 7
14 -8 3 -19 -4 -3 -8 -14 -9 -22 -2 -11 3 -14 14 -9 13 5 14 3 5 -6 -6 -6 -9
-18 -6 -26 3 -8 0 -19 -8 -24 -8 -5 -9 -9 -3 -9 7 0 14 -7 17 -14 4 -11 1 -13
-10 -9 -11 4 -14 2 -11 -8 3 -8 11 -13 18 -11 10 2 11 0 2 -11 -7 -8 -9 -17
-5 -21 4 -4 1 -11 -7 -16 -13 -8 -13 -10 0 -10 11 0 15 -9 14 -27 -1 -16 3
-37 8 -48 9 -19 9 -19 -6 -1 -9 10 -13 23 -9 29 3 6 1 7 -5 3 -9 -5 -9 -13 -1
-28 8 -15 8 -22 -1 -28 -8 -5 -7 -9 5 -13 10 -5 14 -3 9 5 -4 7 -3 8 4 4 9 -5
7 -14 -4 -32 -16 -23 -16 -24 2 -17 17 6 17 5 5 -10 -7 -9 -10 -17 -6 -17 4 0
2 -7 -5 -15 -11 -13 -10 -14 2 -10 16 6 18 -20 4 -43 -4 -6 -2 -12 3 -12 6 0
11 -5 11 -11 0 -5 -5 -7 -11 -3 -7 4 -7 -1 1 -16 8 -15 8 -20 1 -16 -6 4 -11
2 -11 -3 0 -6 6 -11 13 -11 8 0 7 -4 -3 -10 -10 -6 -11 -10 -3 -10 9 0 10 -7
3 -26 -7 -16 -7 -23 0 -19 6 3 10 2 10 -4 0 -5 -4 -12 -9 -15 -11 -7 -5 -40
16 -78 2 -4 -2 -10 -8 -14 -7 -4 -9 -3 -5 4 3 6 2 13 -3 16 -16 10 -6 -22 15
-46 14 -16 14 -19 2 -10 -16 12 -16 10 -11 -24 5 -30 3 -36 -8 -30 -8 4 -5 0
5 -8 12 -10 15 -16 7 -16 -10 0 -9 -7 4 -26 9 -15 13 -24 7 -20 -17 10 -22
-23 -6 -39 9 -8 11 -15 6 -15 -5 0 -9 -7 -9 -15 0 -8 4 -12 9 -9 4 3 8 0 8 -5
0 -6 -6 -11 -12 -11 -8 0 -9 -3 -3 -8 12 -8 18 -28 19 -59 1 -13 7 -23 14 -23
7 0 10 -5 7 -10 -3 -6 -1 -10 4 -10 6 0 11 -8 11 -17 0 -15 2 -16 10 -3 8 12
10 11 10 -7 0 -16 5 -20 20 -16 12 3 20 0 20 -7 0 -7 8 -10 20 -7 11 3 18 1
14 -4 -3 -5 0 -9 6 -9 6 0 9 -4 5 -9 -3 -5 -1 -12 4 -16 6 -3 8 3 6 15 -4 23
10 36 21 19 5 -8 3 -9 -6 -4 -9 5 -11 4 -6 -4 6 -9 11 -9 24 1 12 10 14 10 8
1 -4 -7 -3 -13 3 -13 5 0 13 5 16 10 3 6 12 10 18 10 7 0 6 -4 -3 -11 -12 -8
-9 -9 12 -5 23 5 27 3 22 -11 -3 -10 2 -7 11 7 l16 25 -7 -24 c-5 -21 -4 -22
9 -10 8 8 12 18 9 23 -3 5 0 6 6 2 7 -4 12 -14 12 -22 0 -8 4 -14 9 -14 5 0 7
10 5 23 -2 12 -2 16 2 10 3 -7 10 -13 15 -13 6 0 7 6 3 13 -6 9 -4 9 7 1 16
-12 29 -12 48 0 9 6 12 5 8 -1 -4 -6 0 -13 8 -16 8 -4 13 -1 11 6 -1 7 -1 9 1
4 3 -4 9 -5 14 -2 5 4 6 0 4 -8 -5 -10 4 -13 36 -10 38 3 41 2 28 -14 -11 -15
-10 -15 9 1 22 20 30 32 12 21 -6 -3 -7 1 -3 10 4 12 8 13 13 5 6 -9 9 -9 14
1 3 8 3 3 0 -11 l-5 -25 22 25 c12 14 20 18 16 9 -4 -12 1 -16 18 -16 17 0 22
4 19 16 -3 9 0 7 6 -4 13 -23 61 -50 57 -31 -1 6 7 12 18 12 11 1 25 2 32 3 7
1 10 9 7 19 -5 16 -5 16 6 -1 6 -9 9 -21 6 -25 -3 -5 5 -8 17 -7 15 1 22 8 21
23 0 12 3 19 8 16 4 -3 8 -13 8 -22 0 -15 2 -15 10 -2 8 12 10 10 11 -10 0
-23 1 -23 8 -5 5 12 4 26 -3 35 -10 13 -9 13 7 1 9 -8 20 -11 24 -8 3 4 12 2
19 -3 8 -8 17 -6 28 5 9 9 16 13 16 8 0 -5 -5 -14 -11 -20 -9 -9 -7 -12 9 -10
11 0 18 5 15 11 -4 5 3 7 15 4 12 -3 29 0 39 7 13 10 21 10 31 2 10 -8 16 -7
22 3 6 10 11 4 18 -21 7 -23 11 -28 12 -14 1 11 2 23 1 27 0 3 13 3 29 -2 28
-8 34 -6 31 13 -1 5 3 6 8 2 6 -3 7 -13 4 -23 -3 -9 -3 -14 2 -10 4 4 17 3 28
-3 10 -6 17 -7 14 -2 -3 4 2 17 10 28 15 19 15 19 8 -5 -7 -21 -6 -23 6 -13 9
7 20 8 28 3 9 -5 21 -1 34 11 25 23 48 9 27 -16 -19 -23 -4 -18 21 8 12 12 19
17 15 10 -3 -6 -2 -14 4 -18 6 -4 8 -11 5 -16 -10 -15 2 -10 16 8 10 11 10 14
2 9 -7 -4 -13 -3 -13 2 0 6 7 13 16 16 8 3 12 2 9 -3 -6 -10 11 -24 33 -27 6
-1 12 2 12 8 0 6 -7 8 -15 4 -8 -3 -15 -1 -15 4 0 6 9 10 21 10 13 0 18 4 13
12 -4 7 -3 8 4 4 6 -4 8 -14 5 -23 -5 -13 -3 -13 21 2 22 15 25 15 20 2 -7
-18 12 -32 22 -16 5 8 3 9 -6 4 -9 -6 -11 -4 -6 4 5 7 11 10 14 7 3 -3 13 1
23 10 21 19 37 1 18 -22 -10 -12 -14 -12 -20 -2 -6 9 -9 9 -9 1 0 -23 16 -22
45 3 15 13 33 24 38 24 6 0 2 -7 -9 -16 -19 -15 -19 -16 1 -9 11 4 25 7 30 8
6 1 13 7 17 12 5 6 8 3 8 -6 0 -9 8 -23 17 -30 14 -12 16 -12 9 0 -6 9 -5 12
5 9 8 -3 26 1 42 9 15 7 27 10 28 6 0 -5 4 1 9 12 8 19 9 19 9 -2 1 -23 11
-29 25 -15 12 11 30 9 42 -7 9 -11 12 -12 19 -1 5 9 4 11 -3 6 -7 -4 -12 -2
-12 3 0 6 5 11 11 11 5 0 7 5 3 12 -4 7 -3 8 5 4 6 -4 9 -12 6 -17 -4 -5 -1
-9 6 -9 8 0 7 -5 -2 -17 -13 -16 -12 -17 3 -4 10 7 15 18 12 23 -4 6 2 5 14
-1 25 -13 35 -14 28 -3 -3 5 2 9 10 9 8 0 13 -6 10 -13 -3 -8 0 -16 6 -20 7
-4 8 -3 4 4 -4 7 -1 12 9 12 10 0 13 -5 9 -12 -6 -10 -5 -10 8 -1 8 7 18 9 23
5 4 -4 6 -1 3 7 -2 8 -10 17 -18 19 -7 3 -10 0 -6 -7 5 -7 1 -9 -10 -4 -15 6
-15 7 1 15 11 7 22 5 34 -6 10 -9 22 -13 26 -9 5 5 3 -1 -5 -12 -14 -18 -14
-19 2 -7 12 10 18 10 23 1 6 -8 10 -7 16 2 7 11 9 11 9 -1 0 -13 1 -13 10 0 8
12 13 13 30 3 24 -16 30 -16 30 -2 0 5 -4 8 -9 4 -5 -3 -12 -1 -15 4 -4 5 -2
12 3 15 5 4 12 2 16 -4 4 -6 11 -8 16 -5 5 3 6 -2 2 -11 -4 -12 -3 -15 5 -10
6 4 21 2 33 -5 12 -6 24 -7 28 -3 9 13 31 16 31 4 0 -5 8 -2 18 8 11 9 17 21
14 26 -2 4 7 1 21 -8 14 -10 27 -13 29 -9 3 4 3 2 1 -6 -3 -12 -1 -12 14 0 11
9 14 10 9 2 -9 -17 6 -17 23 0 11 10 13 9 8 -5 -4 -10 -2 -18 3 -18 6 0 11 10
11 23 1 17 2 18 6 4 2 -9 8 -15 13 -12 5 3 7 13 4 23 -5 14 -4 14 4 2 6 -8 9
-17 6 -21 -2 -4 3 -10 12 -13 12 -4 15 -2 10 9 -3 8 -1 15 4 15 9 0 14 -14 11
-32 0 -4 6 -5 14 -2 8 4 15 12 15 19 0 8 4 16 9 19 5 4 8 -5 6 -19 -2 -19 1
-23 10 -15 6 5 15 7 19 3 4 -4 4 0 0 10 -3 10 -1 17 5 17 6 0 11 -7 11 -15 0
-23 19 -18 30 7 6 16 9 18 9 6 1 -9 7 -18 14 -21 19 -7 49 12 40 26 -5 9 -3 9
9 0 8 -7 18 -10 21 -6 4 3 16 -5 27 -18 12 -14 19 -18 18 -9 -2 10 4 14 16 12
12 -2 16 1 10 10 -4 7 -3 10 1 5 5 -4 16 0 25 8 14 13 16 12 17 -8 2 -15 0
-18 -6 -8 -6 9 -11 10 -15 2 -4 -6 -2 -11 4 -11 6 0 8 -6 4 -12 -4 -7 2 -5 14
6 12 10 19 24 15 30 -4 6 1 5 10 -3 11 -9 17 -10 17 -2 0 6 5 11 10 11 6 0 10
-6 10 -14 0 -9 -7 -13 -20 -11 -11 2 -20 0 -20 -6 0 -11 34 -7 52 8 7 6 23 9
36 7 14 -3 21 0 17 6 -11 18 4 11 25 -12 22 -24 30 -21 33 10 0 11 4 19 8 17
3 -3 5 -15 4 -28 -2 -15 2 -24 11 -24 9 0 11 4 4 12 -7 9 -5 16 5 25 13 11 14
10 9 -4 -3 -9 -1 -16 6 -16 6 0 8 -6 4 -13 -6 -9 -4 -9 7 0 16 16 33 17 23 1
-4 -7 -3 -8 4 -4 7 4 12 15 13 24 0 11 2 13 6 4 4 -10 8 -8 18 5 13 17 13 17
12 -1 -1 -11 5 -20 16 -21 9 -2 15 1 11 6 -3 5 -11 6 -17 2 -7 -4 -6 0 2 10
14 18 26 23 16 7 -3 -5 10 -8 31 -5 37 3 70 -15 56 -30 -4 -5 -1 -5 6 -1 9 5
10 12 3 20 -7 8 -4 12 10 12 14 0 18 -5 13 -21 -4 -14 -3 -16 4 -6 8 11 10 11
15 0 3 -9 6 -10 6 -2 1 7 11 10 25 7 14 -2 27 0 31 6 3 5 0 8 -7 7 -7 -2 -10
-2 -6 0 4 3 10 4 14 3 4 -1 11 4 16 12 7 10 8 9 4 -4 -5 -16 4 -23 27 -19 4 0
7 -3 7 -7 0 -5 7 -9 16 -9 14 0 14 2 -2 14 -18 13 -17 14 9 8 17 -5 27 -3 27
4 0 8 4 8 14 -1 8 -7 12 -17 9 -21 -3 -5 4 -4 15 2 27 15 55 14 46 -1 -5 -7
-3 -8 7 -2 8 4 21 9 29 11 8 1 16 6 18 12 2 5 10 7 19 4 12 -5 14 -3 8 7 -6
10 -4 11 6 4 8 -5 16 -9 19 -10 22 -4 39 -18 33 -27 -4 -6 -1 -7 8 -1 21 13
80 13 72 0 -5 -8 -3 -8 8 0 15 11 72 11 104 -1 11 -4 16 -3 10 2 -12 10 -15
54 -3 47 4 -3 8 -12 8 -20 0 -14 12 -18 39 -15 8 2 10 -2 5 -10 -4 -8 -3 -10
4 -5 6 4 9 14 6 24 -3 9 1 6 9 -7 12 -20 15 -21 20 -7 4 10 3 15 -1 12 -5 -3
-9 1 -9 9 0 8 4 12 8 9 4 -2 10 0 14 6 9 14 25 2 24 -18 0 -14 -2 -14 -8 2 -5
12 -10 15 -14 9 -4 -6 0 -16 7 -22 11 -9 17 -7 29 9 12 18 15 19 21 5 4 -10 2
-14 -6 -9 -7 5 -8 3 -4 -5 6 -9 13 -8 29 6 20 17 20 17 13 -2 -4 -11 -4 -16 0
-12 4 4 13 2 21 -4 10 -9 13 -8 13 1 0 9 4 9 18 -1 15 -13 16 -12 4 3 -8 9
-20 14 -28 11 -9 -3 -14 1 -14 13 0 12 3 15 8 8 4 -6 19 -10 35 -10 19 1 26
-2 23 -11 -3 -7 -1 -13 4 -13 6 0 10 9 10 19 0 11 4 23 10 26 6 3 7 -1 4 -10
-7 -17 15 -17 29 0 5 6 7 4 4 -5 -2 -8 -9 -14 -15 -13 -5 1 -13 -4 -16 -13 -5
-12 -2 -13 17 -2 12 7 30 11 40 9 9 -1 17 2 17 7 0 14 24 9 45 -8 14 -11 16
-11 13 1 -2 8 -7 17 -11 20 -5 3 -2 9 7 12 9 4 15 3 15 -1 -4 -24 3 -33 24
-30 13 2 21 -2 19 -10 -3 -17 15 -15 22 4 4 10 2 13 -6 8 -6 -4 -8 -3 -4 4 4
7 -3 9 -21 6 -19 -3 -24 -2 -14 5 11 7 46 8 46 0 0 -1 10 -3 22 -4 12 -1 20 2
17 7 -3 4 -10 6 -15 3 -5 -4 -9 -1 -9 4 0 20 19 11 36 -15 l17 -26 12 23 c12
21 13 21 23 3 7 -11 12 -13 12 -6 0 15 50 13 63 -3 5 -6 7 -3 3 8 -3 11 0 17
9 17 9 0 12 6 8 18 -5 15 -4 15 9 -2 14 -18 15 -18 33 0 17 17 18 17 12 2 -8
-22 3 -23 29 -3 31 24 37 17 7 -9 -21 -18 -32 -22 -45 -15 -10 5 -18 7 -18 5
0 -3 10 -10 21 -17 17 -9 24 -8 30 2 8 11 12 10 24 -5 8 -11 15 -14 15 -8 0
19 -4 27 -13 24 -5 -1 -6 2 -2 8 4 7 12 7 26 0 14 -8 17 -15 10 -28 -7 -14 -5
-18 9 -18 10 0 16 5 12 11 -12 19 -10 35 4 35 9 0 12 5 9 10 -5 8 -11 8 -20 0
-9 -8 -15 -8 -20 0 -7 12 -9 11 33 15 21 2 30 0 26 -7 -4 -7 -2 -8 4 -4 6 3 9
15 7 26 -2 11 1 22 6 26 5 3 9 2 8 -3 -5 -31 6 -30 40 3 26 26 35 41 28 46 -9
6 -9 8 1 8 6 0 12 8 12 18 0 10 3 22 8 26 4 4 7 24 8 45 0 20 3 42 7 48 4 6 0
19 -9 27 -9 9 -11 16 -4 16 7 0 9 12 6 30 -2 17 -1 28 4 25 9 -6 23 25 15 33
-3 3 -6 -1 -6 -9 -1 -8 -4 0 -8 16 -5 20 -2 38 8 55 15 23 14 24 -1 12 -16
-12 -16 -11 -9 15 5 17 5 37 0 46 -6 10 -5 18 2 23 7 4 9 3 5 -4 -3 -6 -3 -13
1 -15 5 -3 8 15 9 39 0 25 -4 44 -10 44 -6 0 -4 5 4 10 13 8 13 10 0 10 -10 0
-11 3 -3 11 7 7 8 20 3 34 -6 15 -4 27 3 34 9 9 8 14 -3 21 -8 5 -10 10 -4 10
7 0 14 7 17 14 4 11 1 13 -11 9 -15 -6 -15 -5 -3 10 7 9 10 24 7 33 -5 12 -2
15 11 10 17 -6 17 -5 1 8 -20 15 -24 31 -5 19 6 -4 4 5 -5 20 -17 25 -17 27 3
37 16 9 18 14 9 25 -15 18 -19 117 -5 105 6 -5 10 2 10 20 1 16 -3 26 -7 24
-13 -8 -9 11 4 25 8 9 8 11 2 8 -7 -4 -15 0 -18 9 -3 8 -2 12 3 9 5 -3 12 -1
16 5 3 5 1 10 -6 10 -7 0 -4 7 7 15 12 9 14 14 5 13 -10 -2 -15 8 -16 34 -1
20 2 35 7 32 5 -3 5 -10 2 -16 -4 -6 -3 -9 2 -6 11 7 9 161 -2 179 -4 8 -3 10
4 5 16 -10 15 7 0 23 -11 11 -10 12 1 6 11 -6 13 -4 8 8 -3 9 -2 19 4 23 6 4
7 10 0 17 -10 13 -8 68 4 87 5 8 4 11 -2 7 -5 -3 -10 1 -10 9 0 8 6 13 14 10
17 -7 16 -1 -3 19 -13 12 -14 19 -4 30 9 11 9 15 1 15 -8 0 -9 6 -3 17 5 10 7
24 4 32 -3 9 0 11 9 6 8 -5 5 2 -5 14 -17 19 -17 21 -3 15 15 -5 16 -3 8 19
-5 14 -7 28 -3 31 3 4 7 17 9 29 2 16 0 18 -6 8 -5 -8 -11 -9 -15 -3 -3 6 4
14 16 18 l21 6 -24 14 c-13 7 -18 13 -11 14 7 0 11 4 7 9 -3 5 -1 12 4 16 6 3
8 12 4 20 -3 9 0 22 6 29 10 11 8 17 -6 25 -12 7 -13 10 -4 11 10 0 11 3 2 14
-9 10 -8 16 4 26 11 9 12 16 5 25 -8 9 -7 15 2 18 10 4 10 6 -1 6 -11 1 -11 4
-1 16 10 12 10 19 2 27 -8 8 -8 17 -1 30 7 12 6 18 -1 18 -7 0 -8 6 0 19 5 11
6 22 2 25 -10 6 -9 36 2 54 4 7 2 12 -6 12 -9 0 -9 3 2 10 13 9 13 10 0 10
-13 0 -13 1 0 10 13 9 13 10 0 10 -13 0 -13 1 0 10 11 7 12 12 3 21 -8 8 -9
18 -2 31 7 13 6 18 -3 18 -8 0 -9 3 -3 8 15 10 16 74 1 65 -7 -4 -7 -2 1 7 9
10 9 18 1 34 -10 20 -10 20 7 6 17 -14 17 -13 8 5 -6 11 -8 32 -6 48 2 17 -1
27 -9 28 -7 0 -4 4 7 9 13 6 15 9 5 9 -13 1 -13 2 0 11 8 5 10 10 4 10 -7 0
-9 11 -6 25 3 17 0 25 -9 25 -11 0 -11 3 1 11 11 8 12 12 3 16 -7 2 -13 16
-13 29 0 13 -4 24 -10 24 -5 0 -10 8 -10 18 0 14 -2 14 -9 3 -7 -11 -10 -9
-13 10 -2 17 -8 23 -22 21 -10 -2 -23 2 -27 10 -7 10 -9 10 -9 1 0 -7 -5 -13
-11 -13 -6 0 -9 6 -6 13 4 10 -6 13 -38 12 -23 -1 -48 -6 -55 -10 -9 -6 -11
-4 -6 4 10 15 -25 11 -36 -4 -5 -6 -8 -5 -8 3 0 6 -7 12 -15 12 -8 0 -15 -5
-15 -11 0 -5 5 -7 12 -3 7 5 8 3 3 -6 -6 -10 -11 -10 -20 3 -14 20 -31 22 -38
5 -4 -10 -6 -10 -6 0 -1 6 -6 12 -12 12 -5 0 -7 -5 -3 -12 4 -7 3 -8 -5 -4
-20 13 -91 14 -84 2 3 -6 0 -5 -8 2 -16 15 -33 16 -23 1 4 -8 1 -8 -12 -1 -11
6 -42 9 -69 8 -28 -1 -56 3 -64 9 -12 8 -13 7 -6 -4 6 -11 4 -13 -8 -8 -9 3
-18 1 -21 -6 -2 -7 -5 -5 -5 5 -1 9 -6 20 -13 24 -6 4 -8 3 -5 -3 4 -6 0 -13
-8 -17 -8 -3 -15 -2 -15 3 0 5 -13 11 -30 14 -18 4 -30 13 -30 22 0 8 -8 15
-17 16 -10 0 -13 3 -6 6 8 3 5 12 -11 26 -13 12 -21 28 -19 35 3 6 -3 12 -14
12 -15 0 -16 2 -3 10 11 7 12 10 2 10 -15 0 -49 30 -35 30 4 1 -5 8 -20 16
-15 8 -25 19 -22 25 4 5 1 8 -7 7 -7 -2 -12 3 -11 9 2 7 0 12 -5 12 -24 -4
-42 2 -36 13 4 6 3 8 -4 4 -6 -3 -17 1 -25 9 -18 17 -31 20 -21 4 4 -8 0 -8
-15 0 -11 7 -21 16 -21 21 0 6 -6 10 -14 10 -16 0 -29 27 -20 41 3 5 0 9 -6 9
-7 0 -8 6 0 19 7 14 7 22 -1 27 -8 4 -7 9 2 15 8 5 9 9 3 9 -6 0 -10 10 -9 23
1 12 -3 28 -9 36 -9 12 -8 13 3 6 11 -6 13 -4 8 9 -4 10 -7 24 -7 32 0 10 -5
12 -12 8 -9 -5 -9 -2 1 9 7 9 9 17 4 17 -5 0 -9 10 -10 21 -1 12 -7 27 -14 33
-9 8 -10 7 -4 -3 5 -9 4 -12 -3 -8 -5 4 -8 17 -4 29 3 11 1 19 -4 16 -5 -3
-14 0 -21 7 -10 11 -10 15 0 18 7 3 5 6 -5 6 -9 1 -20 10 -23 21 -4 11 -10 18
-14 16 -4 -3 -13 5 -21 17 -11 19 -11 21 1 12 9 -6 8 -3 -1 5 -9 9 -15 21 -12
28 2 6 -3 15 -12 18 -8 3 -12 12 -10 19 3 7 -4 23 -15 34 -12 12 -21 25 -21
29 0 13 -50 33 -62 26 -6 -4 -8 -2 -5 3 4 6 -2 13 -13 16 -14 3 -18 1 -13 -6
4 -7 -6 -4 -21 7 -16 10 -25 13 -22 7 4 -6 2 -11 -4 -11 -6 0 -13 7 -16 15 -4
8 -10 13 -14 10 -5 -3 -8 3 -7 14 1 16 4 18 16 8 12 -10 13 -9 2 11 -10 19 -9
22 6 22 10 0 14 3 8 8 -10 6 -11 20 -5 40 1 4 2 11 1 16 -1 5 6 3 15 -5 12 -9
15 -10 10 -1 -4 7 0 26 8 44 9 17 14 34 11 36 -3 3 -5 -1 -5 -8 0 -7 -3 -11
-6 -7 -3 3 4 20 17 38 13 18 16 29 8 24 -12 -8 -12 -6 0 8 7 9 11 24 7 32 -3
10 -2 13 5 10 6 -4 10 -1 8 6 -3 25 1 40 9 35 5 -3 9 1 9 9 0 8 -4 12 -9 9 -4
-3 -8 0 -8 5 0 6 5 11 11 11 5 0 7 5 3 11 -3 6 0 15 7 20 10 6 11 9 2 9 -7 0
-13 7 -13 16 0 8 4 13 9 10 14 -9 21 20 8 33 -7 7 -7 11 -1 11 6 0 10 16 9 35
-1 20 3 35 9 35 7 0 7 3 1 8 -14 10 -18 35 -4 26 8 -5 10 2 7 25 -2 17 -1 31
4 31 5 0 7 4 3 9 -3 5 -1 13 5 16 8 5 8 11 0 20 -8 10 -8 15 0 20 8 5 8 11 -1
21 -9 11 -9 14 1 14 6 0 10 6 7 13 -2 6 0 21 6 32 10 19 9 19 -9 5 -18 -15
-18 -14 -1 13 16 25 16 28 1 34 -14 5 -13 8 7 20 13 8 17 12 9 10 -10 -3 -16
2 -16 13 0 10 4 16 8 14 13 -8 9 11 -4 25 -8 9 -8 11 -2 8 7 -4 15 0 18 9 3 8
2 13 -3 10 -5 -3 -11 1 -14 9 -4 10 -1 12 10 8 13 -5 13 -3 5 14 -8 15 -8 23
1 33 10 10 9 11 -3 5 -13 -8 -13 -7 -1 8 11 14 11 17 0 17 -10 0 -10 3 -1 12
16 16 15 31 0 22 -10 -5 -10 -4 -1 6 9 10 9 18 1 34 -10 19 -10 20 5 8 14 -12
15 -11 8 15 -4 15 -7 43 -6 61 1 18 -3 32 -9 32 -7 0 -7 3 1 8 14 9 13 72 -1
72 -5 0 -4 6 1 13 12 15 14 57 3 57 -11 0 -7 33 5 42 6 5 4 8 -5 8 -13 0 -13
1 0 10 13 9 13 11 0 20 -13 9 -13 10 0 10 13 0 13 1 0 10 -12 8 -13 11 -1 19
9 6 10 11 2 15 -8 5 -8 13 0 28 10 18 9 20 -7 14 -17 -6 -17 -5 1 14 16 18 17
23 5 30 -13 8 -13 10 0 10 12 0 12 2 2 9 -7 4 -12 12 -11 17 1 5 0 11 -1 14
-7 18 -7 39 0 35 9 -6 23 25 15 33 -3 3 -5 -1 -6 -9 0 -8 -4 -5 -8 6 -5 12 -4
26 3 34 8 12 8 13 -2 7 -10 -6 -11 -1 -6 18 4 18 2 26 -7 26 -9 0 -10 3 -4 8
13 9 14 62 0 62 -5 0 -3 5 5 10 12 8 12 10 1 10 -10 0 -11 3 -3 13 7 8 7 18 2
27 -14 21 -12 32 3 24 8 -6 8 -3 -1 9 -8 9 -11 20 -8 25 3 5 -1 18 -8 28 -10
13 -11 23 -4 31 7 9 7 13 -1 13 -8 0 -10 8 -6 20 4 13 2 20 -7 20 -10 0 -10 2
1 9 12 7 12 13 3 24 -7 7 -9 17 -5 20 3 4 0 7 -8 7 -11 0 -11 2 1 10 11 7 11
10 2 10 -7 0 -11 4 -8 8 3 5 -1 21 -9 36 -8 14 -10 24 -5 21 6 -4 10 -1 10 4
0 6 -5 11 -12 11 -6 0 -8 3 -5 7 4 3 0 17 -9 31 -9 13 -11 21 -5 18 6 -4 11
-2 11 3 0 6 -4 11 -10 11 -5 0 -10 11 -10 25 0 14 -5 25 -10 25 -6 0 -9 6 -8
13 2 6 -4 11 -12 9 -12 -3 -13 -1 -2 9 14 15 16 33 2 24 -9 -5 -15 15 -11 38
0 4 -4 7 -9 7 -6 0 -10 9 -10 20 0 11 -5 20 -11 20 -5 0 -7 5 -4 10 3 6 0 10
-7 10 -9 0 -9 3 2 10 13 8 12 10 -2 10 -16 0 -24 23 -19 53 1 5 -3 6 -9 2 -5
-3 -10 1 -10 9 0 9 -5 16 -12 16 -6 0 -8 3 -5 7 4 3 -1 12 -11 20 -11 10 -12
12 -2 8 8 -4 5 2 -7 13 -12 11 -19 22 -16 26 4 3 1 6 -6 6 -7 0 -9 5 -6 10 3
6 -1 10 -10 10 -9 0 -13 5 -10 10 3 6 1 10 -4 10 -6 0 -11 10 -12 23 0 12 -3
17 -6 10 -3 -10 -7 -10 -18 0 -9 9 -10 14 -1 19 7 5 5 8 -6 8 -10 0 -18 5 -18
11 0 5 -4 7 -10 4 -6 -4 -7 1 -3 11 4 12 3 15 -5 10 -7 -4 -12 -1 -12 9 0 9
-4 13 -10 10 -5 -3 -10 -1 -10 5 0 15 -26 41 -34 33 -3 -4 -6 1 -6 11 0 9 -4
14 -10 11 -5 -3 -10 2 -10 11 0 10 -3 15 -6 11 -4 -3 -12 -1 -19 6 -7 7 -22
18 -33 26 -12 8 -18 19 -15 25 4 5 -1 7 -10 3 -11 -4 -17 -1 -17 8 0 8 -7 15
-15 15 -8 0 -15 5 -15 10 0 6 -7 10 -15 10 -8 0 -15 5 -15 10 0 6 -7 10 -16
10 -9 0 -12 5 -8 12 5 8 0 9 -15 5 -19 -5 -20 -3 -9 10 12 15 11 15 -11 3 -21
-11 -23 -10 -17 5 5 14 2 16 -14 12 -11 -3 -18 -2 -15 3 3 4 -3 14 -12 21 -14
12 -16 12 -9 -1 4 -8 -2 -4 -14 10 -12 14 -18 18 -14 10 7 -13 5 -13 -9 -2 -9
8 -21 11 -27 7 -9 -5 -14 7 -12 26 1 4 -8 5 -18 2 -11 -3 -20 -1 -20 4 0 5 -6
10 -12 11 -45 6 -58 9 -65 17 -5 4 -2 5 6 0 9 -5 12 -4 7 3 -4 6 -13 9 -21 5
-8 -3 -15 0 -15 7 0 10 -3 10 -15 0 -12 -10 -16 -8 -24 11 -5 13 -10 19 -10
13 -1 -6 -8 -11 -16 -11 -8 0 -11 5 -8 10 4 6 0 8 -10 4 -10 -4 -17 -1 -17 6
0 8 -4 6 -10 -3 -8 -12 -10 -12 -10 5 0 17 -2 17 -10 5 -5 -8 -10 -10 -10 -3
0 6 -8 10 -17 8 -10 -1 -26 5 -36 13 -16 15 -17 14 -11 -4 7 -18 6 -18 -12 -2
-13 12 -24 14 -34 8 -20 -13 -39 -12 -20 0 11 7 1 9 -32 6 -27 -2 -46 -1 -44
2 2 4 -22 7 -55 7 -32 0 -59 -4 -59 -9 0 -5 -6 -4 -13 2 -7 6 -18 8 -24 4 -15
-9 -55 -8 -71 2 -7 4 -12 3 -12 -3z m-1605 -4231 c-3 -5 -11 -10 -16 -10 -6 0
-7 5 -4 10 3 6 11 10 16 10 6 0 7 -4 4 -10z m-591 -930 c-6 -6 -10 -3 -10 10
0 13 4 16 10 10 7 -7 7 -13 0 -20z m5023 -1036 c-3 -3 -12 -4 -19 -1 -8 3 -5
6 6 6 11 1 17 -2 13 -5z m-4962 -383 c3 -5 2 -12 -3 -15 -5 -3 -9 1 -9 9 0 17
3 19 12 6z m745 -505 c0 -2 -11 -11 -25 -20 -14 -9 -25 -13 -25 -8 0 5 10 14
23 20 27 13 27 13 27 8z m954 -26 c-6 -6 -10 -3 -10 10 0 13 4 16 10 10 7 -7
7 -13 0 -20z m39 5 c-10 -8 -20 -11 -23 -8 -3 3 1 8 8 10 6 3 10 9 7 14 -4 5
1 6 10 3 14 -6 14 -8 -2 -19z m2796 -9 c-3 -3 -11 5 -18 17 -13 21 -12 21 5 5
10 -10 16 -20 13 -22z m-3999 20 c0 -2 -7 -7 -16 -10 -8 -3 -12 -2 -9 4 6 10
25 14 25 6z m280 -17 c0 -6 -4 -7 -10 -4 -5 3 -10 11 -10 16 0 6 5 7 10 4 6
-3 10 -11 10 -16z m1715 12 c3 -5 2 -12 -3 -15 -5 -3 -9 1 -9 9 0 17 3 19 12
6z m-415 -9 c0 -4 -9 -8 -20 -9 -11 -1 -20 2 -20 5 0 4 9 8 20 9 11 1 20 -2
20 -5z m173 -6 c4 -9 0 -13 -11 -11 -9 1 -23 -2 -29 -8 -9 -6 -13 -6 -13 2 0
7 -4 10 -9 6 -5 -3 -12 -1 -15 3 -3 5 10 8 29 7 19 -2 35 1 35 6 0 14 7 11 13
-5z m1062 4 c3 -5 1 -10 -4 -10 -6 0 -11 5 -11 10 0 6 2 10 4 10 3 0 8 -4 11
-10z m258 -15 c-7 -21 -12 -19 -10 4 0 11 5 18 9 15 4 -3 5 -11 1 -19z m487
21 c0 -3 -4 -8 -10 -11 -5 -3 -10 -1 -10 4 0 6 5 11 10 11 6 0 10 -2 10 -4z
m180 -17 c0 -6 -4 -7 -10 -4 -5 3 -10 11 -10 16 0 6 5 7 10 4 6 -3 10 -11 10
-16z m220 6 c0 -8 -2 -15 -4 -15 -2 0 -6 7 -10 15 -3 8 -1 15 4 15 6 0 10 -7
10 -15z m90 5 c0 -5 -2 -10 -4 -10 -3 0 -8 5 -11 10 -3 6 -1 10 4 10 6 0 11
-4 11 -10z m-1833 -22 c-3 -8 -6 -5 -6 6 -1 11 2 17 5 13 3 -3 4 -12 1 -19z
m570 0 c-3 -8 -6 -5 -6 6 -1 11 2 17 5 13 3 -3 4 -12 1 -19z m106 7 c-3 -9 -8
-14 -10 -11 -3 3 -2 9 2 15 9 16 15 13 8 -4z m371 -1 c3 -8 2 -12 -4 -9 -6 3
-10 10 -10 16 0 14 7 11 14 -7z m33 1 c0 -8 -4 -15 -9 -15 -10 0 -11 14 -1 23
9 10 10 9 10 -8z m61 -3 c2 -7 -1 -12 -8 -12 -6 0 -9 4 -6 9 4 5 1 12 -4 14
-6 3 -5 4 2 3 6 -1 14 -8 16 -14z m55 3 c-3 -9 -8 -14 -10 -11 -3 3 -2 9 2 15
9 16 15 13 8 -4z m-843 1 c0 -2 -7 -6 -15 -10 -8 -3 -15 -1 -15 4 0 6 7 10 15
10 8 0 15 -2 15 -4z m436 -8 c-10 -6 -22 -6 -26 -2 -5 5 3 10 18 11 22 1 24 0
8 -9z m44 2 c0 -5 -2 -10 -4 -10 -3 0 -8 5 -11 10 -3 6 -1 10 4 10 6 0 11 -4
11 -10z m154 2 c3 -5 -1 -9 -9 -9 -8 0 -15 4 -15 9 0 10 17 10 24 0z"/>
<path d="M1356 287 c3 -10 9 -15 12 -12 3 3 0 11 -7 18 -10 9 -11 8 -5 -6z"/>
<path d="M2380 145 c-14 -16 -3 -20 19 -6 8 5 9 11 3 15 -5 3 -15 -1 -22 -9z"/>
<path d="M2670 146 c-6 -9 -10 -21 -7 -28 4 -9 6 -7 6 4 1 9 7 18 14 21 6 2 9
7 6 11 -3 4 -12 0 -19 -8z"/>
<path d="M2915 150 c-3 -5 -1 -10 4 -10 6 0 11 5 11 10 0 6 -2 10 -4 10 -3 0
-8 -4 -11 -10z"/>
<path d="M1725 139 c-3 -4 2 -6 10 -5 21 3 28 13 10 13 -9 0 -18 -4 -20 -8z"/>
<path d="M1770 140 c0 -5 5 -10 11 -10 5 0 7 5 4 10 -3 6 -8 10 -11 10 -2 0
-4 -4 -4 -10z"/>
<path d="M2241 141 c-8 -5 -9 -11 -3 -15 5 -3 12 1 16 9 6 17 6 18 -13 6z"/>
<path d="M2410 129 c-22 -18 -22 -19 -3 -10 12 6 25 16 28 21 9 15 3 12 -25
-11z"/>
<path d="M2478 133 c7 -3 16 -2 19 1 4 3 -2 6 -13 5 -11 0 -14 -3 -6 -6z"/>
<path d="M2836 125 c-3 -8 -1 -15 4 -15 6 0 10 7 10 15 0 8 -2 15 -4 15 -2 0
-6 -7 -10 -15z"/>
<path d="M2989 123 c-12 -16 -12 -17 2 -6 12 10 18 10 29 0 12 -10 12 -9 1 6
-7 9 -15 17 -16 17 -1 0 -9 -8 -16 -17z"/>
<path d="M3114 128 c-4 -7 -4 -10 1 -6 4 4 15 2 24 -5 14 -11 14 -10 2 6 -16
20 -18 21 -27 5z"/>
<path d="M5979 138 c-8 -27 -5 -36 9 -30 10 4 12 7 4 10 -7 2 -10 8 -6 13 3 5
3 9 0 9 -3 0 -6 -1 -7 -2z"/>
<path d="M6150 130 c-9 -6 -10 -10 -3 -10 6 0 15 5 18 10 8 12 4 12 -15 0z"/>
<path d="M1950 126 c0 -2 7 -7 16 -10 8 -3 12 -2 9 4 -6 10 -25 14 -25 6z"/>
<path d="M1995 120 c-3 -5 -1 -10 4 -10 6 0 11 5 11 10 0 6 -2 10 -4 10 -3 0
-8 -4 -11 -10z"/>
<path d="M2510 121 c0 -6 4 -13 10 -16 6 -3 7 1 4 9 -7 18 -14 21 -14 7z"/>
<path d="M2605 120 c-3 -6 1 -7 9 -4 18 7 21 14 7 14 -6 0 -13 -4 -16 -10z"/>
<path d="M3669 113 c-13 -16 -12 -17 4 -4 16 13 21 21 13 21 -2 0 -10 -8 -17
-17z"/>
<path d="M3690 105 c-11 -13 -10 -14 4 -9 9 3 16 10 16 15 0 13 -6 11 -20 -6z"/>
<path d="M4053 103 c0 -7 4 -13 8 -13 4 0 9 6 12 13 3 8 0 14 -7 14 -7 0 -13
-6 -13 -14z"/>
<path d="M4273 104 c0 -8 4 -14 9 -14 4 0 8 5 8 11 0 6 5 7 13 2 22 -14 36
-12 29 5 -4 10 -7 12 -10 4 -2 -7 -9 -9 -15 -5 -20 13 -34 11 -34 -3z"/>
<path d="M4582 111 c-11 -6 -10 -10 4 -15 9 -3 19 -4 22 -1 3 3 0 5 -7 5 -7 0
-9 5 -6 10 7 12 4 12 -13 1z"/>
<path d="M4998 107 c-9 -6 -8 -7 4 -3 10 3 21 -1 26 -11 6 -11 11 -12 16 -4 4
6 2 11 -4 11 -6 0 -9 4 -6 8 7 12 -20 11 -36 -1z"/>
<path d="M5655 109 c-4 -6 -5 -12 -2 -15 2 -3 7 2 10 11 7 17 1 20 -8 4z"/>
<path d="M5790 102 c0 -4 9 -8 19 -8 11 0 17 4 15 8 -3 4 -12 8 -20 8 -8 0
-14 -4 -14 -8z"/>
<path d="M6056 101 c-3 -5 2 -15 12 -22 15 -12 16 -12 5 2 -7 9 -10 19 -6 22
3 4 4 7 0 7 -3 0 -8 -4 -11 -9z"/>
<path d="M6210 99 c0 -5 5 -7 10 -4 6 3 10 8 10 11 0 2 -4 4 -10 4 -5 0 -10
-5 -10 -11z"/>
<path d="M4735 90 c-4 -6 -10 -8 -14 -6 -4 3 -8 -1 -8 -9 0 -13 4 -12 19 2 18
16 22 23 14 23 -3 0 -8 -5 -11 -10z"/>
<path d="M5096 78 c3 -5 10 -6 15 -3 13 9 11 12 -6 12 -8 0 -12 -4 -9 -9z"/>
</g>
</svg>
