<?xml version="1.0" encoding="utf-8"?>
<!-- Generator: Adobe Illustrator 21.1.0, SVG Export Plug-In . SVG Version: 6.00 Build 0)  -->
<svg version="1.1" id="Layer_1" xmlns="http://www.w3.org/2000/svg" xmlns:xlink="http://www.w3.org/1999/xlink" x="0px" y="0px"
	 viewBox="0 0 1728.3 1175.5" style="enable-background:new 0 0 1728.3 1175.5;" xml:space="preserve">
<style type="text/css">
	.st0{fill:#FFEEE3;stroke:#000000;stroke-miterlimit:10;}
	.st1{fill:#FFFFFF;}
	.st2{fill:#FDA898;}
	.st3{fill:#FFC6CF;}
	.st4{stroke:#000000;stroke-miterlimit:10;}
	.st5{fill:#8CC63F;}
	.st6{fill:#ED1C24;}
	.st7{fill:#ED1C24;stroke:#ED1C24;stroke-width:2;stroke-miterlimit:10;}
	.st8{opacity:0.73;fill:#FFEEE3;stroke:#FFEEE3;stroke-width:7;stroke-miterlimit:10;enable-background:new    ;}
	.st9{fill:#D9FFC5;stroke:#ED1C24;stroke-width:7;stroke-miterlimit:10;}
	.st10{fill:#8CC63F;stroke:#8CC63F;stroke-width:4;stroke-miterlimit:10;}
	.st11{opacity:0.73;fill:#FFEEE3;stroke:#FFEEE3;stroke-width:3;stroke-miterlimit:10;enable-background:new    ;}
	.st12{stroke:#000000;stroke-width:3;stroke-miterlimit:10;}
	.st13{fill:#FFEEE3;}
	.st14{fill:#FDA898;stroke:#FDA898;stroke-width:2;stroke-miterlimit:10;}
	.st15{fill:#FFFFFF;stroke:#FFFFFF;stroke-width:2;stroke-miterlimit:10;}
	.st16{fill:none;}
	.st17{fill:#231F20;}
</style>
<title>back</title>
<path class="st0" d="M1728.5,938c-0.2-1.8-0.3-3.6-0.2-5.5c0-0.5,0.1-0.9,0.2-1.3V389.5c-0.1-0.4-0.2-0.9-0.2-1.4
	c0.1-4.8,0.1-9.6,0.2-14.4v-1.7c0-34-1.9-67.9-4-101.9c-1.2-19.7-1.2-39.3-0.5-59c0.4-9.8,0.8-19.5,1.1-29.3c0.1-5-0.1-9.5-1-14.4
	c-0.8-4.3-1.6-8.6-1.5-13.1c0.1-2.7,1.8-4.2,3.8-4.7c0.4-7.6,1.3-15.2,2.1-22.9V0.5H0.5v1094.8h1728V1048
	c-0.3-13.9-0.6-27.7-0.4-41.6c-0.1-0.5-0.2-1.1-0.1-1.7c0.2-2,0.4-4,0.5-6.1V983c-0.6-14.9-2.2-29.8,0-44.6V938z"/>
<path class="st1" d="M1564.9,270.6c-49.3,20-92.2,52.9-134.3,85.3c-182,140-364.4,279.3-547.5,418"/>
<path class="st1" d="M1564.5,269.1c-46.9,19.1-87.7,49.4-127.6,80c-44.5,34.2-89,68.3-133.4,102.5c-89.5,68.7-179.2,137.1-269,205.4
	c-50.7,38.6-101.4,77.1-152.2,115.5c-1.5,1.2,0,3.8,1.5,2.6c89.7-67.9,179.2-136,268.7-204.2s178.7-136.7,267.8-205.2
	c45.6-35.1,91.3-71.7,145-93.7C1567.1,271.3,1566.3,268.4,1564.5,269.1L1564.5,269.1z"/>
<path class="st2" d="M1719.6,936.8c0.8,0,1.5-0.7,1.5-1.5s-0.7-1.5-1.5-1.5s-1.5,0.7-1.5,1.5S1718.8,936.8,1719.6,936.8z"/>
<path class="st2" d="M1278.1,1171.7c0.4,1.2,1,2.3,1.9,3.3c0.6,0.6,1.5,0.6,2.1,0c0.6-0.6,0.6-1.5,0-2.1c-0.5-0.6-0.9-1.3-1.1-2
	c-0.3-0.8-1.1-1.2-1.8-1C1278.3,1170.2,1277.9,1171,1278.1,1171.7L1278.1,1171.7z"/>
<path class="st2" d="M1442.2,613.3h-0.7c-0.8,0-1.5,0.7-1.5,1.5s0.7,1.5,1.5,1.5h0.7c0.8,0,1.5-0.7,1.5-1.5
	S1443.1,613.3,1442.2,613.3z"/>
<path d="M1552.5,287.7l0.6,13.3c0,0.8,0.7,1.5,1.6,1.5c0.6,0,1.2-0.4,1.4-1.1l11.4-36.1h-2.9c2.6,12.8-0.4,26.1-8.1,36.6h2.6
	c-3.8-8.7-5.4-18.2-4.7-27.7h-3l-1.6,22.4c0,0.8,0.7,1.5,1.5,1.5c0.4,0,0.7-0.2,1-0.4c5.5-6.5,9.4-14.2,11.4-22.4
	c0.2-0.8-0.3-1.6-1.1-1.8c-0.5-0.1-1,0-1.4,0.4c-7.6,5.9-13.2,14.1-15.8,23.4l2.9,0.4c-0.7-6.6,0.2-13.3,2.6-19.5l-2.9-0.4
	c0.7,13-0.4,26-3.5,38.7c-0.2,0.8,0.3,1.6,1.1,1.8c0.8,0.2,1.6-0.3,1.8-1c2-6.3,5.2-12,9.5-17l-2.5-0.7c1.4,4.2,1.9,8.8,1.2,13.2
	c-0.3,1.9,2.5,2.7,2.9,0.8l1.6-8.1c0.2-0.8-0.3-1.6-1.1-1.9c-0.1,0-0.2,0-0.4,0c-5.3-0.1-2.3-12.1-4.5-15.4
	c-2.4-3.5-6.5-3.2-9.9-1.3c-5,2.9-8.3,8.6-11.7,13.1l-13.6,18.1l2.8,0.8c-0.3-5.8,1.6-11.4,5.2-15.9l-2.5-1.5
	c-3.4,12.3-9.7,23.7-18.4,33l2.4,1.8c10-15.2,20.9-29.8,32.7-43.7c0.6-0.6,0.5-1.6-0.1-2.1c-0.6-0.5-1.5-0.5-2,0
	c-10.4,8.5-18.6,19.4-23.9,31.8c-0.7,1.8,1.8,3.3,2.6,1.5c8.2-18.6,17.6-36.5,28.2-53.8c0.4-0.7,0.1-1.6-0.6-2
	c-0.6-0.3-1.3-0.2-1.7,0.2c-9,9.4-16.2,20.2-21.5,32.1c-0.4,0.7-0.1,1.6,0.6,2c0.7,0.4,1.6,0.1,2-0.5c4.2-6.4,8.6-12.6,13.4-18.5
	c1.2-1.5-0.8-3.6-2.1-2.1c-9.3,10.1-17.8,20.9-25.5,32.3l2.7,0.4c-1.5-5.1-1.1-10.6,1-15.5c0.7-1.7-1.5-3.2-2.6-1.5l-14.6,23.4
	l2.7,0.4c-1.4-5-0.3-10.3,2.8-14.5l-2.8-0.8c0.2,4.7-0.8,9.4-2.9,13.5c-0.8,1.7,1.7,3.2,2.6,1.5l6.3-11.7c0.9-1.7-1.7-3.2-2.6-1.5
	l-6.3,11.7l2.6,1.5c2.4-4.7,3.5-9.8,3.3-15.1c0-0.8-0.7-1.5-1.5-1.5c-0.5,0-1,0.3-1.3,0.7c-3.6,4.8-4.7,11-3.1,16.8
	c0.2,0.8,1.1,1.3,1.9,1c0.3-0.1,0.6-0.3,0.8-0.6l14.6-23.4l-2.6-1.5c-2.5,5.6-2.9,11.9-1.3,17.8c0.2,0.8,1.1,1.3,1.9,1
	c0.3-0.1,0.6-0.3,0.8-0.6c7.5-11.2,15.8-21.9,25-31.8l-2.1-2.1c-5,6.1-9.6,12.5-13.9,19.1l2.6,1.5c5.1-11.6,12.2-22.3,21-31.5
	l-2.4-1.8c-10.6,17.3-20.1,35.3-28.2,53.8l2.6,1.5c5.1-12.1,13.2-22.9,23.4-31.2l-2.1-2.1c-11.9,14.1-23,28.9-33.1,44.3
	c-0.9,1.4,1.2,3.1,2.4,1.8c9.1-9.7,15.7-21.5,19.2-34.3c0.4-1.4-1.5-2.7-2.5-1.5c-4.2,5-6.4,11.5-6.1,18c0,0.8,0.7,1.5,1.5,1.5
	c0.5,0,1-0.3,1.3-0.7l11.4-15.1c3.7-4.9,7.4-11.9,12.8-15l2.2-0.9l4.6,4.8c0.3,1.2-0.2,3.3-0.2,4.5c0,1.5,0.2,3,0.7,4.4
	c1,2.6,2.8,4.3,5.7,4.4l-1.4-1.9l-1.6,8.1l2.9,0.8c0.8-5,0.4-10-1.2-14.8c-0.2-0.8-1.1-1.3-1.9-1c-0.2,0.1-0.5,0.2-0.6,0.4
	c-4.6,5.4-8.1,11.6-10.3,18.4l2.9,0.8c3.1-12.9,4.3-26.2,3.6-39.5c0-0.8-0.7-1.5-1.6-1.5c-0.6,0-1.2,0.4-1.4,1.1
	c-2.5,6.5-3.4,13.4-2.7,20.3c0,0.8,0.7,1.5,1.6,1.5c0.6,0,1.2-0.4,1.4-1.1c2.5-8.8,7.8-16.5,15-22.1l-2.5-1.5
	c-1.9,7.7-5.5,14.9-10.6,21.1l2.6,1.1l1.6-22.4c0.1-1.9-2.9-1.9-3,0c-0.8,10,1,20.1,5.1,29.2c0.5,1.1,2,0.8,2.6,0
	c8.2-11.2,11.2-25.3,8.4-38.9c-0.3-1.5-2.5-1.3-2.9,0l-11.4,36.1l2.9,0.4l-0.6-13.3C1555.3,285.7,1552.3,285.7,1552.5,287.7
	L1552.5,287.7z"/>
<path d="M1529.6,283c-0.4,9.3-2.3,18.5-5.6,27.1h2.9c-1.2-6.2,0.6-12.6,4.8-17.2l-2.5-0.7c0.5,3.6,0,7.2-1.4,10.5
	c-0.7,1.8,2.2,2.6,2.9,0.8c1.5-3.8,2-8,1.4-12.1c-0.2-0.8-1.1-1.3-1.9-1c-0.2,0.1-0.5,0.2-0.6,0.4c-4.9,5.5-7,12.9-5.6,20.1
	c0.3,1.6,2.4,1.2,2.9,0c3.4-9,5.3-18.4,5.7-28C1532.7,281,1529.7,281,1529.6,283L1529.6,283z"/>
<path d="M1632.8,323.6c4.9-5.2,9.2-10.8,13-16.7C1640.4,311.5,1636,317.2,1632.8,323.6z"/>
<path d="M1637.7,312.7c3.2-2.6,6.4-5.3,9.4-8.1c2.2-3.6,4.2-7.4,6-11.3C1646,297.9,1640.5,304.7,1637.7,312.7z"/>
<path d="M1577.7,333.2c4.7-6.1,9.7-11.9,14.9-17.5c-0.8,0.5-1.5,1-2.3,1.4C1586,322.4,1581.8,327.7,1577.7,333.2z"/>
<path d="M1584.8,331.8c7.8-8.4,15.5-16.9,23-25.6c-4,2.5-8,5-12,7.5C1592.5,320,1588.8,326,1584.8,331.8z"/>
<path d="M1592.6,315.7c1-0.6,2.1-1.3,3.1-1.9c0.5-0.9,1-1.9,1.5-2.8C1595.7,312.5,1594.1,314,1592.6,315.7z"/>
<path d="M1599.5,306.1c-0.7,1.6-1.5,3.2-2.3,4.7c8.5-8.6,17.5-16.6,27-23.9c0.9-1.1,1.9-2.3,2.8-3.4l-1.6,0.1
	c0.4-0.4,0.9-0.8,1.3-1.2c0.9-0.6,1.9-1.3,2.8-1.9c0.8-0.9,1.5-1.9,2.3-2.8c1.8-1.6,3.6-3.3,5.5-4.9c-0.8,0.4-1.6,0.9-2.3,1.3
	c-0.3,0.2-0.5,0.5-0.8,0.7c0.1-0.2,0.3-0.3,0.4-0.5c-4.3,2.5-8.6,5-12.9,7.6c-0.6,0.6-1.3,1.3-1.9,1.9l-1.5,0.1
	c-4.4,2.6-8.7,5.3-13,8c-1.1,3.1-2.3,6.1-3.6,9.2c2.5-2.1,5-4.1,7.6-6.1C1606,298.8,1602.7,302.4,1599.5,306.1z M1625.3,283.5
	c-0.1,0.1-0.2,0.2-0.2,0.2l-0.1,0C1625.1,283.6,1625.2,283.6,1625.3,283.5z"/>
<path d="M1724.5,270.2c-0.5-7.5-0.7-14.9-0.9-22.4c-9.6,11.3-19.7,22-30.4,32.2l31.8-1.8C1724.8,275.5,1724.7,272.8,1724.5,270.2z"
	/>
<path d="M1643.5,320.4c17.6-12.2,34.3-25.7,49.7-40.4l-24.9,1.4c-6.3,8.4-13.4,16.2-21.2,23.3c-0.5,0.8-0.9,1.5-1.4,2.2
	c2.4-2.1,4.9-4,7.7-5.7C1653.5,308.8,1649.8,316,1643.5,320.4z"/>
<path d="M1718.2,234.7c-15,12.7-29.5,26-43.5,39.8c17.3-13.5,33.6-28.2,48.8-43.9c0-3.1,0.1-6.2,0.2-9.3c-1.1,0.9-2.1,1.9-3.2,2.8
	l-47.9,28.4c4.2-4.8,8.6-9.5,12.9-14.1c12.3-7.6,25.1-14.5,38.3-20.6c0-1.7,0.1-3.4,0.2-5.1c-10.4,5.2-20.6,11-30.4,17.3
	c7.2-7.4,14.5-14.6,22-21.7c-8.1,6.3-16,12.8-23.9,19.4c7.2-6.8,13.9-14.2,19.5-22.5c-47.1,20-90,48.8-126.3,84.9
	c-10.6,8.5-20.7,18.6-24.3,31.6c14.6-10.3,29.5-20.2,44.7-29.6c0.9-2.4,1.7-4.9,2.5-7.4l10.5-0.6c1.1-0.7,2.2-1.3,3.4-2
	c8.4-8.6,17.1-16.8,26-24.8l1-0.6c-4.7,6-9.4,11.9-14.1,17.8c0.1-0.1,0.3-0.2,0.4-0.2c12-10.7,25.1-20.2,37.7-30.2l1-0.5
	c-0.2,0.2-0.3,0.3-0.5,0.5c-12.4,9-24.3,18.8-35.8,28.9c21.1-12.1,42.7-23.4,64.7-33.8c-24.5,12.9-49.4,26.1-72.5,41.5
	c-0.8,1-1.6,2-2.5,3l1.9-0.1c-1.6,1.2-3.2,2.3-4.7,3.5c-5.4,6.5-10.9,12.9-16.4,19.2c12.5-7.8,24.9-15.7,37.3-23.6l12.5-0.7
	c-0.6,1.4-1.2,2.7-1.7,4.2l5.3-4.4l7.1-0.4c3.1-4.1,6-8.3,8.7-12.7L1718.2,234.7z"/>
<path d="M1601.7,301.2c-9.3,7.7-18,15.9-26.1,24.9c4.9-3,9.8-6,14.7-9c3-3.7,6.1-7.3,9.2-10.9C1600.3,304.5,1601,302.9,1601.7,301.2
	z"/>
<path d="M1724,211.2c0.1-1.8,0.1-3.5,0.2-5.3c-0.9,0.4-1.8,0.9-2.7,1.3c-0.5-2.1-2.4-3.9-4.7-4.4c-1.5-2.7-5.6-4.2-8.7-2.8
	c-47.8,20.4-91.3,49.7-128.1,86.4c-11.1,9-21,19.7-25.2,33.7c-1.4,4.8,4.5,9.8,8.8,6.8c2.9-2,5.8-4,8.6-6c-0.3,0.4-0.7,0.7-1,1.1
	c-2.6,2.9-1.7,6.9,0.7,9c-2.8,5.3,5.9,11.7,9.9,6.5c0.1-0.1,0.2-0.2,0.3-0.3c2.2,1.1,4.8,1.1,6.8-1c7.7-8.3,15.2-16.6,22.6-25.1
	c12.8-8,25.5-16.1,38.2-24.2c0,0.5,0.1,0.9,0.2,1.4c-8.4,5.5-14.7,13.6-18.2,23c-0.4,1.1-0.5,2-0.3,2.9c-1.4,2.1-2.8,4.3-4,6.5
	c-3,5.8,4.6,12.5,9.4,7.3c0.9-1,1.8-1.9,2.6-2.9c1.6,1.8,4.2,2.6,6.9,0.7c28.6-19.8,54.5-43,77.3-69
	C1723.3,241.4,1723.5,226.4,1724,211.2z M1688.3,222.7c-3.1,2.6-6.3,5.3-9.3,8c-7.4,3.2-14.9,6.4-22.2,9.8c10.4-6.6,21-12.7,32-18.3
	C1688.6,222.4,1688.5,222.5,1688.3,222.7z M1587,296.1C1587,296.1,1587,296.1,1587,296.1l4.3-2.3c-2.3,1.5-4.6,3-7,4.5
	C1585.2,297.6,1586.1,296.8,1587,296.1z M1659.4,301.2c0,0,0-0.1,0-0.1c0-0.1,0-0.1,0-0.2c6.3-6.6,12.1-13.6,17.3-21
	c0.8-0.2,1.6-0.6,2.3-1.2c14.3-11.2,27.9-23.2,40.9-35.9C1701.8,264.3,1681.5,283.9,1659.4,301.2z"/>
<path class="st3" d="M1434.4,555c-1.8-3.3-1.1-7.5-0.3-11.2l48-226.7c1.9-8.9,3.8-18,7.7-26.2c8-17,23.6-29.1,38.5-40.5l122-92.9
	c11.8-9,23.7-18,36-26.4"/>
<path d="M1444.8,548.9c0.8,1.9,0.2,1.2,0.6-0.3c0.5-2.2,0.9-4.3,1.4-6.5l2.7-12.7l5.4-25.4l10.8-50.8l21.5-101.6
	c3.4-16.2,5.9-33.2,11-49c4.2-13,13.3-22.8,23.5-31.5c11.7-10,24.3-19,36.6-28.4l41.2-31.4c30.8-23.4,61-48.1,93.1-69.8
	c5.4-3.6,7.7-10.6,4.3-16.4c-3.1-5.3-11-8-16.4-4.3c-29.6,20.1-57.5,42.7-85.9,64.4c-28.3,21.5-57.1,42.4-84.8,64.7
	c-11.5,9.3-22.7,20.1-29.4,33.5c-7.8,15.5-10.2,33.3-13.8,50.1L1443.8,440l-12.6,59.6l-6.4,30.3c-2.3,10.8-5.3,20.6-0.8,31.2
	c2.6,6,11.3,7.3,16.4,4.3C1446.6,561.8,1447.4,554.9,1444.8,548.9L1444.8,548.9z"/>
<path d="M1724.5,270.2c-0.2-2.6-0.3-5.2-0.4-7.9l-3.4,1.7l3.3-2.7c-0.2-5.3-0.4-10.6-0.5-15.9l-33.3,17.7l33.3-33.8
	c0-0.1,0-0.2,0-0.3c-19,11.6-38.3,22.4-58.2,32.5l38.8-33.7c-16.4,7.4-32.3,15.6-47.8,24.8l22.7-20.2c-13.1,3.8-25.8,8.6-38.1,14.5
	l34.2-36l-23,11.5c9.8-10.7,20.3-20.7,31.5-30l-40.5,24.5c15-15,30.8-29.3,47.2-42.7l-32.6,18.1l8.4-12.9l-10.3,3
	c1.3-4.3,3.8-8.1,7.1-11.1c-2.9,0.6-5.8,0.9-8.6,0.9c-27.5,20.7-56.5,40-75,68.6c-0.7,1.1-1.4,2.3-2.1,3.4
	c-6,3.8-11.8,7.9-17.4,12.3l17.4-15.2c-45.4,17.8-74.7,63.4-87.5,110.5c-6.5,23.9-9.5,48.6-12.5,73.2l-5,41.3l-31.2,78.8l-5.4,25.1
	l-0.8-16.2l-2.2,5.9c0.8,0.7,1.3,2,1.2,3.1c-0.3,1.9-1.7,3.4-2.7,5s-1.7,3.8-0.6,5.4l-7.8,20.3c21.8-23.4,45.8-44.6,71.9-63.1
	l-16.4,18.8l65.9-62.5c-6.6,9.8-14.3,18.8-22.9,26.9l48.5-46.5l-14.3,15.7l19.6-16.7l-17.9,21.9l18.2-17.1c-0.8,0.6-1.6,1.1-2.5,1.6
	l34.3-30.2l-8.9,11.4l19.4-18l30.9-26.7l-8.3,7.5l23-18.5l-10.2,9.3l49.7-44.2l-6.4,6l14.8-11.5l-6.1,8.2l9.3-8.4l-23.2,25
	c11.7-12.7,24.2-24.8,37.2-36.2C1727.6,321,1726.1,295.6,1724.5,270.2z M1459.8,523.6c-0.3,2.6,2.2,5,4.9,5.4l-2.7,22.5
	C1458.3,542.6,1457.6,532.9,1459.8,523.6z"/>
<path d="M1430.7,559.5c-1.8,0.6-0.2,4.2,1.1,2.9l0.9-2.4C1432.1,559.5,1431.4,559.3,1430.7,559.5z"/>
<path d="M1584.2,462.7l-9,8.4C1578.7,468.8,1581.7,466,1584.2,462.7z"/>
<path d="M1699.7,131c-20.3,11-39.1,24.5-55.9,40.3c3.5,0.7,7,1.1,10.6,1C1670.9,159.9,1686.9,146.9,1699.7,131z"/>
<path d="M1728.4,359.5l-5.9,6.3c2-1.8,4-3.7,5.9-5.6C1728.4,360,1728.4,359.7,1728.4,359.5z"/>
<path d="M1728.5,376.1c0.1-14.9-0.2-29.8-0.8-44.7c-5.5,4.6-10.9,9.4-16.3,14.2c-2.2-0.2-4.4,0.4-6.4,1.9l-5.7,4.4
	c-1.9,0.6-3.7,1.5-5.2,2.9l-8.5,7.6c7.2-16.6,7.8-34.7,6.6-52.5c-0.8-12-1.6-24.4-5.5-35.7c2.9,1.1,6.4,1,9.8-0.8l12.8-6.8
	c0.4,1.7,1.1,3.3,2.1,4.6c2.7,3.4,6.5,4.9,10.5,4.5c0.7,2.2,1.9,4.2,3.5,5.7c-0.2-3.8-0.5-7.5-0.7-11.3c-1.1-18-1.2-35.8-0.6-53.8
	c-1.8,0.1-3.7,0.6-5.6,1.8c-1.5,0.9-3,1.8-4.5,2.7c-0.1-0.1-0.1-0.2-0.2-0.3c-4-5-9.9-5.6-15.5-3.1c-4,1.8-8,3.7-11.9,5.6
	c-1.2-0.9-2.5-1.7-3.9-2.1l1.5-1.5c4-4.2,4.2-9.2,2.3-13.2c2-1.8,4.1-3.6,6.2-5.3c4.8-4,4.6-9.8,1.8-14.1c1.6-1.4,3.3-2.7,4.9-4.1
	c4.6-3.7,4.3-11.5,0.9-15.8c-3.7-4.7-10.2-6-15.4-3.1l-1.3,0.7c9-7.7,17.4-15.9,24.9-25.1c3.8-4.6,4.9-10.8,0.9-15.8
	c-3.7-4.7-10.3-6-15.5-3.1c-21.1,11.6-40.7,25.7-58.3,42.2c-3,2.8-4,7.2-3.1,11.2c-11.3,8.4-22.6,16.9-33.1,26.4
	c-10.2,9.2-19.5,19.3-27.2,30.5c-37.9,16-65.7,48.2-82,85.5c-19.8,45.4-22.9,95.7-28.8,144.3l-6.2,51.3c-3,1.5-5.5,4.1-6.3,7.5l0,0
	c0,0.1,0,0.2,0,0.2c-1.2,4.9-1.8,9.9-1.8,14.9c-0.7-0.4-1.5-0.7-2.4-0.9c-6-1.7-13.4,2-14.8,8.4l-0.1-0.1l-0.4,2
	c-2.2,1.2-4.1,3.2-5.4,5.9c-1.9,1.3-3.4,3.1-4.5,5.4c-1.5,3.5-1.5,7.3-0.2,10.6c-0.1,0.3-0.2,0.7-0.3,1c-0.5,2-0.6,3.7-0.5,5.4
	l-7,18.2c-4.4,11.4,12.2,20.1,20.1,11.7c13.7-14.8,28.3-28.6,43.8-41.4c3.6,1.2,7.9,0.6,11.7-2.9l34.1-32.4c2.9,0.2,6-0.7,8.8-3.3
	l0.1,0.1l23.7-22.7c4.1,1.3,8.8,0.3,12.1-2.9l17.6-16.5c3.6-2.6,6.8-5.6,9.6-9c0.1-0.1,0.2-0.3,0.3-0.4l5.6-4.9
	c2.9-0.1,5.8-1.2,8.1-3.4c13.3-12.3,26.8-24.2,40.4-36.1c0.6-0.4,1.1-0.7,1.6-1.2l8.2-6.6c1.7-0.6,3.3-1.5,4.7-2.7l25.1-22.3
	c4,2,8.9,1.8,12.9-2.5l7.3-7.8c2.8-2.9,5.6-5.7,8.4-8.5C1718.8,377.7,1723.8,378.7,1728.5,376.1z M1612.7,220.4
	c10.5-9.8,21.6-18.3,33-26.7c0.2,1.1,0.5,2.2,1,3.2c-4,3.8-8,7.7-11.9,11.6c-7.4,7.4-1.7,19,6.8,20.4l-9.1,9.5c0,0,0,0.1-0.1,0.1
	c-0.3,0-0.7,0-1,0c0-0.8,0.1-1.7,0.1-2.5c-0.2-12.5-15.8-15.6-22.4-6.1c-0.5,0.7-1,1.5-1.5,2.2c-0.3-1.8-0.9-3.4-1.9-4.8
	C1608,225,1610.3,222.7,1612.7,220.4z M1492.3,401.9c5.6-40,15.6-80.6,41.2-112.3c1.6-2,3.3-3.9,5-5.8c1.6,0.5,3.4,0.6,5.1,0.3
	c-6.9,7.4-13.4,15.1-19.7,22.7c-4.1,5-4.9,12.1,0,17c3,3,8.2,4.3,12.5,2.9c-6.3,26.9-11.3,54.1-15,81.4c0,0,0,0.1-0.1,0.1l0,0
	c-0.1,1-0.3,2.1-0.4,3.1c-0.8,5.8,5.2,11.2,10.4,11.8c6.2,0.7,11.1-2.8,13.2-8.6c11.4-31.1,25-61.3,40.9-90.4
	c8-14.5,16.4-28.8,25.4-42.8c3.9-6.1,8.4-12.2,12.2-18.6c9.2-1.1,18.7-0.2,27.1,3.9c5.8,2.8,10.5,6.7,13.1,12.6
	c2.7,5.8,3.5,12.8,4.1,19.2c1.3,14.5,3,30-0.3,44.3c-3.4,15-13.3,24.5-24.9,33.8c-28.4,22.8-57.2,45.3-85.7,68l-49,38.9l-24.1,19.1
	l-3.8,3C1483.5,471,1487.5,436.4,1492.3,401.9z"/>
<path d="M1722.6,154.4c0.1-2.7,1.8-4.2,3.8-4.7c0.6-10.3,2-20.4,2.8-30.7c0.5-5.5,0.4-11.1,0.3-16.6c-19.8,11.3-36.9,26.9-49.9,45.6
	l2.8,2.9c-15,14.1-17.1,39.1-6.6,56.7c9.8,16.3,28.7,25.8,47.7,26.3c0-7.6,0.2-15.2,0.5-22.8c0.4-9.8,0.8-19.5,1.1-29.3
	c0.1-5-0.1-9.5-1-14.4C1723.2,163.2,1722.5,158.9,1722.6,154.4z"/>
<path d="M1698.1,213.9c-9.2-5.9-15.3-15.6-16.6-26.5c-1.2-9.5,2-20.6,9.5-27.9c3.5-3.4,4.2-7.4,3.2-10.9
	c6.4-8.2,13.6-15.6,21.6-22.2c4.2-3.5,8.8-6.9,13.6-10.1c0.5-9.1-0.2-18.2-0.1-27.3c-7.4,3.6-14.4,8.1-21,12.9
	c-15.1,11.2-28.4,24.7-39.1,40.2c-1.6,2.3-2,5.1-1.5,7.8c-15.8,22.3-12.9,54.3,5.8,74.5c13.3,14.3,31.5,21.1,50,21.3
	c-0.1-7.9-0.1-15.8,0.1-23.8C1714.8,221.6,1706.1,219.1,1698.1,213.9z"/>
<path class="st4" d="M1458.4,502.8"/>
<path d="M1456.6,521.6v-22.7h-3c0.1,7.2,0,14.3-0.4,21.4h3c-0.7-8.2-0.7-16.5,0.1-24.7l-2.9,0.4c0.9,3.1,0.6,5.9,0,9h2.9
	c-0.4-2.3-0.2-4.6,0.5-6.8l-2.9-0.8c-1.1,6.1-4.6,11.8-7.2,17.4c-2.5,5.3-4.8,10.8-7.6,16c-2.5,4.7-6.5,8-9.9,12
	c-3.3,3.9-6.1,8.1-8.3,12.6l2.8,0.8c-0.3-3.3-0.1-6.6,0.7-9.8l-2.9-0.8c-0.3,2.2-1,4.3-2,6.3l2.7,1.2l3.3-13.7l-2.9-0.8
	c-0.6,2.4-1.4,4.8-2.5,7.1c-0.8,1.7,1.8,3.3,2.6,1.5c1.2-2.5,2.1-5.1,2.8-7.8c0.4-1.9-2.4-2.7-2.9-0.8l-3.3,13.7
	c-0.4,1.6,2,2.7,2.7,1.2c1.1-2.2,1.9-4.6,2.3-7c0.3-1.9-2.4-2.7-2.9-0.8c-0.8,3.5-1.1,7-0.8,10.6c0.1,1.4,2.1,2.2,2.8,0.8
	c2.7-5.2,6-10.1,10-14.4c3.5-3.7,6.7-7,8.9-11.6c2.7-5.4,5.1-10.9,7.7-16.3c2.5-5.3,5.6-10.6,6.7-16.4c0.2-0.8-0.3-1.6-1.1-1.8
	c-0.8-0.2-1.6,0.3-1.8,1c-0.9,2.7-1.1,5.6-0.5,8.3c0.2,0.8,1.1,1.2,1.9,1c0.5-0.1,0.9-0.5,1-1c0.7-3.7,1.1-7,0-10.6
	c-0.2-0.8-1.1-1.2-1.9-1c-0.6,0.2-1,0.7-1.1,1.4c-0.8,8.2-0.8,16.5-0.1,24.7c0,0.8,0.7,1.5,1.5,1.5s1.5-0.7,1.5-1.5
	c0.4-7.1,0.5-14.3,0.4-21.4c0-0.8-0.7-1.5-1.5-1.5s-1.5,0.7-1.5,1.5v22.7c0,0.8,0.7,1.5,1.5,1.5S1456.6,522.5,1456.6,521.6
	L1456.6,521.6z"/>
<path d="M1420.8,550.3c0-1.5,0.3-2.9,0.9-4.3c2.1-6.2,2.5-13,4.8-19.1c-0.5,1.3-1.2,2.6-1.9,3.9c0-1.6,0.4-3.3,1-4.8
	c0.9-2.9,1.7-5.8,2.4-8.8c0.6-2.1,1-4.2,1.1-6.3"/>
<path d="M1422.3,550.3c0.1-3.8,2-8,2.8-11.7c0.7-3.8,1.6-7.6,2.8-11.3c0.5-1.6-2.1-2.7-2.7-1.2c-0.6,1.3-1.2,2.6-1.9,3.9l2.8,0.8
	c0.4-6.7,4-13.1,4.5-19.9c0.1-1.9-2.9-1.9-3,0c-0.5,6.8-4,13.1-4.5,19.9c0,0.8,0.7,1.5,1.5,1.5c0.5,0,1-0.3,1.3-0.7
	c0.7-1.2,1.4-2.5,1.9-3.9l-2.7-1.2c-1.3,4.3-2.4,8.6-3.2,13.1c-0.8,3.6-2.4,7.1-2.5,10.7C1419.3,552.3,1422.3,552.3,1422.3,550.3
	L1422.3,550.3z"/>
<path d="M1419.1,569.2c0-10.5,4-20.3,5.8-30.6c0.3-1.9-2.6-2.7-2.9-0.8c-1.8,10.5-5.9,20.6-5.8,31.4c0,0.8,0.7,1.5,1.5,1.5
	S1419.1,570,1419.1,569.2L1419.1,569.2z"/>
<path class="st3" d="M1408.8,608.3c-0.1-5.4,2-10.7,3.6-15.8c1-3.4,1.9-6.9,2.5-10.4c0.1,0.8-0.1,1.6-0.6,2.2
	c0.8-5.4,1.6-10.8,2.5-16.2c0.5,0.4,0.8,1,0.8,1.7c0.3,2.6,0,5.2-0.8,7.7"/>
<path d="M1410.3,608.3c0.2-8.8,4.4-17.3,6.1-25.9l-2.9-0.4l-0.4,1.4l2.7,1.2c0.8-5.4,1.6-10.8,2.5-16.2l-2.5,0.7
	c1.5,1.8,0.2,6.1-0.3,7.9c-0.2,0.8,0.3,1.6,1.1,1.8c0.8,0.2,1.6-0.3,1.8-1c1-3.3,2-7.9-0.4-10.8c-0.6-0.6-1.6-0.6-2.1,0
	c-0.2,0.2-0.3,0.4-0.4,0.6c-0.9,5.4-1.7,10.8-2.5,16.2c-0.2,1.5,1.9,2.8,2.7,1.2c0.6-0.9,0.8-1.9,0.8-3c0.1-1.7-2.6-2.1-2.9-0.4
	c-1.7,8.9-5.9,17.5-6.2,26.7C1407.3,610.2,1410.3,610.2,1410.3,608.3L1410.3,608.3z"/>
<path d="M1409.4,606.9c0.1,1.5,0,3-0.4,4.4l-0.1-1.1c-1,3-1.5,6.2-1.5,9.3c0,0.2,0,0.3,0.1,0.5c0.1,0.2,0.3,0.3,0.5,0.4
	c2.3,0.8,4.8-0.2,7-1.2c3.7-1.9,7.2-4.2,10.3-7c1.1-1.1,2.3-2.1,3.5-3c0.8-0.4,1.5-1,2.1-1.6c1.5-1.6,1.5-4.1,1.4-6.4
	c-1.4,2.2-2.8,4.5-4.2,6.7"/>
<path d="M1407.9,606.9c0.1,1.3,0,2.7-0.3,4l2.9,0.4l-0.1-1.1c0-0.8-0.7-1.5-1.6-1.5c-0.6,0-1.2,0.4-1.4,1.1c-0.7,2.4-3,9-1.1,11.3
	s6.5,0.6,8.7-0.3c5.6-2.5,9.7-6.6,14.5-10.3c3.4-2.7,4.4-4.8,4.2-9.2c0-0.8-0.7-1.5-1.5-1.5c-0.5,0-1,0.3-1.3,0.7
	c-1.4,2.2-2.8,4.5-4.2,6.7c-1,1.7,1.6,3.2,2.6,1.5c1.4-2.2,2.8-4.5,4.2-6.7l-2.8-0.8c0.1,3.8-1.4,5.3-4.1,7.7
	c-2.2,2.1-4.6,4-7.1,5.8c-2.1,1.4-5.3,4-7.8,4.1c-4.8,0.3-2.3-5.5-1.5-8.2l-2.9-0.4l0.1,1.1c0.1,1.6,2.6,2.2,2.9,0.4
	c0.3-1.6,0.5-3.2,0.4-4.8C1410.9,605,1407.9,605,1407.9,606.9L1407.9,606.9z"/>
<path d="M1414.3,601.1c-1.5,2.5-2.9,5.2-4,7.9l2.9,0.4c-0.5-3.9-0.3-7.9,0.6-11.7l-2.9-0.8l-1.1,8c-0.2,1.5,1.9,2.8,2.7,1.2
	c1.2-2.3,2.2-4.6,2.9-7.1l-2.9-0.8c-0.6,2.8-1.7,5.8-1.9,8.7c-0.1,1.7,0.3,2.9,1.9,3.7c0.7,0.4,1.7,0.1,2.1-0.6
	c0.1-0.1,0.1-0.2,0.1-0.3c0.2-1,0.3-4.5,1.3-5.2l-2.2-1.7c-0.3,1.7-0.5,3.5-0.5,5.2c0,0.8,0.7,1.5,1.5,1.5c0.5,0,1-0.3,1.3-0.7
	l2.3-4.5l-2.7-1.2l-0.7,4.5c-0.3,1.6,1.8,2.7,2.7,1.2l2-3.6l-2.7-0.4c0.2,1.2,0.2,2.4,0.2,3.5c0,0.8,0.7,1.5,1.5,1.5
	c0.5,0,1-0.3,1.3-0.7l3-5l-2.8-0.8c0.1,1.9-0.2,3.9-0.8,5.8c-0.2,0.8,0.3,1.6,1.1,1.8c0.6,0.1,1.3-0.1,1.6-0.7l3.5-5.8l-2.7-1.2
	c-0.3,1.5-0.8,2.9-1.5,4.2c-0.7,1.4,1.1,3.2,2.4,1.8l4.4-4.8l-2.5-1.5c-0.4,1.1-0.9,2.2-1.4,3.3l2.6,1.5c0.4-0.8,0.8-1.5,1.3-2.3
	l-2.6-1.5l-1.7,3.8l2.7,1.2c0.3-0.7,0.6-1.3,1-1.9c1-1.7-1.6-3.2-2.6-1.5c-0.5,0.8-0.9,1.7-1.3,2.7c-0.6,1.6,2,2.7,2.7,1.2l1.7-3.8
	c0.4-0.7,0.1-1.6-0.6-2c-0.7-0.4-1.6-0.1-2,0.5c-0.5,0.7-0.9,1.5-1.3,2.3c-0.9,1.7,1.7,3.2,2.6,1.5c0.7-1.3,1.3-2.6,1.7-4
	c0.2-0.8-0.3-1.6-1.1-1.8c-0.5-0.1-1,0-1.4,0.4l-4.4,4.8l2.4,1.8c0.8-1.6,1.4-3.3,1.8-5c0.2-0.8-0.3-1.6-1.1-1.8
	c-0.6-0.1-1.3,0.1-1.6,0.7l-3.5,5.8l2.7,1.2c0.7-2.1,1-4.3,0.9-6.5c0-0.8-0.7-1.5-1.5-1.5c-0.5,0-1,0.3-1.3,0.7l-3,5l2.8,0.8
	c0-1.5-0.1-2.9-0.3-4.3c-0.2-1.3-2.2-1.4-2.7-0.4l-2,3.6l2.7,1.2l0.7-4.5c0.2-1.5-1.9-2.8-2.7-1.2l-2.3,4.5l2.8,0.8
	c0-1.5,0.2-3,0.4-4.5c0.2-1.2-1-2.5-2.2-1.7c-2.2,1.5-2.2,4.5-2.7,7l2.2-0.9c-1.2-0.5,1.2-7.9,1.4-9c0.2-0.8-0.3-1.6-1.1-1.8
	c-0.8-0.2-1.6,0.3-1.8,1c-0.7,2.2-1.6,4.3-2.7,6.4l2.7,1.2l1.1-8c0.2-1.8-2.4-2.7-2.9-0.8c-1,4.1-1.3,8.3-0.7,12.5
	c0,0.8,0.7,1.5,1.6,1.5c0.6,0,1.2-0.4,1.4-1.1c1-2.5,2.3-4.9,3.7-7.2c0.4-0.7,0.1-1.6-0.6-2C1415.6,600.2,1414.7,600.4,1414.3,601.1
	L1414.3,601.1z"/>
<path class="st3" d="M1444.9,587.8c2.5-1.4,4.9-3,7-4.9c0.8-0.8,1.5-1.6,2.3-2.3c3.1-2.8,7.1-4.4,10.4-7c1.6-1.3,3.1-2.7,4.7-4.1
	c2.5-2.1,5.1-4,7.8-5.8c1.5-0.9,2.8-2.2,3.7-3.7c-0.7-0.2-1.5-0.1-2.1,0.3c-5.8,2.4-10.3,7-14.6,11.6c2.1-4.2,6.1-7.1,9.9-9.9
	c-5.6,3.8-10.8,8.1-15.6,12.8c1.6-2.3,3.8-4.2,6.2-5.6c-1,2-2.3,3.9-3.9,5.5l1-1.3c-1.5,0.6-2.9,1.5-4,2.8"/>
<path d="M1445.6,589.1c3.4-2.2,6.6-4.6,9.6-7.4c3.1-2.7,7-4.3,10.3-6.8s6.2-5.5,9.6-7.9c2.6-1.9,5.2-3.4,6.9-6.1
	c0.4-0.7,0.1-1.7-0.6-2.1c-0.2-0.1-0.5-0.2-0.7-0.2c-6.7-0.4-13.6,7.9-17.7,12.3l2.4,1.8c2.3-4.1,5.7-6.7,9.4-9.3
	c1.6-1.1,0.1-3.7-1.5-2.6c-5.7,3.9-11,8.3-15.9,13.1l2.4,1.8c1.6-2,3.5-3.7,5.7-5l-2.1-2c-1,1.9-2.2,3.6-3.7,5.2l2.4,1.8l1-1.3
	c1-1.3-0.9-2.6-2.1-2c-1.6,0.7-3.1,1.7-4.3,3c-1.4,1.4,0.7,3.5,2.1,2.1c1-1.2,2.3-2,3.7-2.6l-2.1-2l-1,1.3c-1,1.3,1.2,3.1,2.4,1.8
	c1.6-1.8,3-3.7,4.1-5.8c0.7-1.3-0.7-2.9-2.1-2c-2.6,1.6-4.9,3.7-6.8,6.1c-1,1.4,1.2,3,2.4,1.8c4.8-4.6,9.9-8.8,15.3-12.6l-1.5-2.6
	c-4.1,2.9-8,5.9-10.5,10.4c-0.8,1.5,1.2,3.1,2.4,1.8c3.5-3.7,9.9-11.8,15.6-11.4l-1.3-2.3c-2,3.1-5.8,4.9-8.8,7.2s-5.6,5.1-8.8,7.2
	c-2.5,1.7-5.2,3-7.6,4.8c-3.4,2.7-6.4,5.6-10.2,7.9c-0.7,0.4-0.9,1.4-0.5,2.1C1444.1,589.3,1445,589.5,1445.6,589.1L1445.6,589.1z"
	/>
<path d="M1496.8,547.3c5.1-1.8,9.7-4.4,13.8-7.9c4-3.3,5.9-7.7,10.6-10.5l-1.5-2.6c-4.1,2.8-7.9,6-11.5,9.5l2.5,1.5
	c1.5-6.2,10.2-11.6,15.3-14.8l-2.1-2l-4.8,6.3c-1,1.4,1.2,3,2.4,1.8c1.6-1.7,3.3-3.3,5.2-4.8l-2.1-2.1c-1.6,2-3.3,4-5.1,5.8
	c-0.6,0.6-0.5,1.6,0.1,2.1c0.6,0.5,1.5,0.5,2,0c9.3-8.1,18.1-16.8,26.3-25.9l-2.5-1.5c-1.3,6.8-8.4,13.6-12.8,18.6l2.5,1.5
	c0.6-3.6,6.3-8.2,8.7-10.8c3-3.1,6.1-6,9.3-8.8l-2.1-2.1c-1.8,2.1-3.6,4.2-5.2,6.4c-1,1.4,1.2,3,2.4,1.8c3.4-3.2,6.6-6.6,9.6-10.2
	l-2.5-1.5l-0.9,3.2c-0.5,1.9,2.3,2.6,2.9,0.8l0.9-3.2c0.4-1.4-1.5-2.6-2.5-1.5c-3,3.6-6.2,7-9.6,10.2l2.4,1.8c1.5-2,3.1-4,4.8-5.8
	c0.6-0.6,0.5-1.6-0.1-2.1c-0.6-0.5-1.5-0.5-2,0c-4.1,3.5-8,7.3-11.7,11.3c-2.3,2.6-6.6,6-7.2,9.6c-0.2,1.3,1.4,2.7,2.5,1.5
	c4.7-5.3,12.2-12.7,13.5-19.9c0.2-1.4-1.4-2.7-2.5-1.5c-8.3,9.1-17.1,17.8-26.3,25.9l2.1,2.1c1.8-1.9,3.5-3.8,5.1-5.8
	c0.6-0.6,0.5-1.6-0.1-2.1c-0.6-0.5-1.5-0.5-2,0c-1.8,1.5-3.5,3.1-5.2,4.8l2.4,1.8l4.8-6.3c0.9-1.2-0.8-2.8-2.1-2
	c-6,3.8-14.9,9.3-16.7,16.6c-0.2,0.8,0.3,1.6,1.1,1.8c0.5,0.1,1,0,1.4-0.4c3.3-3.3,7-6.4,10.9-9.1c1.6-1.1,0.2-3.6-1.5-2.6
	c-3.8,2.3-6.4,5.2-9.1,8.7c-3.2,4-9.7,7.9-14.6,9.5C1494.2,545,1495,547.9,1496.8,547.3L1496.8,547.3z"/>
<path d="M1599.6,461.9c-2.3,1.7-4.3,3.8-5.9,6.1c-0.8,1.2,0.8,2.9,2.1,2l11.6-8.3c1.6-1.1,0.1-3.7-1.5-2.6c-5.8,4.1-11.2,8.7-16,14
	c-1.3,1.4,0.8,3.5,2.1,2.1c4.6-5,9.8-9.5,15.4-13.5l-1.5-2.6l-11.7,8.3l2.1,2c1.5-2.1,3.3-4,5.4-5.5
	C1603.2,462.8,1601.1,460.7,1599.6,461.9L1599.6,461.9z"/>
<path d="M1626.4,447.4l70.2-58.9c1.5-1.2-0.7-3.4-2.1-2.1l-70.2,58.9C1622.8,446.5,1624.9,448.6,1626.4,447.4L1626.4,447.4z"/>
<path d="M1692.7,389.8c-6.1,4.4-11.7,9.3-16.9,14.7c-1.3,1.4,0.8,3.5,2.1,2.1c5-5.2,10.4-10,16.3-14.3
	C1695.8,391.2,1694.3,388.6,1692.7,389.8z"/>
<path d="M1611.8,459.6c7.5-2,10.7-9.2,15.7-14.4c1.3-1.4-0.8-3.5-2.1-2.1c-4.6,4.7-7.7,11.8-14.4,13.6c-0.8,0.2-1.2,1.1-1,1.9
	C1610.2,459.3,1611,459.8,1611.8,459.6z"/>
<path d="M1618.2,450.8c-2.7,0.5-5.4,1.2-8,2.1c-1.8,0.6-1,3.5,0.8,2.9c2.6-0.9,5.3-1.6,8-2.1
	C1620.9,453.3,1620.1,450.4,1618.2,450.8z"/>
<path d="M1617.6,452.2c-1.9-0.5-3.8,0.1-5.2,1.4c-1.4,1.3,0.7,3.5,2.1,2.1c0.6-0.6,1.5-0.8,2.3-0.6
	C1618.7,455.6,1619.5,452.7,1617.6,452.2L1617.6,452.2z"/>
<path d="M1675.7,403.2c-5.4,5.9-11.8,10.6-18.1,15.4c-1.5,1.1,0,3.8,1.5,2.6c6.6-5,13.1-9.9,18.8-15.9
	C1679.2,403.9,1677,401.8,1675.7,403.2z"/>
<path d="M1706.7,383.5c1.6-1.2,3.2-2.5,4.6-3.9c0.7-0.7,1.3-1.5,2-2.1c1.1-0.7,2.3-1.3,3.6-1.7l-1.2-2.7l-4.9,2.5
	c-1.7,0.9-0.2,3.5,1.5,2.6l4.9-2.5c1.5-0.8,0.4-3.4-1.2-2.7c-2,0.8-3.9,1.4-5.4,3c-1.7,1.8-3.5,3.5-5.5,5
	C1703.7,382.1,1705.2,384.7,1706.7,383.5L1706.7,383.5z"/>
<ellipse transform="matrix(0.7688 -0.6394 0.6394 0.7688 -134.1005 971.8937)" class="st5" cx="1277.2" cy="671.4" rx="0.5" ry="0.5"/>
<path class="st1" d="M1441.1,366.8l8.5-9l-164.7,136l19.9-20.1l-204.1,167.8c-8.4,6.9-21.7,13.5-28.6,5.1
	c-10.2,11.6-21.3,22.4-33.1,32.3l19-20.1l-81.3,63.2l37.5-30.6c-24.3,17.5-47.5,36.4-69.7,56.5l13-13l-49.7,39.1
	c67.9,37.6,120.4,97.4,182.3,144.2c49.7,37.6,106.1,67.2,149.7,111.7c21.7,22.2,44.1,49.9,75.2,50.5c11.5,0.2,22.6-3.5,33.8-6.2
	c51.2-12.7,105-5.5,157.4-10.6c44.8-4.3,88.1-17.6,131.2-30.8c27.5-8.4,57.3-18.6,72.5-43.1c12.4-20,11.8-46,3.3-68
	s-24.2-40.3-41-56.8c-20.1-19.7-42.2-37.4-65.9-52.6c-31-19.9-64.5-35.5-95.5-55.5c-29.7-19.1-56.7-42-83.7-64.7
	c-16.7-14.1-34.1-29.2-40.8-50c-6.5-19.8-2.1-41.3,2.4-61.7l44.1-202.1"/>
<path class="st1" d="M1728.5,938.2c-0.2-1.9-0.3-3.8-0.3-5.7c0-0.4,0.1-0.8,0.2-1.2c-4.7-19.2-14.9-36.7-27.4-52.3
	c-17.7-22.2-39.8-41.2-62.3-58.3c-46.9-35.6-102.2-57.9-149.4-93.1c-22.3-16.7-44.1-34.6-64.8-53.2c-9.1-8.2-17.9-17-23.7-27.9
	c-6.3-11.9-6.7-25.3-5.2-38.4c1.6-14.4,5.5-28.6,8.5-42.7l10-45.7l20.4-93.3l9.8-44.7c0.2-1.1,0.3-2.2,0.3-3.3
	c1.7-0.5,3.4-1.6,5-3.2l-0.1,0l8.2-8.6l0.4-0.3l0,0c4.6-4.7,4.5-12.2,0-17c-4.9-5-12-4.1-17,0l-136.2,112.5c-3,0.1-6,1.4-8.5,3.4
	l-0.1,0l0,0l-0.5,0.5l-179.8,147.8c-7.7,6.3-16.4,14-23.5,19.4c-2.6,2-5.4,3.7-8.5,4.9c-0.8,0.3-1.5,0.4-2.3,0.6
	c0.4-0.1-0.2,0.2-0.6,0.3c0,0,0,0-0.1-0.1c0,0,0,0,0,0c0.3-0.2,0.2-0.1-0.1-0.1c-0.1-0.1-0.2-0.3-0.4-0.4c-4.2-4.5-12.8-4.7-17,0
	c-2.8,3.2-5.7,6.3-8.6,9.3c-1.9,0.6-3.8,1.6-5.5,2.9l-37.3,29c-1.4,0.3-2.7,0.8-4,1.8c-18.7,13.5-36.8,27.7-54.3,42.7
	c-1.7,0.6-3.3,1.5-4.8,2.6l0,0l-0.3,0.3l-49.4,38.9c-6.1,4.8-3.7,15.4,2.4,18.8c47.2,26.3,86.7,63.2,127,98.6
	c21,18.4,42.4,36.4,65,52.9c22,16,45,30.6,67.4,46s44.4,31.6,64,50.5c17.5,16.9,32.9,36.7,54.1,49.3c10.8,6.5,23.1,10.6,35.8,10.8
	c15.2,0.3,29.7-5.3,44.4-8.4c28.8-6.1,58.4-6,87.7-6.2c31-0.2,61.8-1.4,92.4-6.9c29.3-5.3,58-13.5,86.5-22.2
	c24.1-7.3,50.1-13.9,70.9-28.8c15.5-11.1,26.4-26.1,31.4-43.5C1727.5,963.8,1726.6,951,1728.5,938.2z M1703.2,976.7
	c-8.4,20.2-29.3,30.9-49,38.1c-26.2,9.5-53.4,17.1-80.4,24.1c-28.5,7.4-57.2,12.7-86.7,14.2c-29.9,1.5-59.8,0.2-89.7,2.2
	c-15,0.9-29.8,2.8-44.5,5.8c-13,2.7-26,8.1-39.4,7.5c-20.6-0.9-38.2-18.8-52.7-33.9c-18.6-19.3-37.9-37.1-59.3-53.3
	c-42.8-32.2-89.2-59-130.3-93.4s-79.7-72.5-124-103.4c-5.9-4.1-12-8.1-18.2-11.9l16.4-12.9c2.6-0.1,5.2-1.1,7.6-3.2l0,0l0.6-0.6
	c8.5-7.7,17.1-15.1,25.9-22.4c2-0.5,4-1.6,5.8-2.9l51.3-39.9c3.8,0.7,7.7-0.6,10.9-3.2c9.5-8,18.5-16.5,27-25.6
	c12.9,3.4,27.7-6.1,37.8-14.4l48.3-39.7l97.4-80.1l26.7-21.9c3.1,0,6.2-1.3,8.8-3.4l122-100.8l-34.2,156.4
	c-6.2,28.4-16.3,60.4-6.1,89c9.1,25.6,30.4,42.8,50.5,59.8c22.1,18.6,44.4,37.1,68.2,53.4c24.2,16.6,50.2,30.1,75.7,44.5
	c24.6,13.8,48.4,29,70.1,47.2c20.1,16.8,40.4,35.5,54.1,58.1C1705.7,929.7,1712.3,954.7,1703.2,976.7z"/>
<path class="st1" d="M1081,638.9C1081,638.9,1080.9,638.9,1081,638.9C1081,638.9,1081,638.9,1081,638.9z"/>
<ellipse transform="matrix(0.6394 -0.7688 0.7688 0.6394 -98.6968 1198.5271)" class="st5" cx="1228.5" cy="704.5" rx="0.5" ry="0.5"/>
<path class="st1" d="M899.2,769.4c28.3-22.2,57-44,86.2-65.1c3.1-2.2,0.1-7.4-3-5.2c-29.6,21.3-58.7,43.5-87.4,66
	C892,767.5,896.2,771.8,899.2,769.4L899.2,769.4z"/>
<path class="st1" d="M1014.2,683.7c1.2-1.8,4.4-2.9,6.2-3.9c2.2-1.3,4.4-2.7,6.5-4.2c3.7-2.6,7.3-5.4,10.7-8.4
	c2-1.8,0.3-5.1-2.1-5.1c-3.1,0-5.8,2.3-8.3,3.9c-3.7,2.3-7.2,4.7-10.7,7.3c-3.1,2.3-0.1,7.5,3,5.2c2.8-2,5.6-4,8.5-5.9
	c1.7-1.1,5.5-4.5,7.5-4.5l-2.1-5.1c-4.3,3.8-8.9,7.3-13.8,10.4c-3.6,2.3-8.1,3.8-10.6,7.5C1006.8,683.9,1011.9,686.9,1014.2,683.7
	L1014.2,683.7z"/>
<path class="st1" d="M1244.2,1037.8c-1.9,1.2-3.7,2.5-5.6,3.6l-1.4,0.9l0.2-0.3c-0.6-0.1-2.3-2.8-2.8-3.4c-3.1-3.5-6.4-6.9-9.9-10
	c-7.5-6.8-15.4-13.3-23.5-19.5c-7.4-5.8-15.6-10.4-23.1-16c-8.4-6.3-15.7-14.1-22.9-21.8c-2.7-2.8-6.9,1.4-4.2,4.2
	c7.4,7.8,14.8,15.6,23.4,22.2c9.2,7,19.2,12.9,28.3,20.2c8.5,6.9,17.1,13.8,24.7,21.7c2.4,2.5,5.3,8,9,8.7s8-3.6,10.9-5.3
	C1250.6,1041,1247.5,1035.8,1244.2,1037.8L1244.2,1037.8z"/>
<path class="st1" d="M1295,1077.6l-0.7-0.6c-1.5-1.3-4.6-1.1-5,1.3c-0.8,4.6,0.7,7.6,3.8,10.9l-0.9-2.1v0.7l2.2-2.9
	c-1,0.4-2.1,0.1-2.7-0.7l-5,2.9c2.8,2.5,5.6,4.8,9.3,5.5c4.1,0.8,8.7,0.3,12.8,0.3c3.9,0,3.9-6,0-6c-3.2,0-6.4,0.2-9.6,0
	c-3.5-0.2-5.8-1.7-8.4-4.1c-2.4-2.1-5.5,0-5,2.9c0.7,4.5,6.2,6.3,10.1,4.9c1.3-0.4,2.2-1.6,2.2-2.9c-0.1-3.3-3.7-4.4-3.2-7.9l-5,1.3
	l0.7,0.6C1293.7,1084.4,1297.9,1080.2,1295,1077.6L1295,1077.6z"/>
<path class="st1" d="M1333.3,1097.8c-2.7,0.2-5.4-0.4-7.8-1.5l9.2,4.9c-0.8-2.4-0.9-5-0.7-7.4l-3.3-4.1
	C1332.2,1092.2,1333.1,1095,1333.3,1097.8z"/>
<path class="st1" d="M1728.7,993.6c0.2-11.7-1.1-23.4-1.3-35.1l-1.1-2.1c-2.9,12.7-4.8,25.6-5.6,38.5c0.9-0.2,1.8-0.3,2.8-0.5
	c-0.3,18-0.6,35.9-0.5,53.8c1,6.3,2.2,12.5,3.6,18.7c2.3-24.3,1.8-48.7-1.3-72.8C1726.4,993.9,1727.6,993.7,1728.7,993.6z"/>
<path class="st1" d="M1729,1069.7c-1.3,3.9-5.4,9.7-5.3,12.8c-0.4-11.4-0.6-22.9-0.7-34.3c-2.7-17.7-3.5-35.5-2.3-53.3
	c-9.1,1.7-18.1,4.1-27.1,6.1c-58.6,13.3-119.4,12.5-178.8,21.6c-51.9,8-102.4,23.5-151,43.3c-7.8,3.2-15.8,6.6-21.8,12.5
	c-2.4,2.3-4.4,5.1-5.8,8.1c27.6,7.8,56.9,5.3,85.5,6.2c33.7,1.1,67.1,6.8,100.7,10.2c43.2,4.3,86.7,4.4,130,0.5
	c20-1.8,44.3-2.1,63.3-8.8c12.4-4.3,11.6-12.7,13.3-24C1729,1070.2,1729,1069.9,1729,1069.7z"/>
<path class="st1" d="M1334.3,1092.1c0.4-1.9,1-3.8,1.9-5.7c0,0,0,0,0,0C1334.9,1088.1,1334.2,1090.1,1334.3,1092.1z"/>
<path class="st1" d="M1330.8,1089.8c-0.9-1.5-2-2.8-3.2-4L1330.8,1089.8z"/>
<path class="st1" d="M1729.1,1081.7c0-0.8,0-1.6,0-2.4c-0.2-24.3-1.4-48.6-1-72.9c-0.1-0.5-0.2-1.1-0.1-1.8
	c0.5-4.7,0.7-9.4,0.7-14.1c-0.3,0-0.5,0.1-0.8,0.1c-0.4-3-0.8-6-1.3-9c-0.2-1-0.7-1.6-1.4-1.9c0.6-5,1.5-10,2.4-15
	c-0.2-3.7-0.3-7.4-0.2-11.1c-1.5-0.7-3.5-0.2-4,1.9l0-0.2c-2.7,12.2-4.6,24.5-5.5,36.8c-5.4,1-10.7,2.3-16,3.6
	c-14.8,3.5-29.8,6.5-44.8,8.7c-30.7,4.5-61.8,6.3-92.7,9.2c-29.3,2.7-58.4,6.4-87.1,12.8c-29.3,6.6-58.1,15.1-86.2,25.6
	c-7.6,2.8-15.2,5.7-22.8,8.7c-7.2,2.9-14.6,5.6-21.2,9.8c-5.4,3.5-10.2,8.2-13.1,13.8c-0.1,0.1-0.3,0.3-0.4,0.5
	c-0.5,0.7-0.9,1.4-1.2,2.1l-0.1-0.1c-0.6-0.8-1.2-1.6-1.9-2.4l-0.7-0.9l-0.1,0.1c-2.8-2.7-6.5,1.4-4.2,4.3l2.7,3.4
	c0.6,1,1,2,1.4,3.1c-1.6-0.4-3.1-0.9-4.5-1.8l0,0c-3.4-1.8-6.4,3.3-3,5.2c0.7,0.4,1.3,0.7,2,1l9.2,4.9c1.5,0.8,3.3,0.2,4-1.3
	c0.3-0.6,0.4-1.4,0.3-2.1c-0.3-1.3-0.5-2.5-0.6-3.7c0.7-0.7,1.1-1.8,0.8-2.8c-0.3-1.1-0.3-2.2-0.1-3.2c0.1-0.3,0.2-0.5,0.2-0.8
	c26.8,6.8,54.6,4.9,82.1,5.6c29.8,0.8,59.4,5.4,89,8.8c58,6.7,115.8,5.2,173.8-0.5c7.1-0.6,14.2-1.7,21.2-3.1
	c6.1-1.3,12.9-2.7,18.2-6c3.6-2.3,5.7-5.5,7-9C1729.2,1084.5,1729.1,1083.1,1729.1,1081.7z M1716.9,1090.7
	c-11.3,5.3-25.4,6.3-37.6,7.4c-26.6,2.4-53.3,4.5-80,4.9c-28.6,0.4-57.1-1-85.6-4.2c-28.1-3.1-56-7.5-84.2-8.9
	c-29.6-1.5-59.7,1.6-88.8-5.4c4.4-6,11.7-10.4,18.3-13.4c12.6-5.7,25.8-10.4,38.8-15.1c26.5-9.6,53.5-17.5,80.9-23.6
	c56.5-12.6,114.3-13.3,171.4-20.8c15.4-2,30.8-4.6,46-8.1c7.1-1.6,14.2-3.4,21.3-4.9c-0.8,16.6,0,33.3,2.5,49.8
	c0.1,11.3,0.3,22.5,0.6,33.8c0,0.2,0,0.3-0.1,0.5h0.1c0.1,1.5,1,2.3,2.1,2.6C1721.5,1087.5,1719.7,1089.4,1716.9,1090.7z"/>
<path class="st1" d="M1324.4,1082.1c0.9,4.4,2.7,8.6,5.5,12.2c1.9,2.4,5.2,6.6,8.6,6.9c7.7,0.7,6.7-14.2,5.3-18.4
	c-0.4-1.6-2.1-2.5-3.7-2.1c-1.3,0.4-2.2,1.5-2.2,2.9l-0.8,12.6l4.5-2.6c-0.1-0.8-0.1-1.6,0-2.4c0-1.7-1.3-3-3-3
	c-8.7,1-17.5,0.9-26.1-0.2v6c15.4,1.7,30.9,2.8,46.4,3.1c3.6,0.1,3.8-4.7,0.8-5.9l-10.9-4.3c-2.2-0.8-4.2-1.9-6.2-0.4
	c-1.2,0.9-2.1,2.7-1.1,4.1l2.5,3.3c2.3,3,7.5,0,5.2-3l-2.5-3.3l-1.1,4.1c-0.9,0.7-0.8,0,0.8,0.7c1.3,0.6,2.8,1.1,4.2,1.7l7.6,3
	l0.8-5.9c-15.5-0.3-31-1.3-46.4-3.1c-3.8-0.4-3.8,5.5,0,6c8.7,1.1,17.4,1.1,26.1,0.2l-3-3c-0.3,3.2,0.4,5.6,3,7.6
	c2,1.5,4.4-0.6,4.5-2.6l0.8-12.6l-5.9,0.8c0.9,2.5,1.1,5.1,0.7,7.7c-0.2,1.3-1.1,2.5-1.2,3.7l1.9-0.6c-0.9-0.6-1.6-1.3-2.4-2
	c-3.5-3.5-5.9-7.9-6.8-12.8C1329.4,1076.7,1323.6,1078.3,1324.4,1082.1L1324.4,1082.1z"/>
<path class="st1" d="M1445.1,372c0.3,5.9-0.4,11.7-1.9,17.4l5.8,1.6c1.4-6.5,3.6-12.9,6.5-18.9l-5.2-3c-4,9.2-7.3,18.7-9.9,28.5
	l5.8,1.6l3.4-19l-5.8-1.6c-2.8,17.3-6.2,34.5-10.2,51.6c-0.4,1.6,0.5,3.3,2.1,3.7c1.6,0.4,3.3-0.5,3.7-2.1l0,0l9.7-30.7
	c1.2-3.7-4.5-5.2-5.8-1.6l-16,46.1l5.9,0.8c0.3-11.5,2.6-22.8,6.8-33.5l-5.8-1.6c-2.4,11-3.1,22.3-2.4,33.6c0,1.7,1.3,3,3,3
	s3-1.3,3-3l0,0c0.2-2.5,0.9-4.9,1.9-7.2l-5.5-2.3l-10.7,32.7l5.9,0.8c0.4-2.9,1.5-5.6,3.3-8l-5.5-2.3c-2.2,11.8-4.7,23.6-7.4,35.3
	l5.9,0.8c0.3-3.6,1.2-7.1,2.6-10.5l-5.6-1.5c-0.9,6.8-2.7,13.5-5.3,19.9l5.8,1.6c2.7-16.6,7.2-32.9,13.5-48.5l-5.8-1.6
	c-8.1,32.1-16.2,64.2-27,95.5l5.8,1.6c1.4-6.2,3.8-12.1,7.2-17.4l-5.6-1.5c-0.9,10.3-3,20.6-6.2,30.4l5.8,1.6
	c2.2-14.4,5.7-28.5,10.6-42.2l-5.8-1.6c-7.2,24.4-13.9,49-19.9,73.7l5.8,1.6c1.9-8.8,4.6-17.4,8-25.8l-5.9-0.8
	c-0.6,5.8-1.7,11.6-3.2,17.3l5.8,1.6l4.7-21.5l-5.8-1.6c-2.5,15.6-6.2,31-11.2,46l5.9,0.8c-0.1-4.6,0.9-9.1,3-13.2l-5.5-2.3
	c-3.3,8.3-5.2,15.8-4.8,24.9c0.4,8,2.4,15.9,5.7,23.2l5.2-3l-1.8-3.5l-5.2,3c9.9,14.6,20.2,28.9,30.8,43l4.7-3.6l-11.2-12.3
	l-4.2,4.2l16.3,15.3l3.6-4.7c-25.2-12.8-26.5-45.8-37.1-68.8l-5.2,3l9.3,19.2l5.2-3c-4.6-8.9-6.8-18.8-6.4-28.8h-6
	c-0.3,11.9,1.9,23.7,6.5,34.7c1,2.4,3.9,3,5.5,0.7c7.3-11,17.8-19.6,30-24.7c3.5-1.4,2.3-6.8-1.6-5.8c-5.5,1.4-10.6,3.8-15.2,7.1
	c-2.8,2.1-10,11.6-13.8,9.2l-1.5,5.6l10.1,0.3l-2.1-5.1c-7.1,5.6-9,15.4-6.7,23.8c2.9,10.7,11.6,19.2,19.2,26.9
	c16.9,17.1,36.1,31.7,57.1,43.5c3.4,1.9,6.4-3.3,3-5.2c-18-10.1-34.6-22.4-49.7-36.5c-7.1-6.7-14.8-13.8-20-22.1
	c-5.2-8.1-7.2-19.5,1.3-26.2c2.2-1.7,0.2-5.1-2.1-5.1l-10.1-0.3c-3.1-0.1-3.9,4-1.5,5.6c5,3.2,9.9,0.1,13.7-3.4
	c6.2-5.7,11.6-10.1,19.9-12.3l-1.6-5.8c-13.7,5.6-25.4,15.2-33.6,27.5l5.5,0.7c-4.4-10.5-6.6-21.8-6.3-33.1c0.1-3.9-5.9-3.9-6,0
	c-0.4,11.1,2.1,22,7.2,31.8c1.8,3.5,6.9,0.4,5.2-3l-9.3-19.2c-1.7-3.5-6.8-0.4-5.2,3c11.2,24.2,12.5,57.3,39.2,70.9
	c2.9,1.5,6.2-2.3,3.6-4.7l-16.3-15.2c-2.8-2.7-6.8,1.4-4.2,4.2l11.2,12.2c2.2,2.5,6.8-0.9,4.7-3.6c-10.6-14.1-20.9-28.4-30.8-43
	c-2.2-3.2-7-0.4-5.2,3l1.8,3.5c1.8,3.5,6.7,0.4,5.2-3c-3.1-6.9-4.7-14.3-4.9-21.9c-0.2-7.9,1.8-14.3,4.7-21.6
	c1.2-3.2-3.9-5.3-5.5-2.3c-2.6,5-3.9,10.6-3.8,16.2c0.1,3.5,4.8,4,5.9,0.8c5-15,8.7-30.4,11.2-46c0.6-3.7-4.9-5.4-5.8-1.6l-4.7,21.4
	c-0.8,3.8,4.8,5.4,5.8,1.6c1.6-6.2,2.7-12.5,3.4-18.9c0.4-3.7-4.7-3.6-5.9-0.8c-3.4,8.3-6.1,16.9-8,25.8c-0.8,3.8,4.9,5.4,5.8,1.6
	c6.1-24.7,12.7-49.3,19.9-73.7c1.1-3.7-4.5-5.2-5.8-1.6c-4.9,13.7-8.4,27.8-10.6,42.1c-0.6,3.7,4.6,5.4,5.8,1.6
	c3.3-10.4,5.5-21.1,6.4-32c0.3-3.1-4.1-3.9-5.6-1.5c-3.6,5.8-6.3,12.2-7.8,18.8c-0.4,1.6,0.5,3.3,2.1,3.7c1.6,0.4,3.3-0.5,3.7-2.1
	c10.8-31.3,18.9-63.4,27-95.5c1-3.8-4.4-5.1-5.8-1.6c-6.3,15.6-10.9,31.9-13.5,48.5c-0.4,1.6,0.5,3.3,2.1,3.7
	c1.6,0.4,3.3-0.5,3.7-2.1c2.8-6.9,4.7-14.1,5.5-21.5c0.3-2.9-4.4-4.2-5.6-1.5c-1.9,4.3-3,8.8-3.4,13.5c-0.3,3.4,5.1,4.1,5.9,0.8
	c2.7-11.7,5.2-23.4,7.4-35.3c0.4-1.6-0.5-3.2-2.1-3.7c-1.3-0.4-2.7,0.2-3.4,1.4c-2.2,3.3-3.6,7.1-4.1,11c-0.5,3.5,4.9,3.8,5.9,0.8
	l10.7-32.7c1-3.2-4.1-5.4-5.5-2.3c-1.5,3.2-2.4,6.7-2.7,10.2h6c-0.8-10.7-0.1-21.5,2.2-32c0.8-3.8-4.4-5.1-5.8-1.6
	c-4.4,11.2-6.8,23-7,35c-0.1,3.5,4.8,3.9,5.9,0.8l16-46.1l-5.8-1.6l-9.7,30.7l5.8,1.6c4-17.1,7.4-34.3,10.2-51.6
	c0.6-3.8-5.1-5.4-5.8-1.6l-3.4,19c-0.7,3.7,4.8,5.4,5.8,1.6c2.4-9.2,5.5-18.2,9.3-27c1.5-3.5-3.5-6.6-5.2-3
	c-3.1,6.5-5.5,13.3-7.1,20.3c-0.8,3.8,4.8,5.3,5.8,1.6c1.7-6.2,2.4-12.6,2.1-19c-0.2-3.8-6.2-3.9-6,0L1445.1,372z"/>
<path class="st1" d="M1512.6,726.2c0.2,0.1,0.4,0.3,0.6,0.4l12.6,6.3L1512.6,726.2z"/>
<path class="st1" d="M1495.3,713.9c-1.1-0.5-2.2-0.9-3.3-1.4C1493.1,712.9,1494.2,713.4,1495.3,713.9z"/>
<path class="st1" d="M1460.8,690.2l29.4,18.8l-0.6-0.1c0.7,0.4,1.4,0.8,2,1.2C1482.2,702.3,1471.9,695.6,1460.8,690.2z"/>
<path class="st1" d="M1495.3,713.9c4.6,2,8.8,4.6,12.8,7.7c3.6,1.6,7.2,3,10.9,4.3C1511.4,721.3,1503.5,717.3,1495.3,713.9z"/>
<path class="st1" d="M1696.1,851.5c1,0.7,1.9,1.4,2.9,2.1c5.3,3.1,10.4,6.5,15.4,10.2l-10.9-9.6c0,0.1-0.1,0.2-0.3,0.3
	c-1,0.7-2.4,0-3.4-0.7l-3.6-2.5c0.2,0.2,0.3,0.3,0.5,0.5L1696.1,851.5z"/>
<path class="st1" d="M1723.7,871.5c-3.1-2.7-6.2-5.2-9.5-7.6l9.1,8C1723.5,871.7,1723.6,871.6,1723.7,871.5z"/>
<path class="st1" d="M1729.8,880.3v-0.4l-6.7-3.7c0-0.3-0.1-0.7-0.1-1c-0.1-1-0.2-2.2,0.3-3.1c-8.1-6.1-16.3-12.2-24.4-18.3
	c-3.2-1.9-6.5-3.6-9.9-5.3l7,3.2c-2-1.5-3.9-2.9-5.9-4.4l6,4.2c-4.1-4.3-8.9-7.7-14.2-10.3c-15.5-11.5-31-22.9-46.8-34
	c-39.7-28.2-80.3-55-121.9-80.4l-7.9-3.9l6.7,2.2c-1.3-1.2-2.6-2.3-3.9-3.4c-9.1-4-17.8-8.8-25.9-14.4l7.5,1.9
	c-27.3-16.2-53.3-34.5-77.8-54.8c2.5,13.8,14.5,23.6,25.7,32l126,95.8c43,32.7,90.3,59,138.3,83.9c12.2,14.7,20.2,32.6,23,51.6
	c0.6-13.5,0.1-27.1-1.6-40.5C1725.5,878,1727.7,879.1,1729.8,880.3z"/>
<path class="st1" d="M1727.9,895.2c-0.2-3.5-0.4-7.1-0.7-10.6c-0.1-0.8-0.2-1.6-0.3-2.5c1,0.5,2,1,3,1.5V877
	c-0.9-0.4-1.7-0.9-2.6-1.3c0.2-0.1,0.4-0.3,0.6-0.5c0.2-0.2,0.3-0.4,0.5-0.6c1.2-2,0.6-4.6-1.4-5.8c-0.6-0.4-1.3-0.6-2-0.6
	c-0.2,0-0.3,0-0.5,0c-2.3-1.9-4.6-3.8-7-5.6l-11.5-10.2c-0.3-0.9-1-1.7-1.9-2.3c-0.9-0.6-2.1-0.6-3,0l-0.5,0.3
	c-0.1,0.1-0.1,0.1-0.2,0.2c-0.8-0.9-2.1-1.9-3.5-2.8c-4-3.8-8.6-7-13.6-9.4c-39.6-29.2-79.6-57.7-120.9-84.4
	c-11.1-7.2-22.3-14.3-33.5-21.2c0.1-1-0.3-1.9-1.5-2.5l-5.8-2.9c0.7-1.3,0.5-3.2-1-4.1c-8.3-4.9-16.9-9.2-25.8-12.8
	c0.1-0.8-0.1-1.6-0.9-2.3c-9.7-7.9-20.3-14.8-31.5-20.4c-0.4-0.2-0.9-0.3-1.3-0.4c-16.2-11-32-22.7-47.1-35.2
	c-1.2-1.2-3.1-1.1-4.2,0c-0.7,0.8-1,1.9-0.8,2.9c2.2,10.5,9,18.8,16.9,25.7c9.2,8,19.3,15.1,29,22.5l67.7,51.5
	c21.9,16.7,43.5,33.8,66.3,49.3c21.9,14.8,44.6,28.4,67.7,41.2c14.3,8,28.8,15.6,43.3,23.2c11.6,14.3,19.2,31.5,22,49.9
	c0.5,3.5,5.8,2.4,5.9-0.8c0-0.3,0-0.5,0-0.8l0,0c0,0,0,0,0-0.1C1728.2,909.5,1728.2,902.3,1727.9,895.2z M1701,860.2
	c-1.3-1.4-2.9-1.1-4-0.1c-31.6-16.5-62.9-33.8-92.8-53.2c-22.3-14.5-43.3-30.6-64.4-46.7l-66.1-50.3c-11.9-9.1-23.9-18.1-35.8-27.3
	c-7.1-5.4-14.3-11.4-18.9-19c19.3,15.4,39.5,29.6,60.5,42.5c-0.3,1.2,0,2.6,1.3,3.4c6.9,4.7,14.2,8.9,21.7,12.4
	c-0.3,1.2,0.1,2.4,1.4,3.1l7.9,3.9c56.8,34.7,111.7,72.3,165.2,111.9c0.2,0.2,0.4,0.3,0.7,0.5c0.2,0.5,0.6,1,1.1,1.4l7.4,5.2
	c-0.3,1.1,0.1,2.2,1.4,2.9l0,0.1l0.9,0.4c3.2,1.6,6.2,3.3,9.3,5c5.8,4.3,11.5,8.6,17.3,12.9c-3.6-1.9-7.3-3.7-10.9-5.6
	C1703.1,862.5,1702.1,861.3,1701,860.2z M1712,874.6c2.9,1.5,5.8,3,8.7,4.4c0.5,5,0.9,10,1.2,15
	C1719.2,887.2,1715.9,880.7,1712,874.6z"/>
<path class="st1" d="M1729.8,908.7v-13.4c-0.6-5.3-1.8-10.5-3.8-15.6c-0.2-0.8-1.1-1.2-1.9-1c-0.6,0.2-1,0.7-1.1,1.4
	c-0.5,5.4-2.7,10.3-6,14.3c-0.2-0.3-0.3-0.6-0.5-0.9c-0.2-0.6-0.5-1.2-0.8-1.8c-0.1-0.4-0.3-0.7-0.4-1.1l0,0
	c-0.1-0.1-0.1-0.3-0.2-0.4c-0.2-0.4-0.5-0.6-0.9-0.7c-0.4-0.6-0.8-1.2-1.2-1.8c0-0.1,0-0.1-0.1-0.2c-0.5-0.8-1-1.7-1.6-2.5
	c-0.8-1.7-1.9-3.3-3.1-4.7c0-0.1,0.1-0.2,0.1-0.3c2.4,0.9,4.7,1.9,6.9,3.2c0,0,0,0,0,0c0,0,0,0,0,0l0,0c1.7,1,3-1.5,1.5-2.6l0,0
	c0,0,0,0,0,0c-7.6-5.3-15-10.8-22.2-16.7c-2-2.3-4.3-4.5-6.8-6.3c-0.8-0.6-1.6-0.1-2,0.6c-0.3-0.2-0.5-0.4-0.8-0.6
	c-0.6-0.6-1.6-0.5-2.1,0.1c-0.5,0.6-0.5,1.5,0,2l0,0l0,0c0,0,0,0,0.1,0.1l2.4,2.8c-0.6,0.4-0.9,1.3-0.6,2.1
	c2.5,5.9,5.9,11.4,10.1,16.2c0.7,0.8,1.7,0.5,2.2-0.2c2.8,3.2,5.9,6.2,9.3,8.9c0.4,0.4,1.1,0.4,1.7,0.2c0,0,0,0,0,0
	c0.4,0.4,0.8,0.5,1.1,0.5c0.6,0.8,1.2,1.6,1.8,2.3c0.1,0.1,0.2,0.2,0.3,0.3c-0.2,0-0.3,0.1-0.5,0.2c-0.5,0.3-0.8,1-0.7,1.6
	c0.4,1.5,1,3,1.7,4.4c-0.3,0.2-0.6,0.4-0.9,0.6l-4.7-6.6c-0.7-0.9-2.5-1-2.7,0.4c-0.4,1.8-0.4,3.5-0.1,5.3c-0.1-0.1-0.1-0.1-0.2-0.2
	c-1.6-1.1-3.1,1.5-1.5,2.6l0-0.1c5.3,3.9,2.7,11.9,4,17.4c0.8,3.8,3.7,6.9,7.4,7.8c2.9,0.9,6.9,1.7,10,0.6c0,1.9,0,3.7,0.2,5.6
	c0.1,1.1,1.4,1.7,2.2,1.4c0.9,0.8,2.5,0.5,2.5-1l-0.1-9.2C1728.5,918.8,1729.3,913.8,1729.8,908.7z M1693.1,873.4l0.6,0.5
	c-0.1,0-0.1,0.1-0.2,0.1C1693.4,873.8,1693.2,873.6,1693.1,873.4z M1713.2,893.4c0.1,0.4,0.3,0.8,0.5,1.2c-0.2-0.3-0.4-0.6-0.6-1
	c-0.1-0.2-0.3-0.4-0.5-0.5c0.1,0,0.3-0.1,0.4-0.2C1713,893,1713.1,893.2,1713.2,893.4z M1703.6,874.8c-0.3-0.3-0.6-0.5-0.9-0.8
	c0.4,0.3,0.9,0.6,1.3,1C1703.9,875,1703.7,874.9,1703.6,874.8z M1713.7,901.6c0.4,0.5,0.8,1,1.2,1.4c0.6,1.4,1.2,2.8,1.6,4.3
	l-3.7-5.1C1713.2,902,1713.4,901.8,1713.7,901.6z M1707.7,901.5c-0.5-1-0.9-2-1.1-3l1.9,2.7C1708.2,901.3,1707.9,901.4,1707.7,901.5
	z M1719.2,924.5c-1.2-0.1-2.4-0.3-3.6-0.6c-2.4-0.5-4.3-1.4-5.7-3.5c-1.9-3-1.4-6.7-1.5-10.1c-0.1-1.9-0.2-3.7-0.7-5.4
	c0.9-0.3,1.8-0.7,2.6-1.2l8.2,11.5c0.5,0.7,1.4,0.9,2.1,0.5c0.5-0.3,0.8-1,0.7-1.6c-0.4-3-1.2-5.9-2.2-8.8c0.5-0.4,0.9-1,0.7-1.7
	c-0.1-0.5-0.3-1.1-0.4-1.6c0.5-0.3,0.8-0.9,0.5-1.5c0-0.1-0.1-0.2-0.1-0.3l0.1,0c-0.1-0.2-0.2-0.4-0.3-0.5c-0.3-0.7-0.6-1.4-0.9-2.1
	c3-3.2,5.2-7.1,6.5-11.3c1.9,6.8,2.6,13.8,2,20.8c-0.2,2.5-0.5,4.9-0.8,7.4c-0.5,0.1-1,0.5-1.2,1c-0.2,0.7-0.3,1.3-0.5,2
	c0,0,0,0-0.1,0c-0.3,0.3-0.4,0.6-0.4,1c0,0.3,0.1,0.6,0.1,1c-0.2,1.2-0.4,2.4-0.5,3.6C1722.7,924.4,1721.3,924.9,1719.2,924.5z"/>
<path class="st6" d="M871.5,798.8c-2.5-1-4.1,2.7-4.2,5.3c-3.3,99.7-1.8,199.3,4.5,299"/>
<path class="st6" d="M871.9,797.4c-6-1-6.1,6.7-6.2,10.7c-0.3,10.6-0.6,21.1-0.8,31.7c-0.5,21.5-0.7,42.9-0.7,64.4
	c0,42.3,0.8,84.5,2.5,126.7c1,24.1,2.2,48.2,3.7,72.2c0.1,1.9,3.1,1.9,3,0c-4.9-78.4-6.9-157-5.9-235.6c0.1-11.2,0.3-22.5,0.6-33.7
	c0.1-5.3,0.3-10.6,0.4-15.8c0.1-2.1-0.5-18.3,2.7-17.8C873,800.6,873.8,797.7,871.9,797.4L871.9,797.4z"/>
<path class="st6" d="M872.9,1102.4c137-3.9,273.9-1.8,410.9,6.3c4.5,0.3,9.2,0.5,13.4-1.2s7.5-6.2,6.4-10.5
	c-0.7-2.7-2.8-4.8-4.9-6.6c-10.9-9.4-23.4-16.9-35.6-24.6c-134.4-84.5-248.8-199.9-391.8-269.3"/>
<path class="st6" d="M872.9,1103.9c69.8-2,139.6-2.4,209.5-1.3c35.1,0.6,70.2,1.5,105.2,2.9c17.5,0.7,35.1,1.4,52.6,2.3
	c8.6,0.4,17.2,0.9,25.8,1.4c8.1,0.4,16.5,1.6,24.7,1.2c9.5-0.6,19.9-9.4,11.7-18.6c-4.5-5.1-10.8-9.2-16.4-13.1
	c-6.7-4.6-13.6-8.9-20.5-13.2c-25.6-16.1-50.5-33.2-75-51c-49.4-35.9-97.1-74.1-146.1-110.5c-48.5-36.1-98.5-70.5-152.2-98.6
	c-6.6-3.5-13.3-6.8-20-10.1c-1.7-0.8-3.2,1.7-1.5,2.6c52.4,25.5,101.4,57.3,148.6,91.4c47.6,34.4,93.6,71.1,140.6,106.3
	c23.3,17.5,46.8,34.6,70.9,50.9c12.2,8.3,24.6,16.3,37.1,24.1c6.6,4.2,13.2,8.3,19.6,12.9c5,3.6,18.8,11.4,13.8,19.1
	c-4.8,7.4-16.8,4.8-24.2,4.4c-8.6-0.5-17.2-1-25.8-1.4c-16.9-0.9-33.7-1.7-50.6-2.4c-33.4-1.4-66.8-2.4-100.2-3.1
	c-67.5-1.3-135-1.2-202.5,0.3c-8.3,0.2-16.5,0.4-24.8,0.6C871,1101,871,1104,872.9,1103.9L872.9,1103.9z"/>
<path class="st1" d="M895.6,765.7c-8.8,4.9-17.8,10-23.7,18.1s-7.7,19.8-1.5,27.6c2.3,2.9,5.5,5,8.6,7
	c59.5,38.9,118.7,78.1,177.7,117.6c45.5,30.4,90.9,61,136.2,91.7l127.9,86.3"/>
<path class="st1" d="M894.9,764.4c-12.9,7.2-27.7,16-29.7,32.2c-2.1,16.9,14.3,23.9,26.2,31.7c34.9,22.9,69.8,45.9,104.6,69
	c69.4,46.1,138.6,92.6,207.6,139.4l116.4,78.6c1.6,1.1,3.1-1.5,1.5-2.6c-65.6-44.3-131.2-88.5-196.8-132.8
	c-65.5-44.2-131.3-88-197.2-131.4c-9.3-6.1-18.7-12.3-28-18.4l-14-9.2c-4.4-2.9-9.4-5.5-13-9.3c-6.9-7.3-5-18.7,0.3-26.4
	c5.8-8.3,15-13.3,23.6-18.1C898.1,766,896.6,763.4,894.9,764.4L894.9,764.4z"/>
<rect x="871.2" y="854.8" class="st7" width="33.2" height="240.5"/>
<path class="st1" d="M1299.9,1084.3c-0.1,3.9-0.1,7.8,0.2,11.7l2.9-0.4l-1-3.1l-1.8,1.8c2.2,0.5,4.1,2,5.2,4l2.4-1.8l-6-5
	c-1.2-1-3.4,0.3-2.4,1.8c1.7,2.4,3.5,4.7,5.5,6.8l1.8-2.4c-1.5-0.7-2.8-1.6-4-2.7c-0.6-0.6-1.6-0.5-2.1,0.1
	c-0.4,0.5-0.5,1.2-0.2,1.7c1.2,2.2,3.2,3.9,5.6,4.6c1.6,0.5,2.3-1.4,1.5-2.5c-5.7-7.3-12.7-13.5-20.7-18.1l-1.2,2.7
	c5.4,1.5,10.4,4.1,14.6,7.8l1.5-2.5c-3.1-1.2-6-2.7-8.9-4.4c-0.7-0.4-1.7-0.1-2,0.6c-0.3,0.6-0.2,1.3,0.2,1.7c2,2.1,4.2,3.9,6.7,5.3
	l1.5-2.6l-2.6-1.5c-0.7-0.4-1.7-0.1-2,0.6c-0.3,0.6-0.2,1.3,0.2,1.7l3.4,3.6l2.1-2.1l-5.9-4.7c-1.2-1-3.3,0.3-2.4,1.8
	c2.2,3.4,5,6.5,8.2,8.9c1.3,1,3.1-1.2,1.8-2.4l-21.9-18.7l-1.8,2.4c4.3,2.9,8.8,5.7,13.4,8.1c0.7,0.4,1.7,0.1,2-0.6
	c0.3-0.6,0.2-1.3-0.2-1.7c-4.2-4.3-8.7-8.3-13.4-12.1l-1.8,2.4l12.8,9.4l1.5-2.6l-28.9-19.5c-1.2-0.8-3,0.8-2.1,2.1
	c3.5,4.7,7.7,8.7,12.5,12c1.4,1,3-1.2,1.8-2.4l-10.2-9.9l-2.1,2.1l12.4,11.1l1.5-2.5l-2.5-0.8c-1.4-0.4-2.6,1.6-1.5,2.5
	c1.6,1.4,3.5,2.4,5.5,3.1c1.4,0.5,2.6-1.6,1.5-2.5c-9.4-7.4-18.2-15.6-26.3-24.5c-1.3-1.4-3.4,0.7-2.1,2.1l11.5,13.2l1.8-2.4
	c-5.4-4.1-10.3-8.8-14.5-14.1l-2.1,2.1l10.8,11.9l1.8-2.3c-5.4-3.5-10-8-13.7-13.2l-2.4,1.8l6.7,7.7c1.3,1.5,3.4-0.7,2.1-2.1
	l-6.7-7.7c-1.1-1.3-3.3,0.4-2.4,1.8c3.9,5.7,8.9,10.6,14.7,14.3c1.5,1,2.9-1.1,1.8-2.4l-10.8-11.9c-1.3-1.5-3.3,0.7-2.1,2.1
	c4.4,5.5,9.5,10.4,15.1,14.6c1.4,1.1,2.9-1.2,1.8-2.4l-11.5-13.2l-2.1,2.1c8.1,8.8,16.9,17,26.3,24.4l1.5-2.5
	c-1.6-0.5-3-1.3-4.2-2.3l-1.5,2.5l2.5,0.8c0.8,0.2,1.6-0.3,1.8-1.1c0.1-0.5,0-1-0.4-1.4l-12.4-11.1c-1.4-1.3-3.5,0.8-2.1,2.1
	l10.2,9.9l1.8-2.4c-4.4-3-8.3-6.7-11.4-10.9l-2.1,2.1l28.9,19.5c1.6,1.1,3-1.5,1.5-2.6l-12.8-9.4c-1.4-1-3.2,1.3-1.8,2.4
	c4.7,3.7,9.2,7.8,13.4,12.1l1.8-2.4c-4.6-2.5-9.1-5.2-13.4-8.1c-1.4-0.9-3.1,1.2-1.8,2.4l21.9,18.7l1.8-2.4
	c-2.9-2.1-5.3-4.8-7.3-7.8l-2.4,1.8l5.9,4.7c1.5,1.2,3.5-0.7,2.1-2.1l-3.4-3.6l-1.8,2.4l2.6,1.5c0.7,0.4,1.6,0.1,2-0.6
	c0.4-0.7,0.1-1.6-0.5-2c-2.2-1.3-4.3-2.9-6.1-4.8l-1.8,2.4c3,1.9,6.2,3.5,9.6,4.7c1.4,0.5,2.6-1.6,1.5-2.5c-4.6-4-10.1-6.9-16-8.5
	c-0.8-0.2-1.6,0.3-1.8,1.1c-0.1,0.6,0.1,1.3,0.7,1.6c7.8,4.5,14.6,10.5,20.1,17.6l1.5-2.5c-1.7-0.4-3.2-1.6-3.8-3.2l-2.4,1.8
	c1.4,1.3,2.9,2.4,4.6,3.2c0.7,0.4,1.7,0.1,2-0.6c0.3-0.6,0.2-1.3-0.2-1.7c-1.8-1.9-3.5-4-5-6.2l-2.4,1.8l6,5
	c0.6,0.6,1.6,0.5,2.1-0.1c0.4-0.5,0.5-1.2,0.2-1.7c-1.3-2.9-3.9-4.9-7-5.4c-0.8-0.2-1.6,0.3-1.8,1.1c-0.1,0.2-0.1,0.5,0,0.8l1,3.1
	c0.5,1.5,3.1,1.4,2.9-0.4c-0.3-3.9-0.4-7.8-0.2-11.7c0.1-1.9-2.9-1.9-3,0L1299.9,1084.3z"/>
<circle class="st5" cx="1280.7" cy="707.4" r="2"/>
<path class="st5" d="M1277.2,706.5c0.4,0.1,0.6,0.5,0.5,0.9c-0.1,0.4-0.5,0.6-0.9,0.5c0,0,0,0,0,0c-0.4-0.1-0.6-0.5-0.5-0.9
	C1276.4,706.6,1276.8,706.4,1277.2,706.5C1277.2,706.5,1277.2,706.5,1277.2,706.5z"/>
<ellipse transform="matrix(9.515080e-02 -0.9955 0.9955 9.515080e-02 452.3671 1919.3647)" class="st5" cx="1282" cy="710.8" rx="2.1" ry="2.1"/>
<path class="st5" d="M1276.5,711.8c-0.2,0.1-0.4,0-0.4-0.2c0,0,0,0,0,0c-0.1-0.2,0-0.4,0.2-0.5c0.2-0.1,0.4,0,0.4,0.2c0,0,0,0,0,0
	C1276.8,711.6,1276.7,711.8,1276.5,711.8z"/>
<circle class="st5" cx="1232.5" cy="719" r="4"/>
<ellipse transform="matrix(0.866 -0.5 0.5 0.866 -190.4003 713.3857)" class="st5" cx="1236" cy="712" rx="0.7" ry="0.7"/>
<ellipse transform="matrix(0.9998 -1.797592e-02 1.797592e-02 0.9998 -12.5541 22.661)" class="st5" cx="1254.3" cy="709.7" rx="0.7" ry="0.7"/>
<path class="st5" d="M1281.2,705.7c-0.2,0.1-0.4,0-0.4-0.2c0,0,0,0,0,0c-0.1-0.2,0-0.4,0.2-0.5c0.2-0.1,0.4,0,0.4,0.2c0,0,0,0,0,0
	C1281.5,705.4,1281.4,705.6,1281.2,705.7z"/>
<ellipse transform="matrix(0.7706 -0.6373 0.6373 0.7706 -133.1077 971.241)" class="st5" cx="1282.7" cy="670.5" rx="1" ry="1"/>
<circle class="st5" cx="1248.7" cy="707.6" r="2"/>
<circle class="st5" cx="1276.8" cy="671.7" r="2"/>
<path class="st1" d="M1094.2,615.2c7.1,3.5,14,7.5,20.5,11.9c25.2-21.9,51.6-42.8,80.6-59.4s60.9-28.8,94.2-32.2l-24.1-25.8
	c-2.9-3.2-6.1-6.5-10.3-7.6c-5.3-1.4-10.8,0.9-15.5,3.6c-17.3,9.7-31.5,24-46.8,36.6c-32.1,26.4-70,45.8-98.4,76.2"/>
<path class="st1" d="M1093.5,616.5c7.1,3.6,14,7.6,20.5,12c0.6,0.3,1.3,0.2,1.8-0.2c49.8-43.1,106.3-83.9,173.6-91.2
	c0.8,0,1.5-0.7,1.5-1.6c0-0.4-0.2-0.7-0.4-1l-19.4-20.8c-4.8-5.1-9.8-12.2-17.2-13.3c-6.8-1-13.3,2.9-18.9,6.2
	c-6.8,4.2-13.2,9-19.3,14.1c-13.3,11-26,22.6-40,32.8c-13.4,9.8-27.2,18.9-40.6,28.5c-14.9,10.7-29.2,22-41.8,35.4
	c-1.3,1.4,0.8,3.5,2.1,2.1c21.3-22.6,47.6-39.2,72.8-57c12.1-8.5,23.8-17.5,34.9-27.2c12-10.3,23.9-21.3,37.9-28.8
	c5-2.7,10.9-4.9,16.2-2c4.1,2.2,7.2,6.4,10.4,9.7l20.8,22.2l1.1-2.6c-68.2,7.4-125.3,48.4-175.8,92.1l1.8-0.2
	c-6.6-4.4-13.4-8.4-20.5-11.9C1093.2,613,1091.7,615.6,1093.5,616.5L1093.5,616.5z"/>
<path class="st8" d="M1258,917.2L925.6,692.5L1050,587.9l176.5,125.5L1258,917.2z"/>
<ellipse transform="matrix(0.3543 -0.9351 0.9351 0.3543 149.3633 1633.2231)" class="st5" cx="1257.3" cy="708.5" rx="0.7" ry="0.7"/>
<ellipse transform="matrix(0.8216 -0.57 0.57 0.8216 -174.7075 856.8041)" class="st5" cx="1281.8" cy="707.6" rx="0.7" ry="0.7"/>
<circle class="st5" cx="1278.8" cy="710.9" r="1.5"/>
<path d="M1207.1,721.2c-0.7,57.8,11,115.2,34.3,168.1c4.4,9.9,9.3,19.8,16.6,27.9s16.7,13.8,26.4,18.5c28.5,13.6,61.6,17.8,92.2,10
	c7.7-2,15.3-4.7,21.3-9.9s10-12.5,13.6-19.6c26.3-52.8,41-110.6,42.8-169.5"/>
<path class="st6" d="M1204.1,721.2c-0.7,57.8,10.9,115,34,167.9c7.1,16.3,15.7,30.9,30.7,41.1c29.2,19.8,68.3,26.6,102.7,19.6
	c8.5-1.7,17.3-4.1,24.6-9c6.6-4.4,11.3-10.7,15.1-17.5c9-16.3,16.2-34,22.5-51.5c14.3-40.3,22.3-82.5,23.7-125.2
	c0.1-3.9-5.9-3.9-6,0c-1.2,35.8-7.1,71.3-17.5,105.5c-5.3,17.4-11.8,34.5-19.4,51c-3.4,7.5-6.9,15.1-11.4,22
	c-5,7.7-12,12.7-20.7,15.7c-32.9,11.2-71.5,5.8-101.7-10.5c-7.6-4-14.7-8.9-20.5-15.3c-6-6.6-10.3-14.6-14-22.6
	c-7.5-16.4-13.9-33.3-19-50.5c-11.7-39.2-17.5-79.9-17-120.8C1210.1,717.3,1204.1,717.3,1204.1,721.2L1204.1,721.2z"/>
<ellipse transform="matrix(0.5164 -0.8564 0.8564 0.5164 34.9909 1409.5886)" class="st5" cx="1265.5" cy="673.8" rx="0.3" ry="0.3"/>
<ellipse transform="matrix(0.2095 -0.9778 0.9778 0.2095 332.1969 1801.0503)" class="st5" cx="1280" cy="695.1" rx="0.9" ry="0.9"/>
<ellipse transform="matrix(0.5926 -0.8055 0.8055 0.5926 -39.6776 1316.9363)" class="st5" cx="1282" cy="697.7" rx="0.3" ry="0.3"/>
<ellipse transform="matrix(0.678 -0.735 0.735 0.678 -86.3157 1155.3566)" class="st5" cx="1275.6" cy="676.2" rx="0.7" ry="0.7"/>
<ellipse transform="matrix(0.8783 -0.4781 0.4781 0.8783 -173.9403 695.7377)" class="st5" cx="1279.8" cy="689.6" rx="1.1" ry="1.1"/>
<ellipse transform="matrix(0.5021 -0.8648 0.8648 0.5021 33.3341 1454.1058)" class="st5" cx="1279.5" cy="698.1" rx="0.7" ry="0.7"/>
<ellipse transform="matrix(0.9464 -0.3229 0.3229 0.9464 -155.6498 451.1679)" class="st5" cx="1281.9" cy="694.7" rx="0.7" ry="0.7"/>
<ellipse transform="matrix(5.373029e-02 -0.9986 0.9986 5.373029e-02 512.0354 1942.7273)" class="st5" cx="1281.1" cy="701.2" rx="0.9" ry="0.9"/>
<ellipse transform="matrix(0.5164 -0.8564 0.8564 0.5164 15.6873 1433.8109)" class="st5" cx="1277.3" cy="703" rx="1" ry="1"/>
<path class="st5" d="M1283.1,698.2c0.2-0.2,0.5-0.2,0.7,0c0,0,0,0,0,0c0.2,0.2,0.2,0.6,0,0.8c-0.2,0.2-0.5,0.2-0.7,0c0,0,0,0,0,0
	C1282.9,698.8,1282.9,698.4,1283.1,698.2z"/>
<path class="st5" d="M1283.8,702.8c0.3-0.2,0.7-0.1,0.9,0.2c0,0,0,0.1,0.1,0.1c0.2,0.3,0.1,0.8-0.2,1c-0.3,0.2-0.7,0.1-0.9-0.2
	c0,0,0-0.1-0.1-0.1C1283.4,703.5,1283.5,703.1,1283.8,702.8z"/>
<path class="st5" d="M1280.3,674.5c-0.2,0.1-0.4,0-0.4-0.2c0,0,0,0,0,0c-0.1-0.2,0-0.4,0.2-0.5c0.2-0.1,0.4,0,0.4,0.2c0,0,0,0,0,0
	C1280.6,674.2,1280.5,674.4,1280.3,674.5z"/>
<ellipse transform="matrix(0.1718 -0.9851 0.9851 0.1718 382.8294 1825.8149)" class="st5" cx="1277.3" cy="685.2" rx="0.9" ry="0.9"/>
<ellipse transform="matrix(9.515080e-02 -0.9955 0.9955 9.515080e-02 481.131 1889.365)" class="st5" cx="1279.9" cy="680" rx="2.1" ry="2.1"/>
<ellipse transform="matrix(5.826092e-02 -0.9983 0.9983 5.826092e-02 518.2512 2021.396)" class="st9" cx="1330.5" cy="736" rx="77" ry="124"/>
<circle class="st5" cx="1254.3" cy="703.6" r="2.4"/>
<circle class="st5" cx="1242.7" cy="691.6" r="4"/>
<ellipse transform="matrix(9.515080e-02 -0.9955 0.9955 9.515080e-02 434.2585 1876.8823)" class="st5" cx="1249.5" cy="699.6" rx="2.1" ry="2.1"/>
<circle class="st5" cx="1239.4" cy="704.1" r="2"/>
<circle class="st5" cx="1239.4" cy="697.2" r="1"/>
<circle class="st5" cx="1259.8" cy="688.9" r="1.5"/>
<ellipse transform="matrix(0.1912 -0.9816 0.9816 0.1912 330.6862 1803.4711)" class="st5" cx="1259.6" cy="701.1" rx="1.1" ry="1.1"/>
<ellipse transform="matrix(0.6183 -0.786 0.786 0.6183 -66.2078 1254.2997)" class="st5" cx="1258.2" cy="695.3" rx="1.5" ry="1.5"/>
<circle class="st5" cx="1231" cy="694.9" r="0.9"/>
<ellipse transform="matrix(0.6394 -0.7688 0.7688 0.6394 -85.1869 1200.1162)" class="st5" cx="1236.9" cy="690.9" rx="0.9" ry="0.9"/>
<ellipse transform="matrix(0.7424 -0.6699 0.6699 0.7424 -147.1758 1006.3441)" class="st5" cx="1235.2" cy="694.6" rx="0.7" ry="0.7"/>
<ellipse transform="matrix(0.9998 -1.797592e-02 1.797592e-02 0.9998 -12.4474 22.4894)" class="st5" cx="1244.8" cy="703.6" rx="0.7" ry="0.7"/>
<ellipse transform="matrix(0.6394 -0.7688 0.7688 0.6394 -89.7055 1207.7974)" class="st5" cx="1242.9" cy="699.5" rx="0.9" ry="0.9"/>
<ellipse transform="matrix(0.5926 -0.8055 0.8055 0.5926 -55.5816 1287.3647)" class="st5" cx="1244.8" cy="698.6" rx="0.3" ry="0.3"/>
<ellipse transform="matrix(0.4128 -0.9108 0.9108 0.4128 87.5519 1534.9253)" class="st5" cx="1234.2" cy="699.6" rx="1" ry="1"/>
<ellipse transform="matrix(0.169 -0.9856 0.9856 0.169 364.2128 1796.2955)" class="st5" cx="1247.4" cy="682.2" rx="0.5" ry="0.5"/>
<ellipse transform="matrix(0.5618 -0.8273 0.8273 0.5618 -17.7231 1333.9241)" class="st5" cx="1250.3" cy="683.7" rx="0.9" ry="0.9"/>
<ellipse transform="matrix(0.9381 -0.3464 0.3464 0.9381 -163.56 477.3571)" class="st5" cx="1253.4" cy="696.2" rx="0.7" ry="0.7"/>
<ellipse transform="matrix(0.3543 -0.9351 0.9351 0.3543 155.846 1624.6052)" class="st5" cx="1254.3" cy="699.5" rx="0.7" ry="0.7"/>
<ellipse transform="matrix(0.7422 -0.6702 0.6702 0.7422 -133.0427 1021.6213)" class="st5" cx="1261.4" cy="683.7" rx="0.9" ry="0.9"/>
<ellipse transform="matrix(0.169 -0.9856 0.9856 0.169 360.6997 1805.8124)" class="st5" cx="1251.3" cy="689" rx="0.9" ry="0.9"/>
<ellipse transform="matrix(0.9381 -0.3464 0.3464 0.9381 -166.2569 469.0076)" class="st5" cx="1228.7" cy="699.5" rx="0.7" ry="0.7"/>
<ellipse transform="matrix(0.3543 -0.9351 0.9351 0.3543 160.5454 1603.8334)" class="st5" cx="1241.6" cy="685.7" rx="0.7" ry="0.7"/>
<ellipse transform="matrix(0.7602 -0.6497 0.6497 0.7602 -148.3412 981.4478)" class="st5" cx="1255.3" cy="691.7" rx="0.9" ry="0.9"/>
<ellipse transform="matrix(0.8704 -0.4924 0.4924 0.8704 -176.4208 702.8749)" class="st5" cx="1246.6" cy="686.5" rx="0.7" ry="0.7"/>
<ellipse transform="matrix(0.9992 -4.065496e-02 4.065496e-02 0.9992 -27.2014 51.4051)" class="st5" cx="1250.3" cy="694.5" rx="0.9" ry="0.9"/>
<ellipse transform="matrix(9.515080e-02 -0.9955 0.9955 9.515080e-02 454.8601 1868.7052)" class="st5" cx="1255.4" cy="684.1" rx="2.1" ry="2.1"/>
<ellipse transform="matrix(0.5926 -0.8055 0.8055 0.5926 -49.5748 1276.9507)" class="st5" cx="1237.5" cy="687.5" rx="0.3" ry="0.3"/>
<path class="st10" d="M1442.8,742.8c-1.2,32.7-62.7,61.1-114.3,58.1c-61-3.6-108.8-35.3-106.8-71c0.3-5.8,2-11.4,4.7-16.5
	c6.3-9.6,48.7,12.7,60.5,1.5c9-8.6-8.3-28.6,1.5-40.4c8.6-10.3,31.4-6.6,57.4-2.3c11.2,1.8,20.4,3.3,31.1,7.3
	C1403.5,689.1,1443.8,715.8,1442.8,742.8z"/>
<circle class="st5" cx="1268.2" cy="707.2" r="6.1"/>
<circle class="st5" cx="1263.5" cy="697" r="1"/>
<ellipse transform="matrix(0.226 -0.9741 0.9741 0.226 302.307 1765.9801)" class="st5" cx="1262.4" cy="692.8" rx="0.7" ry="0.7"/>
<ellipse transform="matrix(0.169 -0.9856 0.9856 0.169 330.0551 1797.9169)" class="st5" cx="1231.3" cy="703.2" rx="0.5" ry="0.5"/>
<ellipse transform="matrix(0.6394 -0.7688 0.7688 0.6394 -70.6036 1208.0669)" class="st5" cx="1252.7" cy="679.3" rx="0.9" ry="0.9"/>
<ellipse transform="matrix(0.5926 -0.8055 0.8055 0.5926 -35.6862 1288.6113)" class="st5" cx="1256" cy="679.6" rx="0.3" ry="0.3"/>
<ellipse transform="matrix(0.9958 -9.150162e-02 9.150162e-02 0.9958 -56.9035 118.7713)" class="st5" cx="1266.9" cy="680" rx="4" ry="4"/>
<ellipse transform="matrix(0.9958 -9.150162e-02 9.150162e-02 0.9958 -56.3505 119.1519)" class="st5" cx="1271.3" cy="674.1" rx="1" ry="1"/>
<ellipse transform="matrix(0.5664 -0.8241 0.8241 0.5664 -6.9506 1345.7969)" class="st5" cx="1275.5" cy="679.5" rx="0.9" ry="0.9"/>
<ellipse transform="matrix(0.5664 -0.8241 0.8241 0.5664 -2.5151 1348.1306)" class="st5" cx="1279.9" cy="676.5" rx="0.9" ry="0.9"/>
<ellipse transform="matrix(7.811116e-02 -0.9969 0.9969 7.811116e-02 481.8536 1900.4275)" class="st5" cx="1268.5" cy="689.7" rx="0.5" ry="0.5"/>
<ellipse transform="matrix(0.2672 -0.9636 0.9636 0.2672 270.0617 1727.2445)" class="st5" cx="1270.8" cy="686" rx="0.7" ry="0.7"/>
<ellipse transform="matrix(0.8216 -0.57 0.57 0.8216 -166.3375 843.5477)" class="st5" cx="1264.8" cy="687.6" rx="0.7" ry="0.7"/>
<ellipse transform="matrix(0.5164 -0.8564 0.8564 0.5164 30.6112 1421.7256)" class="st5" cx="1274.1" cy="683.8" rx="0.3" ry="0.3"/>
<ellipse transform="matrix(0.7706 -0.6373 0.6373 0.7706 -152.868 969.4145)" class="st5" cx="1270.3" cy="697.1" rx="1.5" ry="1.5"/>
<ellipse transform="matrix(0.9997 -2.443218e-02 2.443218e-02 0.9997 -16.5804 31.3898)" class="st5" cx="1276.3" cy="694.2" rx="1.5" ry="1.5"/>
<ellipse transform="matrix(0.1718 -0.9851 0.9851 0.1718 367.7782 1836.9775)" class="st5" cx="1276.4" cy="699.8" rx="0.9" ry="0.9"/>
<ellipse transform="matrix(0.7706 -0.6373 0.6373 0.7706 -146.8795 970.0746)" class="st5" cx="1274.2" cy="689.1" rx="1" ry="1"/>
<ellipse transform="matrix(0.8948 -0.4465 0.4465 0.8948 -175.4813 640.6476)" class="st5" cx="1271.6" cy="692.7" rx="0.7" ry="0.7"/>
<ellipse transform="matrix(0.5164 -0.8564 0.8564 0.5164 19.2981 1420.2471)" class="st5" cx="1267.1" cy="693" rx="0.3" ry="0.3"/>
<ellipse transform="matrix(0.4128 -0.9108 0.9108 0.4128 122.8837 1544.9742)" class="st5" cx="1259.6" cy="677.2" rx="1" ry="1"/>
<circle class="st5" cx="1277.7" cy="704.5" r="1"/>
<ellipse transform="matrix(0.226 -0.9741 0.9741 0.226 309.0758 1791.1576)" class="st5" cx="1281.6" cy="701.1" rx="0.7" ry="0.7"/>
<ellipse transform="matrix(0.2672 -0.9636 0.9636 0.2672 276.8797 1734.218)" class="st5" cx="1278.7" cy="685.1" rx="0.7" ry="0.7"/>
<circle class="st5" cx="1279.5" cy="690" r="1"/>
<ellipse transform="matrix(0.5618 -0.8273 0.8273 0.5618 -14.8914 1365.2655)" class="st5" cx="1281.3" cy="696.7" rx="0.9" ry="0.9"/>
<ellipse transform="matrix(0.5164 -0.8564 0.8564 0.5164 37.726 1418.8793)" class="st5" cx="1275.1" cy="676" rx="0.3" ry="0.3"/>
<path class="st1" d="M1417.2,511.2c0.1,2,0,4-0.4,6c-0.4,1.6,0.5,3.2,2.1,3.7c1.6,0.4,3.2-0.5,3.7-2.1c0,0,0,0,0,0
	c0.5-2.5,0.7-5.1,0.6-7.6c0-1.6-1.4-3-3-3C1418.5,508.2,1417.2,509.5,1417.2,511.2L1417.2,511.2z"/>
<path class="st1" d="M1446.2,390.9c-1.1,7.8-4.1,15.2-6.7,22.6c-2.6,7.6-5.3,15.1-8.2,22.5c-1.3,3.3,3.7,5,5.5,2.3l3.4-5.4
	c2.1-3.3-3.1-6.3-5.2-3l-3.4,5.4l5.5,2.3c2.8-7.5,5.6-15,8.2-22.5c2.5-7.4,5.5-14.9,6.7-22.6
	C1452.5,388.8,1446.7,387.1,1446.2,390.9L1446.2,390.9z"/>
<path class="st1" d="M1401.7,594.8c0.3,4.8-0.6,9.6-2.5,13.9c-1.6,3.5,3.6,6.5,5.2,3c2.5-5.3,3.6-11.1,3.3-17
	C1407.5,590.9,1401.5,590.8,1401.7,594.8L1401.7,594.8z"/>
<path d="M1688,121.6c2.2-0.5,4-1.8,5.1-3.7c0.4-0.7,0.1-1.6-0.6-2c-0.6-0.3-1.3-0.2-1.7,0.2c-0.9,0.8-2,1.3-3.1,1.6l1.2,2.7l7.6-5.2
	c1.6-1.1,0.1-3.7-1.5-2.6l-7.6,5.2c-0.7,0.5-0.9,1.4-0.5,2.1c0.3,0.5,1,0.8,1.6,0.7c1.7-0.3,3.2-1.2,4.5-2.3l-2.4-1.8
	c-0.7,1.2-1.9,2.1-3.3,2.3C1685.3,119.1,1686.1,122,1688,121.6L1688,121.6z"/>
<path d="M1432.4,517.7V507c0-0.8-0.7-1.5-1.6-1.5c-0.6,0-1.2,0.4-1.4,1.1c-0.4,1.6-0.6,3.3-0.5,5c0.1,1.9,3,1.9,3,0
	c-0.1-6.9,2.1-13.7,3.6-20.3l4.4-19c0.4-1.9-2.5-2.7-2.9-0.8l-4.8,20.9c-1.4,6.3-3.4,12.7-3.3,19.2h3c-0.2-1.4,0-2.8,0.4-4.2
	l-2.9-0.4v10.7c0,0.8,0.7,1.5,1.5,1.5S1432.4,518.4,1432.4,517.7L1432.4,517.7z"/>
<path class="st11" d="M1405.7,622.9L1223,493l235.4-165.2L1405.7,622.9z"/>
<path class="st12" d="M1835.6,494.8"/>
<path class="st13" d="M1458.5,329.3c-1,10.3-4.7,20.8-7.2,30.9c-0.4,1.6,2,2.8,2.7,1.2c2.1-4,3.5-8.3,4.2-12.8
	c0.2-1.7-2.5-2-2.9-0.4c-1.4,5.5-2.6,11-3.6,16.6l2.9,0.4c0.2-2,0.6-4,1.2-5.9c0.2-0.8-0.3-1.6-1.1-1.8c-0.8-0.2-1.6,0.3-1.8,1
	c-0.6,2.2-1,4.4-1.3,6.7c-0.2,1.7,2.7,2.1,2.9,0.4c1-5.6,2.2-11.1,3.6-16.6l-2.9-0.4c-0.5,4-2.1,7.6-3.8,11.2l2.7,1.2
	c2.6-10.3,6.3-21,7.3-31.6C1461.7,327.4,1458.7,327.4,1458.5,329.3L1458.5,329.3z"/>
<path class="st14" d="M2072.1,828.5"/>
<path d="M1456.3,491.2c-0.5,2.3-1,4.7-1.4,7c-0.3,1.9,2.6,2.7,2.9,0.8c0.4-2.4,0.9-4.7,1.4-7
	C1459.6,490.1,1456.8,489.3,1456.3,491.2z"/>
<path d="M1729.8,867.7c0-0.2-0.1-0.4-0.1-0.6c-32.7-22.5-65.4-45.1-98.1-67.6c-54.8-37.7-109.8-75.2-165.1-112.5l-23-15.4
	c-7.5-5-16.4-9.6-23-15.8c-7.1-6.6-6.4-17.3-1.2-24.9c4.9-7.2,12.7-11.7,20.2-15.9c0.2-0.1,0.2-0.4,0.1-0.5
	c-0.1-0.1-0.3-0.2-0.4-0.1h0c-10.4,6-22.4,13.2-24.3,26.2c-2,13.5,9.8,19.1,19.4,25.6c29.3,19.6,58.5,39.3,87.7,59.1
	c58.7,39.8,117.1,79.9,175.4,120.3l32.5,22.5V867.7z"/>
<path class="st1" d="M1428.1,608"/>
<path class="st15" d="M1819,511.6"/>
<rect x="1426" y="577.9" transform="matrix(0.669 -0.7433 0.7433 0.669 39.0905 1258.6129)" class="st16" width="13.4" height="15"/>
<rect x="1434.6" y="581.5" transform="matrix(0.669 -0.7433 0.7433 0.669 42.487 1259.9158)" class="st17" width="2.5" height="1.5"/>
<rect x="1431.6" y="584.8" transform="matrix(0.669 -0.7433 0.7433 0.669 39.0288 1258.7838)" class="st17" width="2.5" height="1.5"/>
<rect x="1428.6" y="588.1" transform="matrix(0.669 -0.7433 0.7433 0.669 35.5927 1257.6716)" class="st17" width="2.5" height="1.5"/>
<rect x="1434.9" y="568" transform="matrix(0.669 -0.7433 0.7433 0.669 49.4653 1261.989)" class="st16" width="13.4" height="15"/>
<rect x="1443.5" y="571.5" transform="matrix(0.669 -0.7433 0.7433 0.669 52.8611 1263.2769)" class="st17" width="2.5" height="1.5"/>
<rect x="1440.6" y="574.9" transform="matrix(0.669 -0.7433 0.7433 0.669 49.4036 1262.16)" class="st17" width="2.5" height="1.5"/>
<rect x="1437.5" y="578.1" transform="matrix(0.669 -0.7433 0.7433 0.669 46.0137 1260.9917)" class="st17" width="2.5" height="1.5"/>
<rect x="1443.9" y="558" transform="matrix(0.669 -0.7433 0.7433 0.669 59.8468 1265.3468)" class="st16" width="13.4" height="15"/>
<rect x="1452.5" y="561.6" transform="matrix(0.669 -0.7433 0.7433 0.669 63.236 1266.6531)" class="st17" width="2.5" height="1.5"/>
<rect x="1449.5" y="564.9" transform="matrix(0.669 -0.7433 0.7433 0.669 59.7777 1265.521)" class="st17" width="2.5" height="1.5"/>
<rect x="1446.5" y="568.2" transform="matrix(0.669 -0.7433 0.7433 0.669 56.3415 1264.4088)" class="st17" width="2.5" height="1.5"/>
<rect x="1452.9" y="548" transform="matrix(0.669 -0.7433 0.7433 0.669 70.2142 1268.7263)" class="st16" width="13.4" height="15"/>
<rect x="1461.5" y="551.6" transform="matrix(0.669 -0.7433 0.7433 0.669 73.61 1270.014)" class="st17" width="2.5" height="1.5"/>
<rect x="1458.5" y="554.9" transform="matrix(0.669 -0.7433 0.7433 0.669 70.1526 1268.8972)" class="st17" width="2.5" height="1.5"/>
<rect x="1455.5" y="558.2" transform="matrix(0.669 -0.7433 0.7433 0.669 66.7189 1267.7773)" class="st17" width="2.5" height="1.5"/>
<rect x="1461.8" y="538.1" transform="matrix(0.669 -0.7433 0.7433 0.669 80.5915 1272.0947)" class="st16" width="13.4" height="15"/>
<rect x="1470.4" y="541.6" transform="matrix(0.669 -0.7433 0.7433 0.669 83.9873 1273.3824)" class="st17" width="2.5" height="1.5"/>
<rect x="1467.5" y="545" transform="matrix(0.669 -0.7433 0.7433 0.669 80.5373 1272.2623)" class="st17" width="2.5" height="1.5"/>
<rect x="1464.5" y="548.3" transform="matrix(0.669 -0.7433 0.7433 0.669 77.0904 1271.1461)" class="st17" width="2.5" height="1.5"/>
<rect x="1470.8" y="528.1" transform="matrix(0.669 -0.7433 0.7433 0.669 90.9697 1275.4449)" class="st16" width="13.4" height="15"/>
<rect x="1479.4" y="531.6" transform="matrix(0.669 -0.7433 0.7433 0.669 94.4083 1276.7025)" class="st17" width="2.5" height="1.5"/>
<rect x="1476.4" y="535" transform="matrix(0.669 -0.7433 0.7433 0.669 90.9166 1275.6335)" class="st17" width="2.5" height="1.5"/>
<rect x="1473.5" y="538.3" transform="matrix(0.669 -0.7433 0.7433 0.669 87.4678 1274.5145)" class="st17" width="2.5" height="1.5"/>
<rect x="1479.8" y="518.1" transform="matrix(0.669 -0.7433 0.7433 0.669 101.3405 1278.8319)" class="st16" width="13.4" height="15"/>
<rect x="1488.4" y="521.7" transform="matrix(0.669 -0.7433 0.7433 0.669 104.7437 1280.1165)" class="st17" width="2.5" height="1.5"/>
<rect x="1485.4" y="525" transform="matrix(0.669 -0.7433 0.7433 0.669 101.294 1279.0021)" class="st17" width="2.5" height="1.5"/>
<rect x="1482.4" y="528.3" transform="matrix(0.669 -0.7433 0.7433 0.669 97.8467 1277.88)" class="st17" width="2.5" height="1.5"/>
<rect x="1488.7" y="508.2" transform="matrix(0.669 -0.7433 0.7433 0.669 111.7145 1282.193)" class="st16" width="13.4" height="15"/>
<rect x="1497.4" y="511.7" transform="matrix(0.669 -0.7433 0.7433 0.669 115.1185 1283.4926)" class="st17" width="2.5" height="1.5"/>
<rect x="1494.4" y="515.1" transform="matrix(0.669 -0.7433 0.7433 0.669 111.668 1282.363)" class="st17" width="2.5" height="1.5"/>
<rect x="1491.4" y="518.4" transform="matrix(0.669 -0.7433 0.7433 0.669 108.2242 1281.2484)" class="st17" width="2.5" height="1.5"/>
<rect x="1497.7" y="498.2" transform="matrix(0.669 -0.7433 0.7433 0.669 122.0935 1285.5583)" class="st16" width="13.4" height="15"/>
<rect x="1506.3" y="501.8" transform="matrix(0.669 -0.7433 0.7433 0.669 125.4925 1286.8536)" class="st17" width="2.5" height="1.5"/>
<rect x="1503.3" y="505.1" transform="matrix(0.669 -0.7433 0.7433 0.669 122.0428 1285.7393)" class="st17" width="2.5" height="1.5"/>
<rect x="1500.4" y="508.4" transform="matrix(0.669 -0.7433 0.7433 0.669 118.599 1284.6246)" class="st17" width="2.5" height="1.5"/>
<rect x="1506.7" y="488.2" transform="matrix(0.669 -0.7433 0.7433 0.669 132.4708 1288.9269)" class="st16" width="13.4" height="15"/>
<rect x="1515.3" y="491.8" transform="matrix(0.669 -0.7433 0.7433 0.669 135.8673 1290.2299)" class="st17" width="2.5" height="1.5"/>
<rect x="1512.3" y="495.1" transform="matrix(0.669 -0.7433 0.7433 0.669 132.4201 1289.1078)" class="st17" width="2.5" height="1.5"/>
<rect x="1509.3" y="498.4" transform="matrix(0.669 -0.7433 0.7433 0.669 128.973 1287.9856)" class="st17" width="2.5" height="1.5"/>
<rect x="1515.7" y="478.3" transform="matrix(0.669 -0.7433 0.7433 0.669 142.8457 1292.3031)" class="st16" width="13.4" height="15"/>
<rect x="1524.3" y="481.9" transform="matrix(0.669 -0.7433 0.7433 0.669 146.2447 1293.5983)" class="st17" width="2.5" height="1.5"/>
<rect x="1521.3" y="485.2" transform="matrix(0.669 -0.7433 0.7433 0.669 142.7917 1292.4766)" class="st17" width="2.5" height="1.5"/>
<rect x="1518.3" y="488.5" transform="matrix(0.669 -0.7433 0.7433 0.669 139.3502 1291.3541)" class="st17" width="2.5" height="1.5"/>
<rect x="1524.6" y="468.3" transform="matrix(0.669 -0.7433 0.7433 0.669 153.2272 1295.6608)" class="st16" width="13.4" height="15"/>
<rect x="1533.2" y="471.9" transform="matrix(0.669 -0.7433 0.7433 0.669 156.6265 1296.9618)" class="st17" width="2.5" height="1.5"/>
<rect x="1530.3" y="475.2" transform="matrix(0.669 -0.7433 0.7433 0.669 153.169 1295.845)" class="st17" width="2.5" height="1.5"/>
<rect x="1527.3" y="478.5" transform="matrix(0.669 -0.7433 0.7433 0.669 149.7218 1294.7229)" class="st17" width="2.5" height="1.5"/>
<rect x="1533.6" y="458.3" transform="matrix(0.669 -0.7433 0.7433 0.669 163.5971 1299.0325)" class="st16" width="13.4" height="15"/>
<rect x="1542.2" y="461.9" transform="matrix(0.669 -0.7433 0.7433 0.669 167.0013 1300.338)" class="st17" width="2.5" height="1.5"/>
<rect x="1539.2" y="465.2" transform="matrix(0.669 -0.7433 0.7433 0.669 163.5405 1299.2137)" class="st17" width="2.5" height="1.5"/>
<rect x="1536.2" y="468.5" transform="matrix(0.669 -0.7433 0.7433 0.669 160.0992 1298.0913)" class="st17" width="2.5" height="1.5"/>
<rect x="1542.6" y="448.4" transform="matrix(0.669 -0.7433 0.7433 0.669 173.9719 1302.4087)" class="st16" width="13.4" height="15"/>
<rect x="1551.2" y="452" transform="matrix(0.669 -0.7433 0.7433 0.669 177.3753 1303.699)" class="st17" width="2.5" height="1.5"/>
<rect x="1548.1" y="455.2" transform="matrix(0.669 -0.7433 0.7433 0.669 173.9608 1302.5184)" class="st17" width="2.5" height="1.5"/>
<rect x="1545.2" y="458.6" transform="matrix(0.669 -0.7433 0.7433 0.669 170.474 1301.4675)" class="st17" width="2.5" height="1.5"/>
<rect x="1551.5" y="438.4" transform="matrix(0.669 -0.7433 0.7433 0.669 184.3534 1305.7664)" class="st16" width="13.4" height="15"/>
<rect x="1560.2" y="442" transform="matrix(0.669 -0.7433 0.7433 0.669 187.7502 1307.0752)" class="st17" width="2.5" height="1.5"/>
<rect x="1557.2" y="445.3" transform="matrix(0.669 -0.7433 0.7433 0.669 184.3001 1305.9551)" class="st17" width="2.5" height="1.5"/>
<rect x="1554.2" y="448.6" transform="matrix(0.669 -0.7433 0.7433 0.669 180.848 1304.8285)" class="st17" width="2.5" height="1.5"/>
<rect x="1560.5" y="428.4" transform="matrix(0.669 -0.7433 0.7433 0.669 194.7286 1309.1484)" class="st16" width="13.4" height="15"/>
<rect x="1569.1" y="432" transform="matrix(0.669 -0.7433 0.7433 0.669 198.135 1310.4403)" class="st17" width="2.5" height="1.5"/>
<rect x="1566.1" y="435.3" transform="matrix(0.669 -0.7433 0.7433 0.669 194.6743 1309.316)" class="st17" width="2.5" height="1.5"/>
<rect x="1563.1" y="438.6" transform="matrix(0.669 -0.7433 0.7433 0.669 191.2659 1308.1411)" class="st17" width="2.5" height="1.5"/>
<rect x="1569.5" y="418.5" transform="matrix(0.669 -0.7433 0.7433 0.669 205.11 1312.5061)" class="st16" width="13.4" height="15"/>
<rect x="1578.1" y="422.1" transform="matrix(0.669 -0.7433 0.7433 0.669 208.5065 1313.8091)" class="st17" width="2.5" height="1.5"/>
<rect x="1575.1" y="425.3" transform="matrix(0.669 -0.7433 0.7433 0.669 205.0871 1312.6241)" class="st17" width="2.5" height="1.5"/>
<rect x="1572.1" y="428.7" transform="matrix(0.669 -0.7433 0.7433 0.669 201.6121 1311.5649)" class="st17" width="2.5" height="1.5"/>
<rect x="1578.5" y="408.5" transform="matrix(0.669 -0.7433 0.7433 0.669 215.4848 1315.8823)" class="st16" width="13.4" height="15"/>
<rect x="1587.1" y="412.1" transform="matrix(0.669 -0.7433 0.7433 0.669 218.8839 1317.1775)" class="st17" width="2.5" height="1.5"/>
<rect x="1584.1" y="415.4" transform="matrix(0.669 -0.7433 0.7433 0.669 215.4231 1316.0532)" class="st17" width="2.5" height="1.5"/>
<rect x="1581.1" y="418.7" transform="matrix(0.669 -0.7433 0.7433 0.669 211.9895 1314.9333)" class="st17" width="2.5" height="1.5"/>
<rect x="1587.4" y="398.5" transform="matrix(0.669 -0.7433 0.7433 0.669 225.8547 1319.254)" class="st16" width="13.4" height="15"/>
<rect x="1596" y="402.1" transform="matrix(0.669 -0.7433 0.7433 0.669 229.258 1320.5386)" class="st17" width="2.5" height="1.5"/>
<rect x="1593" y="405.4" transform="matrix(0.669 -0.7433 0.7433 0.669 225.8004 1319.4218)" class="st17" width="2.5" height="1.5"/>
<rect x="1590.1" y="408.7" transform="matrix(0.669 -0.7433 0.7433 0.669 222.3643 1318.3096)" class="st17" width="2.5" height="1.5"/>
<rect x="1596.4" y="388.6" transform="matrix(0.669 -0.7433 0.7433 0.669 236.2437 1322.6085)" class="st16" width="13.4" height="15"/>
<rect x="1605" y="392.1" transform="matrix(0.669 -0.7433 0.7433 0.669 239.6682 1323.8545)" class="st17" width="2.5" height="1.5"/>
<rect x="1602" y="395.5" transform="matrix(0.669 -0.7433 0.7433 0.669 236.1753 1322.7979)" class="st17" width="2.5" height="1.5"/>
<rect x="1599" y="398.8" transform="matrix(0.669 -0.7433 0.7433 0.669 232.7383 1321.6705)" class="st17" width="2.5" height="1.5"/>
<rect x="1605.4" y="378.6" transform="matrix(0.669 -0.7433 0.7433 0.669 246.6111 1325.9879)" class="st16" width="13.4" height="15"/>
<rect x="1614" y="382.2" transform="matrix(0.669 -0.7433 0.7433 0.669 250.0101 1327.2832)" class="st17" width="2.5" height="1.5"/>
<rect x="1611" y="385.5" transform="matrix(0.669 -0.7433 0.7433 0.669 246.5494 1326.1589)" class="st17" width="2.5" height="1.5"/>
<rect x="1608" y="388.8" transform="matrix(0.669 -0.7433 0.7433 0.669 243.1132 1325.0468)" class="st17" width="2.5" height="1.5"/>
<rect x="1614.3" y="368.6" transform="matrix(0.669 -0.7433 0.7433 0.669 256.9884 1329.3564)" class="st16" width="13.4" height="15"/>
<rect x="1622.9" y="372.2" transform="matrix(0.669 -0.7433 0.7433 0.669 260.3816 1330.652)" class="st17" width="2.5" height="1.5"/>
<rect x="1620" y="375.5" transform="matrix(0.669 -0.7433 0.7433 0.669 256.9319 1329.5376)" class="st17" width="2.5" height="1.5"/>
<rect x="1617" y="378.8" transform="matrix(0.669 -0.7433 0.7433 0.669 253.4873 1328.4078)" class="st17" width="2.5" height="1.5"/>
<rect x="1623.3" y="358.7" transform="matrix(0.669 -0.7433 0.7433 0.669 267.364 1332.7145)" class="st16" width="13.4" height="15"/>
<rect x="1631.9" y="362.3" transform="matrix(0.669 -0.7433 0.7433 0.669 270.759 1334.0204)" class="st17" width="2.5" height="1.5"/>
<rect x="1628.9" y="365.6" transform="matrix(0.669 -0.7433 0.7433 0.669 267.306 1332.8986)" class="st17" width="2.5" height="1.5"/>
<rect x="1626" y="368.9" transform="matrix(0.669 -0.7433 0.7433 0.669 263.8621 1331.7839)" class="st17" width="2.5" height="1.5"/>
<rect x="1632.3" y="348.7" transform="matrix(0.669 -0.7433 0.7433 0.669 277.7373 1336.0936)" class="st16" width="13.4" height="15"/>
<rect x="1640.9" y="352.3" transform="matrix(0.669 -0.7433 0.7433 0.669 281.1306 1337.3892)" class="st17" width="2.5" height="1.5"/>
<rect x="1637.9" y="355.6" transform="matrix(0.669 -0.7433 0.7433 0.669 277.6908 1336.2638)" class="st17" width="2.5" height="1.5"/>
<rect x="1634.9" y="358.9" transform="matrix(0.669 -0.7433 0.7433 0.669 274.2394 1335.1523)" class="st17" width="2.5" height="1.5"/>
<rect x="1641.2" y="338.8" transform="matrix(0.669 -0.7433 0.7433 0.669 288.1088 1339.4624)" class="st16" width="13.4" height="15"/>
<rect x="1649.9" y="342.3" transform="matrix(0.669 -0.7433 0.7433 0.669 291.5154 1340.7543)" class="st17" width="2.5" height="1.5"/>
<rect x="1646.9" y="345.6" transform="matrix(0.669 -0.7433 0.7433 0.669 288.0656 1339.64)" class="st17" width="2.5" height="1.5"/>
<rect x="1643.9" y="349" transform="matrix(0.669 -0.7433 0.7433 0.669 284.611 1338.5212)" class="st17" width="2.5" height="1.5"/>
<rect x="1650.2" y="328.8" transform="matrix(0.669 -0.7433 0.7433 0.669 298.4903 1342.8201)" class="st16" width="13.4" height="15"/>
<rect x="1658.8" y="332.4" transform="matrix(0.669 -0.7433 0.7433 0.669 301.8927 1344.1227)" class="st17" width="2.5" height="1.5"/>
<rect x="1655.8" y="335.7" transform="matrix(0.669 -0.7433 0.7433 0.669 298.4397 1343.001)" class="st17" width="2.5" height="1.5"/>
<rect x="1652.9" y="339" transform="matrix(0.669 -0.7433 0.7433 0.669 294.9958 1341.8864)" class="st17" width="2.5" height="1.5"/>
<rect x="1659.2" y="318.8" transform="matrix(0.669 -0.7433 0.7433 0.669 308.8635 1346.1992)" class="st16" width="13.4" height="15"/>
<rect x="1667.8" y="322.4" transform="matrix(0.669 -0.7433 0.7433 0.669 312.2642 1347.4915)" class="st17" width="2.5" height="1.5"/>
<rect x="1664.8" y="325.7" transform="matrix(0.669 -0.7433 0.7433 0.669 308.8227 1346.3557)" class="st17" width="2.5" height="1.5"/>
<rect x="1661.8" y="329" transform="matrix(0.669 -0.7433 0.7433 0.669 305.3814 1345.2333)" class="st17" width="2.5" height="1.5"/>
<rect x="1668.1" y="308.9" transform="matrix(0.669 -0.7433 0.7433 0.669 319.2425 1349.5647)" class="st16" width="13.4" height="15"/>
<rect x="1676.8" y="312.4" transform="matrix(0.669 -0.7433 0.7433 0.669 322.6494 1350.8624)" class="st17" width="2.5" height="1.5"/>
<rect x="1673.7" y="315.7" transform="matrix(0.669 -0.7433 0.7433 0.669 319.224 1349.6779)" class="st17" width="2.5" height="1.5"/>
<rect x="1670.8" y="319.1" transform="matrix(0.669 -0.7433 0.7433 0.669 315.7446 1348.6235)" class="st17" width="2.5" height="1.5"/>
<rect x="1677.1" y="298.9" transform="matrix(0.669 -0.7433 0.7433 0.669 329.624 1352.9225)" class="st16" width="13.4" height="15"/>
<rect x="1685.7" y="302.5" transform="matrix(0.669 -0.7433 0.7433 0.669 333.0209 1354.2312)" class="st17" width="2.5" height="1.5"/>
<rect x="1682.8" y="305.8" transform="matrix(0.669 -0.7433 0.7433 0.669 329.5634 1353.1144)" class="st17" width="2.5" height="1.5"/>
<rect x="1679.8" y="309.1" transform="matrix(0.669 -0.7433 0.7433 0.669 326.1221 1351.9919)" class="st17" width="2.5" height="1.5"/>
<rect x="1686.1" y="288.9" transform="matrix(0.669 -0.7433 0.7433 0.669 339.9914 1356.302)" class="st16" width="13.4" height="15"/>
<rect x="1694.7" y="292.5" transform="matrix(0.669 -0.7433 0.7433 0.669 343.3981 1357.5997)" class="st17" width="2.5" height="1.5"/>
<rect x="1691.7" y="295.8" transform="matrix(0.669 -0.7433 0.7433 0.669 339.9408 1356.4828)" class="st17" width="2.5" height="1.5"/>
<rect x="1688.7" y="299.1" transform="matrix(0.669 -0.7433 0.7433 0.669 336.5257 1355.293)" class="st17" width="2.5" height="1.5"/>
<rect x="1695" y="278.9" transform="matrix(0.669 -0.7433 0.7433 0.669 350.3728 1359.6597)" class="st16" width="13.4" height="15"/>
<rect x="1703.7" y="282.5" transform="matrix(0.669 -0.7433 0.7433 0.669 353.7729 1360.9758)" class="st17" width="2.5" height="1.5"/>
<rect x="1700.6" y="285.8" transform="matrix(0.669 -0.7433 0.7433 0.669 350.3543 1359.7728)" class="st17" width="2.5" height="1.5"/>
<rect x="1697.7" y="289.2" transform="matrix(0.669 -0.7433 0.7433 0.669 346.8709 1358.7291)" class="st17" width="2.5" height="1.5"/>
<rect x="1704" y="269" transform="matrix(0.669 -0.7433 0.7433 0.669 360.748 1363.0416)" class="st16" width="13.4" height="15"/>
<rect x="1712.6" y="272.6" transform="matrix(0.669 -0.7433 0.7433 0.669 364.147 1364.3369)" class="st17" width="2.5" height="1.5"/>
<rect x="1709.7" y="275.9" transform="matrix(0.669 -0.7433 0.7433 0.669 360.6895 1363.2201)" class="st17" width="2.5" height="1.5"/>
<rect x="1706.7" y="279.2" transform="matrix(0.669 -0.7433 0.7433 0.669 357.2423 1362.0979)" class="st17" width="2.5" height="1.5"/>
<path class="st16" d="M1724.5,270.2c-0.2-2.9-0.3-5.8-0.5-8.7l-5.4-4.9l-9,10l11.1,10l3.8-4.3
	C1724.6,271.6,1724.6,270.9,1724.5,270.2z"/>
<rect x="1718.6" y="265.9" transform="matrix(0.669 -0.7433 0.7433 0.669 371.0711 1366.5778)" class="st17" width="2.5" height="1.5"/>
<rect x="1715.7" y="269.2" transform="matrix(0.669 -0.7433 0.7433 0.669 367.6274 1365.4689)" class="st17" width="2.5" height="1.5"/>
<path class="st16" d="M1723.7,250.9l-5.1,5.7l5.4,4.9C1723.9,257.9,1723.8,254.4,1723.7,250.9z"/>
<path class="st16" d="M1809.6,167.8c-0.2,0-0.3,0-0.5,0c0,0.5,0,1,0,1.5c1.1-0.4,2.2-0.8,3.3-1.2
	C1811.5,167.9,1810.6,167.9,1809.6,167.8z"/>
<path class="st16" d="M1809.6,157.8c1.9,0.1,3.8,0.3,5.7,0.7c0.3-3.4,0.5-6.9,0.9-10.3l-6.8,7.5c0,0.7,0,1.4,0,2.1l0,0
	C1809.5,157.8,1809.5,157.8,1809.6,157.8z"/>
<path class="st16" d="M1834.1,144l-0.7-0.6c-0.7,1.8-1.4,3.6-2.1,5.4c0,1.7,0,3.4,0,5.1l1-1.1c-0.4-0.9-0.5-2.1-0.1-3.4
	C1832.7,147.5,1833.4,145.8,1834.1,144z"/>
<path class="st16" d="M1839,130.3c-2,4.3-3.8,8.6-5.6,13l0.7,0.6c1.7-4.4,3.6-8.8,5.5-13.1L1839,130.3z"/>
<path class="st16" d="M1845.1,117.8c-2.2,4.1-4.2,8.3-6.1,12.5l0.6,0.5c1.9-4.3,3.9-8.6,5.7-12.9L1845.1,117.8z"/>
<path class="st16" d="M1878.6,94.6c-1.9,4-3.9,8-5.9,12l0.6,0.5l9-10l-3.4-3.1C1878.8,94.2,1878.7,94.4,1878.6,94.6z"/>
<path class="st16" d="M1496.4,291.3c75.6,10.1,152.6,20.1,229.1,30.3"/>
<rect x="1495.6" y="285.5" transform="matrix(0.1312 -0.9914 0.9914 0.1312 1016.1809 1744.0256)" class="st16" width="15" height="13.4"/>
<rect x="1506.7" y="291.8" transform="matrix(0.1312 -0.9914 0.9914 0.1312 1019.1669 1748.9989)" class="st17" width="1.5" height="2.5"/>
<rect x="1502.3" y="291.2" transform="matrix(0.1312 -0.9914 0.9914 0.1312 1015.9094 1744.113)" class="st17" width="1.5" height="2.5"/>
<rect x="1497.9" y="290.6" transform="matrix(0.1312 -0.9914 0.9914 0.1312 1012.6528 1739.2487)" class="st17" width="1.5" height="2.5"/>
<rect x="1506.7" y="289" transform="matrix(0.1302 -0.9915 0.9915 0.1302 1023.864 1758.4973)" class="st16" width="15" height="13.4"/>
<rect x="1519.9" y="293.5" transform="matrix(0.131 -0.9914 0.9914 0.131 1029.1544 1763.6091)" class="st17" width="1.5" height="2.5"/>
<rect x="1515.4" y="292.9" transform="matrix(0.131 -0.9914 0.9914 0.131 1025.8868 1758.7327)" class="st17" width="1.5" height="2.5"/>
<rect x="1511" y="292.3" transform="matrix(0.131 -0.9914 0.9914 0.131 1022.6325 1753.8492)" class="st17" width="1.5" height="2.5"/>
<rect x="1522.2" y="289.1" transform="matrix(0.1312 -0.9914 0.9914 0.1312 1035.7882 1773.4427)" class="st16" width="15" height="13.4"/>
<rect x="1533.3" y="295.3" transform="matrix(0.1312 -0.9914 0.9914 0.1312 1038.783 1778.4258)" class="st17" width="1.5" height="2.5"/>
<rect x="1528.9" y="294.7" transform="matrix(0.1312 -0.9914 0.9914 0.1312 1035.5276 1773.5228)" class="st17" width="1.5" height="2.5"/>
<rect x="1524.5" y="294.1" transform="matrix(0.1312 -0.9914 0.9914 0.1312 1032.2551 1768.6375)" class="st17" width="1.5" height="2.5"/>
<rect x="1535.5" y="290.8" transform="matrix(0.1312 -0.9914 0.9914 0.1312 1045.5826 1788.1505)" class="st16" width="15" height="13.4"/>
<rect x="1546.5" y="297" transform="matrix(0.131 -0.9914 0.9914 0.131 1048.7625 1793.0403)" class="st17" width="1.5" height="2.5"/>
<rect x="1542" y="296.4" transform="matrix(0.131 -0.9914 0.9914 0.131 1045.5082 1788.1371)" class="st17" width="1.5" height="2.5"/>
<rect x="1537.6" y="295.8" transform="matrix(0.131 -0.9914 0.9914 0.131 1042.2526 1783.2548)" class="st17" width="1.5" height="2.5"/>
<rect x="1548.8" y="292.6" transform="matrix(0.1312 -0.9914 0.9914 0.1312 1055.3992 1802.8416)" class="st16" width="15" height="13.4"/>
<rect x="1559.9" y="298.8" transform="matrix(0.1312 -0.9914 0.9914 0.1312 1058.3925 1807.8257)" class="st17" width="1.5" height="2.5"/>
<rect x="1555.5" y="298.2" transform="matrix(0.1312 -0.9914 0.9914 0.1312 1055.1179 1802.9375)" class="st17" width="1.5" height="2.5"/>
<rect x="1551.1" y="297.7" transform="matrix(0.1312 -0.9914 0.9914 0.1312 1051.8712 1798.0643)" class="st17" width="1.5" height="2.5"/>
<rect x="1559.8" y="296.1" transform="matrix(0.1302 -0.9915 0.9915 0.1302 1063.0082 1817.3091)" class="st16" width="15" height="13.4"/>
<rect x="1573" y="300.5" transform="matrix(0.131 -0.9914 0.9914 0.131 1068.3824 1822.4458)" class="st17" width="1.5" height="2.5"/>
<rect x="1568.6" y="299.9" transform="matrix(0.131 -0.9914 0.9914 0.131 1065.1174 1817.5497)" class="st17" width="1.5" height="2.5"/>
<rect x="1564.2" y="299.4" transform="matrix(0.131 -0.9914 0.9914 0.131 1061.8706 1812.6772)" class="st17" width="1.5" height="2.5"/>
<rect x="1575.4" y="296.1" transform="matrix(0.1312 -0.9914 0.9914 0.1312 1075.0066 1832.2584)" class="st16" width="15" height="13.4"/>
<rect x="1586.5" y="302.3" transform="matrix(0.1312 -0.9914 0.9914 0.1312 1078.0012 1837.2416)" class="st17" width="1.5" height="2.5"/>
<rect x="1582" y="301.7" transform="matrix(0.1312 -0.9914 0.9914 0.1312 1074.7361 1832.3473)" class="st17" width="1.5" height="2.5"/>
<rect x="1577.6" y="301.2" transform="matrix(0.1312 -0.9914 0.9914 0.1312 1071.4894 1827.4741)" class="st17" width="1.5" height="2.5"/>
<rect x="1588.7" y="297.9" transform="matrix(0.1312 -0.9914 0.9914 0.1312 1084.8097 1846.9764)" class="st16" width="15" height="13.4"/>
<rect x="1599.6" y="304" transform="matrix(0.131 -0.9914 0.9914 0.131 1088.0039 1851.8502)" class="st17" width="1.5" height="2.5"/>
<rect x="1595.2" y="303.5" transform="matrix(0.131 -0.9914 0.9914 0.131 1084.7375 1846.9551)" class="st17" width="1.5" height="2.5"/>
<rect x="1590.8" y="302.9" transform="matrix(0.131 -0.9914 0.9914 0.131 1081.4833 1842.0718)" class="st17" width="1.5" height="2.5"/>
<rect x="1602" y="299.6" transform="matrix(0.1312 -0.9914 0.9914 0.1312 1094.6335 1861.6782)" class="st16" width="15" height="13.4"/>
<rect x="1613.1" y="305.8" transform="matrix(0.1312 -0.9914 0.9914 0.1312 1097.6194 1866.6514)" class="st17" width="1.5" height="2.5"/>
<rect x="1608.6" y="305.3" transform="matrix(0.1312 -0.9914 0.9914 0.1312 1094.3435 1861.7645)" class="st17" width="1.5" height="2.5"/>
<rect x="1604.2" y="304.7" transform="matrix(0.1312 -0.9914 0.9914 0.1312 1091.0896 1856.8804)" class="st17" width="1.5" height="2.5"/>
<rect x="1612.9" y="303.2" transform="matrix(0.1302 -0.9915 0.9915 0.1302 1102.1686 1876.1416)" class="st16" width="15" height="13.4"/>
<rect x="1626.2" y="307.6" transform="matrix(0.131 -0.9914 0.9914 0.131 1107.613 1881.2629)" class="st17" width="1.5" height="2.5"/>
<rect x="1621.8" y="307" transform="matrix(0.131 -0.9914 0.9914 0.131 1104.3403 1876.3583)" class="st17" width="1.5" height="2.5"/>
<rect x="1617.4" y="306.4" transform="matrix(0.131 -0.9914 0.9914 0.131 1101.0824 1871.4932)" class="st17" width="1.5" height="2.5"/>
<rect x="1628.6" y="303.1" transform="matrix(0.1312 -0.9914 0.9914 0.1312 1114.2235 1891.093)" class="st16" width="15" height="13.4"/>
<rect x="1639.7" y="309.4" transform="matrix(0.1312 -0.9914 0.9914 0.1312 1117.217 1896.0773)" class="st17" width="1.5" height="2.5"/>
<rect x="1635.2" y="308.8" transform="matrix(0.1312 -0.9914 0.9914 0.1312 1113.9634 1891.1731)" class="st17" width="1.5" height="2.5"/>
<rect x="1630.8" y="308.2" transform="matrix(0.1312 -0.9914 0.9914 0.1312 1110.7079 1886.29)" class="st17" width="1.5" height="2.5"/>
<rect x="1641.8" y="304.9" transform="matrix(0.1312 -0.9914 0.9914 0.1312 1124.028 1905.7922)" class="st16" width="15" height="13.4"/>
<rect x="1652.8" y="311.1" transform="matrix(0.131 -0.9914 0.9914 0.131 1127.2419 1910.6782)" class="st17" width="1.5" height="2.5"/>
<rect x="1648.4" y="310.5" transform="matrix(0.131 -0.9914 0.9914 0.131 1123.9581 1905.7809)" class="st17" width="1.5" height="2.5"/>
<rect x="1644" y="309.9" transform="matrix(0.131 -0.9914 0.9914 0.131 1120.7025 1900.8986)" class="st17" width="1.5" height="2.5"/>
<rect x="1655.1" y="306.6" transform="matrix(0.1312 -0.9914 0.9914 0.1312 1133.842 1920.5026)" class="st16" width="15" height="13.4"/>
<rect x="1666.2" y="312.9" transform="matrix(0.1312 -0.9914 0.9914 0.1312 1136.8353 1925.4869)" class="st17" width="1.5" height="2.5"/>
<rect x="1661.8" y="312.3" transform="matrix(0.1312 -0.9914 0.9914 0.1312 1133.5619 1920.5802)" class="st17" width="1.5" height="2.5"/>
<rect x="1657.4" y="311.7" transform="matrix(0.1312 -0.9914 0.9914 0.1312 1130.3152 1915.7072)" class="st17" width="1.5" height="2.5"/>
<rect x="1666" y="310.3" transform="matrix(0.1302 -0.9915 0.9915 0.1302 1141.3127 1934.9534)" class="st16" width="15" height="13.4"/>
<rect x="1679.4" y="314.6" transform="matrix(0.131 -0.9914 0.9914 0.131 1146.835 1940.0701)" class="st17" width="1.5" height="2.5"/>
<rect x="1675" y="314" transform="matrix(0.131 -0.9914 0.9914 0.131 1143.5784 1935.1863)" class="st17" width="1.5" height="2.5"/>
<rect x="1670.5" y="313.4" transform="matrix(0.131 -0.9914 0.9914 0.131 1140.3131 1930.3102)" class="st17" width="1.5" height="2.5"/>
<rect x="1681.7" y="310.2" transform="matrix(0.1312 -0.9914 0.9914 0.1312 1153.4492 1949.9197)" class="st16" width="15" height="13.4"/>
<rect x="1692.8" y="316.4" transform="matrix(0.1312 -0.9914 0.9914 0.1312 1156.4353 1954.8931)" class="st17" width="1.5" height="2.5"/>
<rect x="1688.4" y="315.8" transform="matrix(0.1312 -0.9914 0.9914 0.1312 1153.1887 1949.9999)" class="st17" width="1.5" height="2.5"/>
<rect x="1684" y="315.2" transform="matrix(0.1312 -0.9914 0.9914 0.1312 1149.9263 1945.1058)" class="st17" width="1.5" height="2.5"/>
<rect x="1695" y="311.9" transform="matrix(0.1312 -0.9914 0.9914 0.1312 1163.2733 1964.6216)" class="st16" width="15" height="13.4"/>
<rect x="1706" y="318.1" transform="matrix(0.131 -0.9914 0.9914 0.131 1166.4539 1969.4941)" class="st17" width="1.5" height="2.5"/>
<rect x="1701.5" y="317.5" transform="matrix(0.131 -0.9914 0.9914 0.131 1163.196 1964.609)" class="st17" width="1.5" height="2.5"/>
<rect x="1697.1" y="316.9" transform="matrix(0.131 -0.9914 0.9914 0.131 1159.9331 1959.7157)" class="st17" width="1.5" height="2.5"/>
<rect x="1708.3" y="313.7" transform="matrix(0.1312 -0.9914 0.9914 0.1312 1173.0762 1979.3395)" class="st16" width="15" height="13.4"/>
<rect x="1719.4" y="319.9" transform="matrix(0.1312 -0.9914 0.9914 0.1312 1176.0536 1984.3027)" class="st17" width="1.5" height="2.5"/>
<rect x="1715" y="319.3" transform="matrix(0.1312 -0.9914 0.9914 0.1312 1172.7888 1979.406)" class="st17" width="1.5" height="2.5"/>
<rect x="1710.6" y="318.7" transform="matrix(0.1312 -0.9914 0.9914 0.1312 1169.5422 1974.5328)" class="st17" width="1.5" height="2.5"/>
<path class="st16" d="M1727,314.3l-3.5-0.5l-2,14.9l6.2,0.8C1727.5,324.4,1727.2,319.4,1727,314.3z"/>
<rect x="1723.7" y="320.4" transform="matrix(0.131 -0.9914 0.9914 0.131 1179.5533 1989.1212)" class="st17" width="1.5" height="2.5"/>
<path class="st16" d="M1801.5,339.3l13.1,1.7l0.5-4c-4.4-0.3-8.8-0.6-13.2-1.1C1801.7,337,1801.6,338.2,1801.5,339.3z"/>
<path class="st16" d="M1815.6,337.1c-1-0.1-1.9-0.1-2.9-0.2l-0.8,6.2l13.3,1.7l0.9-6.7C1822.6,337.7,1819.1,337.3,1815.6,337.1z"/>
<path class="st16" d="M1842.9,331l0.2-1.3l-8.5-1.1c-1.6-0.1-3.2-0.2-4.9-0.3l0,0.2C1834.2,329.1,1838.6,330,1842.9,331z"/>
<path class="st16" d="M1828.4,338.4l-0.6,4.4l13.3,1.8l0.5-3.6C1837.2,339.9,1832.8,339,1828.4,338.4z"/>
<path class="st16" d="M1847.5,342.4c-2.8-0.8-5.5-1.4-8.2-2l-0.8,6.3l13.3,1.7l0.6-4.7C1850.7,343.3,1849.1,342.8,1847.5,342.4z"/>
<path class="st16" d="M1856.9,334.6c4.1,1.1,8.1,2.1,12.2,3l0.5-3.9c-2.5-0.6-5.1-1.1-7.7-1.6l-5.6-0.7l-0.4,2.9
	C1856.3,334.4,1856.6,334.5,1856.9,334.6z"/>
<path class="st16" d="M1854.7,344.3l-0.3,1.9l13.3,1.8l0.1-0.5C1863.4,346.6,1859,345.5,1854.7,344.3z"/>
<path class="st16" d="M1879.8,339.9l0.4-2.8l-13.3-1.7l-0.2,1.8C1871.1,338.1,1875.5,339.1,1879.8,339.9z"/>
<path class="st16" d="M1865.4,347l-0.4,3.1l13.3,1.7l0.3-2.1C1874.1,349,1869.8,348,1865.4,347z"/>
<path class="st16" d="M1895.5,342.4l0.3-2c-4.3-1-8.5-2.1-12.7-3.3c-0.1,0-0.3-0.1-0.4-0.1l-0.4,3.3
	C1886.7,341.2,1891.1,341.8,1895.5,342.4z"/>
<path class="st16" d="M1908.9,343.6l0.1-0.5c-0.1,0-0.2,0-0.4-0.1c-4.3-0.7-8.6-1.7-12.8-2.7l-0.3,2
	C1899.9,342.9,1904.4,343.3,1908.9,343.6z"/>
<path class="st16" d="M1913.4,343.8c-1.5-0.2-3-0.4-4.5-0.7l-0.1,0.5C1910.4,343.7,1911.9,343.7,1913.4,343.8z"/>
<path class="st16" d="M1910.3,353.7l10.6,1.4l0.2-1.3C1917.5,353.8,1913.9,353.8,1910.3,353.7z"/>
<path class="st16" d="M1918.6,353.8l-0.5,3.5l13.3,1.7l0.7-5.4C1927.6,353.6,1923.1,353.7,1918.6,353.8z"/>
<path class="st16" d="M1939.7,353.6c-1.7-0.1-3.4-0.1-5.1-0.1l-0.4,3.3l13.3,1.8l0.6-4.5C1945.3,353.9,1942.5,353.7,1939.7,353.6z"
	/>
<path class="st16" d="M1948.1,354.1l-0.6,4.5l13.3,1.8l0.6-4.9C1957,354.9,1952.5,354.4,1948.1,354.1z"/>
<path class="st16" d="M1970.6,356.8c-3-0.5-6.1-1-9.1-1.4l-0.6,4.9l13.3,1.8l0.6-4.6C1973.3,357.3,1971.9,357.1,1970.6,356.8z"/>
<path class="st16" d="M1972.1,357.1l-1,7.3l13.3,1.7l0.9-6.5C1980.9,358.7,1976.5,357.9,1972.1,357.1z"/>
<path class="st16" d="M1993.4,351.1c3,0.6,5.9,1.3,8.9,1.9l0.3-2.2l-12-1.6C1992,349.5,1992.9,350.2,1993.4,351.1z"/>
<path class="st16" d="M1987.9,360.1l-0.5,3.8l13.3,1.8l0.4-2.7C1996.6,361.9,1992.3,361,1987.9,360.1z"/>
<path class="st16" d="M2015.5,356l0.5-3.5l-13.3-1.8l-0.3,2.2C2006.7,354,2011.1,355,2015.5,356z"/>
<path class="st16" d="M2001,362.9l-0.4,2.7l13.3,1.8l0.2-1.4C2009.8,364.9,2005.4,363.9,2001,362.9z"/>
<path class="st16" d="M2028.6,359l0.6-4.7l-13.3-1.8l-0.5,3.5C2019.8,357,2024.2,358,2028.6,359z"/>
<path class="st16" d="M2014.1,365.9l-0.2,1.4l13.3,1.8l0-0.2C2022.9,368,2018.5,367,2014.1,365.9z"/>
<path class="st16" d="M2039.1,361.3l0.4-3l-13.3-1.7l-0.2,1.8C2030.4,359.4,2034.8,360.4,2039.1,361.3z"/>
<path class="st16" d="M2034.1,370.5c-3.1-0.7-6.2-1.4-9.4-2.1l-0.4,3.1l13.3,1.7l0.3-1.9C2036.6,371,2035.3,370.7,2034.1,370.5z"/>
<path class="st16" d="M2052.3,364l0.5-3.9l-13.3-1.7l-0.4,3C2043.5,362.3,2047.9,363.2,2052.3,364z"/>
<path class="st16" d="M2037.8,371.3l-0.3,2l13.3,1.7l0.1-1.1C2046.6,373.1,2042.2,372.2,2037.8,371.3z"/>
<path class="st16" d="M2067.2,366.5c-0.1-1.3,0.5-2.6,1.4-3.6l0.5-3.4l-13.3-1.8l-0.9,6.7C2059,365.2,2063.1,365.9,2067.2,366.5z"/>
<path class="st16" d="M2064.2,376.1l-0.1,0.6l13.3,1.7l0.1-0.7C2073,377.4,2068.6,376.8,2064.2,376.1z"/>
<path class="st16" d="M2067.2,366.5c-0.1-1.6,0.7-3.1,2-4.2l-3.2-0.4l-0.6,4.3C2066.1,366.3,2066.7,366.4,2067.2,366.5z"/>
<path class="st16" d="M2105.7,368.9l0.2-1.7l-13.3-1.7l0,0.3C2096.9,366.9,2101.3,368,2105.7,368.9z"/>
<path class="st16" d="M2109.1,370.2c4.3-0.4,8.5-0.8,12.8-1l0.3-2.6l-13.3-1.8l-0.6,4.8C2108.6,369.8,2108.9,370,2109.1,370.2z"/>
<path d="M1482.6,559.6c5.9-4.5,12.1-8.5,18.8-11.8c1.7-0.9,0.2-3.5-1.5-2.6c-6.6,3.3-12.9,7.3-18.8,11.8
	C1479.5,558.1,1481.1,560.7,1482.6,559.6z"/>
<path d="M1729.2,391c-0.5-0.8-0.8-1.7-0.8-2.9c0.1-5.6,0.2-11.1,0.2-16.6c-19.3,2.8-33.6,16.4-48.4,28.1
	c-17.9,14.1-37.5,26-56.9,37.9l-0.6,0.4l0,0c-4.9,3-2.7,9.5,1.5,10.9c-13.8,7.6-27.5,15.5-39.9,25.3c-14.8,11.7-27.2,26-41.7,38.1
	c-8,6.6-16.8,12.1-26.1,16.5c-9.1,4.5-17.4,9.3-23.6,17.5c-4.7,6.2,5.8,12.1,10.4,6.1l0,0c5.4-7.1,14.3-10.7,22.1-14.5
	c8.5-4.3,16.6-9.5,23.9-15.5c15-12.2,27.7-27.1,42.9-39.1c15.9-12.5,34.2-21.7,51.8-31.5s34.4-20.6,49.6-34.2
	c8.5-7.6,16.9-14.8,27-20.3c3.1-1.7,6.1-3.5,8.7-5.6C1729.1,391.4,1729.1,391.2,1729.2,391z"/>
<path d="M1488.6,564.2c0.1-0.2,0.3-0.5,0.4-0.7s0.6-0.8,0,0s0,0.1,0.2-0.1s0.9-0.8,0.1-0.2s-0.1,0.1,0,0s0.5-0.3,0.7-0.4
	c0.8-0.5-0.6,0.2-0.6,0.2c0.3-0.1,0.6-0.2,0.9-0.3c3-0.9,5.2-4.3,4.2-7.4c-0.9-3.2-4.2-5-7.4-4.2c-3.8,1.1-7,3.6-8.9,7
	c-1.5,2.8-0.8,6.7,2.2,8.2C1483.2,567.9,1486.9,567,1488.6,564.2L1488.6,564.2z"/>
<path d="M1496.8,547.1c-10.9,2.5-21.7,8.8-31.3,14.4c-9.8,5.8-19.1,12.4-27.8,19.8c-5.9,5,2.6,13.4,8.5,8.5
	c7.9-6.7,16.4-12.7,25.4-17.9c8.7-5.1,18.5-11,28.4-13.2C1507.5,557,1504.3,545.4,1496.8,547.1z"/>
<path d="M1726.8,637.4l0.1,45.7C1729.8,668.2,1728.3,652.6,1726.8,637.4z"/>
<path d="M1726.9,683.1c-0.1,0.6-0.3,1.3-0.4,1.9l0.6,61.5L1726.9,683.1z"/>
<path d="M1716.8,718.9c0.1-9.9,5.2-18.9,8.2-28.3c0.6-1.9,1.1-3.7,1.5-5.6l-2.3-259.9l6.1-5.1c0-0.8-0.1-1.7-0.1-2.5
	c-5.2,3.3-9.9,7.4-14.6,11.4c-88.6,75.6-192.7,130.9-284.5,202.7c-4,3.1-8.2,7-8.2,12c0.1,6,6.2,9.9,11.6,12.8
	c39.4,20.9,75.1,48.1,110.9,74.9c40.5,30.3,81.3,60.2,124.1,87.1c17.8,11.2,40.3,22.2,59,12.3l0.2-51.7c0-9,0.1-18-2.2-26.7
	C1723.4,741,1716.6,730.5,1716.8,718.9z"/>
<path d="M1729.8,630c-0.3-16.5,0.4-33,1.6-49.4l-0.8-84.7l-0.6-70.9c0-0.1,0-0.3,0-0.4c0.2-0.1,0.4-0.3,0.6-0.4
	c0-0.2-0.1-0.4-0.1-0.6c-0.5-4.2-0.4-8.5-0.4-12.8c-8.4,4.7-15.5,11.1-22.9,17.4c-9.7,8.2-19.6,16.1-29.6,23.9
	c-19.9,15.4-40.5,30-61.2,44.3c-42.1,28.9-85.2,56.3-127.2,85.4c-21.1,14.6-42.2,29.6-62.3,45.6c-8.4,6.7-13.9,17.1-5.8,26.5
	c3.3,3.8,7.7,6.2,12,8.5c6,3.2,11.9,6.6,17.8,10.1c45.7,27.2,87.1,61.2,130,92.5c24.8,18.1,50,35.7,75.8,52.3
	c21,13.5,47,30.4,72.4,19.6c0-34.6,1.1-69.3,1.4-103.9C1730.7,698.7,1729.9,664.4,1729.8,630C1729.9,630.1,1729.8,630.1,1729.8,630z
	 M1722.4,826.7c-20.4,7.5-43.4-9.3-59.7-19.8c-21.5-13.8-42.6-28.4-63.3-43.3c-40.8-29.3-80-61-122-88.6
	c-10.3-6.8-20.9-13.3-31.7-19.3c-4.6-2.6-10.1-4.7-14.2-8.2c-4.7-4.1-1.1-7.4,2.7-10.6c18.4-15.3,38.4-29,58.1-42.6
	c39.5-27.5,80-53.4,119.8-80.4c22.3-15.2,44.4-30.7,65.9-47c10.4-7.9,20.7-16,30.9-24.4c3.1-2.6,6.2-5.4,9.4-8.2l2.2,241.3l0.1,8.8
	c-0.2,0.9-0.5,1.9-0.7,2.8c-2.2,7.6-5.9,14.7-7.7,22.4c-1.7,7.3-1.5,15,0.7,22.2c2,7,5.3,13.5,7.4,20.5c2.4,8.1,2.4,16.5,2.4,24.9
	C1722.6,793.6,1722.5,810.2,1722.4,826.7z"/>
<path d="M1424.5,636.8c0.6,0.5,1.6-1.4,2.1-2.1c0.9-1.1,1.7-2.3,2.7-3.3c1.9-2.3,4.4-4.1,7.2-5.1c3.6-1.3,2.1-7.1-1.6-5.8
	c-5.2,1.8-8.8,5.2-12.1,9.4c-2.3,3-6.8,7.8-2.6,11.2C1423.2,643.5,1427.5,639.2,1424.5,636.8L1424.5,636.8z"/>
<path d="M1443,670.2c8.7,5.3,17.5,10.3,26.5,15l2.3-5.5l-2.1-1c-2.8-1.8-6.3,2.5-3.6,4.7c11,9.2,23.3,16.8,35.2,24.7
	c6.3,4.1,12.6,8.2,19,12.1c5.2,3.2,10.7,7.5,16.9,7.7c3.9,0.1,3.9-5.9,0-6c-6-0.2-13-6.3-17.9-9.3c-5.6-3.5-11.1-7.1-16.6-10.7
	c-11-7.3-22.3-14.3-32.5-22.8l-3.6,4.7c1.1,0.8,2.3,1.3,3.6,1.6c3.2,0.9,5.4-3.9,2.3-5.5c-9-4.7-17.9-9.7-26.5-15
	C1442.8,663,1439.7,668.2,1443,670.2L1443,670.2z"/>
<path d="M1677.4,799c9.8,9.6,19.4,19.3,28.8,29.3c2.7,2.8,6.9-1.4,4.2-4.2c-9.4-10-19-19.8-28.8-29.3
	C1678.8,792.1,1674.6,796.3,1677.4,799z"/>
<path d="M1729.8,856.2C1729.8,856.2,1729.8,856.2,1729.8,856.2C1729.8,856.2,1729.8,856.1,1729.8,856.2v-15.9
	c-0.6-0.8-0.9-1.7-0.9-2.9c0-1.6,0-3.2,0-4.8c-0.8-1.7-2.2-3-4.5-3.4c-5.3-1-11.6-0.3-17.1-0.3c-0.3,0-0.6,0-0.9,0
	c-0.7-1.3-1.4-2.6-2-3.9c-1.6-3.5-6.8-0.5-5.2,3l0,0c0.1,0.3,0.3,0.6,0.5,0.9c-4,0-7.9,0-11.9,0c-2.4,0-4.2,3.4-2.1,5.1l7.3,6.1
	c1.1,0.9,2.4,0.9,3.4,0.4c0.1,0.1,0.2,0.1,0.3,0.2c0.1,0.1,0.3,0.1,0.4,0.2c1.3,1,2.4,2.2,3.4,2.9l7.3,5.6c0.8,0.6,1.7,0.8,2.5,0.7
	c0.6,0.6,1.2,1.1,1.9,1.6c4.7,3.9,9.6,7.5,14.7,10.7c1,0.7,2,0.6,2.8,0.1V856.2z M1699.5,835.6c-0.3-0.2-0.5-0.4-0.8-0.6
	c1.5,0,2.9,0,4.4,0c0.7,1.2,1.5,2.4,2.3,3.6C1703.6,837.4,1701.6,836.4,1699.5,835.6z M1712.3,838c-0.7-1-1.5-1.9-2.2-3
	c1.7,0,3.3,0,5,0c0.1,0,0.1,0,0.2,0C1714.1,835.7,1713,836.7,1712.3,838z M1721.1,835.1c0.9-0.4,2.1-0.1,2.6,0.9
	c0.1,0.2,0.2,0.5,0.2,0.7c0,0.2,0,0.3,0,0.5C1723.2,836.3,1722.3,835.6,1721.1,835.1z"/>
<path class="st6" d="M1729.8,867.7c-0.2-0.7-0.2-1.4,0-2V864c-32.3-22.3-64.6-44.5-96.9-66.8c-54.8-37.8-109.8-75.2-165.1-112.4
	l-23-15.4c-7.3-4.9-16-9.3-22.5-15.3c-6.3-5.8-5.3-15.1-0.8-21.7c4.6-6.8,12.2-11,19.2-15c3.3-1.9,0.3-7.1-3-5.2l0,0
	c-11.1,6.3-23.3,14-25.6,27.8c-2.4,15,9.9,21.4,20.6,28.6c29.3,19.6,58.5,39.3,87.7,59.1c58.7,39.8,117.1,79.9,175.4,120.3
	l33.9,23.4V867.7z"/>
<path d="M1580.5,494.4c8.4-2.9,15.4-9.1,22.5-14.1c3.8-2.7,7.6-5.1,11.6-7.5c4.2-2.5,7.6-6.1,12-8.4c0.7-0.4,0.9-1.4,0.5-2.1
	c-0.3-0.4-0.7-0.7-1.3-0.7c-3.6,0-7.4,2.8-10.5,4.5c-4.9,2.8-9.6,5.8-14.2,9.1c-8.3,5.9-16.9,11.5-24.6,18.2
	c-1.5,1.3,0.7,3.4,2.1,2.1c7.1-6.1,14.9-11.3,22.5-16.7c3.6-2.5,7.1-5.1,10.8-7.4c3.5-2.1,9.7-6.8,13.8-6.9l-0.8-2.8
	c-4.2,2.2-7.3,5.4-11.2,7.9c-3.6,2.3-7.4,4.4-11,6.9c-7.4,5.2-14.6,11.8-23.2,14.8C1577.8,492.1,1578.7,495,1580.5,494.4
	L1580.5,494.4z"/>
<path d="M1437.5,595.9c1.2-0.2,2.3-0.8,3.1-1.7l3.1-2.9c1.4-1.3-0.7-3.4-2.1-2.1l-2.2,2.1l-1.1,1c-0.1,0.1-0.5,0.6-0.7,0.6
	C1435.6,592.9,1435.6,595.9,1437.5,595.9L1437.5,595.9z"/>
<path class="st1" d="M1438.2,610.3c0.1-0.6,0.1-1.3,0-1.9c-0.1-0.3-0.2-0.5-0.2-0.8c0,0-0.1-0.5-0.1-0.3l-2.2,0.9l0.3,0.2
	c0.7,0.4,1.6,0.2,2.1-0.5c0.4-0.7,0.2-1.6-0.5-2l-0.3-0.2c-0.7-0.4-1.7-0.1-2.1,0.6c-0.1,0.1-0.1,0.2-0.1,0.3
	c-0.2,0.7-0.1,1.5,0.2,2.1c0.1,0.2,0.1,0.4,0.2,0.6c0,0.4-0.1,0.7-0.2,1.1c0,0.8,0.7,1.5,1.5,1.5
	C1437.5,611.8,1438.2,611.2,1438.2,610.3L1438.2,610.3z"/>
<path class="st6" d="M1428.1,605.3c-3.8,3.4-8.3,6.2-12.4,9.2c-1.3,1-2.7,1.6-4.1,2.5c-0.8,0.5-1.4,1.2-2.1,1.7
	c0.4,1.3,0.3,1.6-0.3,0.9c-0.4-0.4-1-0.7-1.5-0.8c0.2,0.4,1.3-3.9,1.4-4.5c0.5-2.9,1.1-5.8,1.6-8.7c1.1-6,2.3-12.1,3.4-18.1
	c4.3-22.1,8.8-44.2,13.5-66.3c9.3-43.6,19.4-87,29.3-130.4c5.1-22.3,10.1-44.7,15-67c2.3-10.7,5.4-21.1,8.1-31.7
	c2.6-10.2,8.4-19.1,15.9-26.5c15.9-15.6,34.7-28.6,52.3-42.1c18.3-14,36.6-28,55-41.7c40.5-30.3,81.5-59.9,123-88.9
	c4.7-3.3,0.2-11.1-4.5-7.8c-39.4,27.5-78.4,55.7-116.9,84.4c-19.5,14.5-38.8,29.1-58.1,43.9c-18.8,14.5-38.8,28.3-56,44.7
	c-7.5,7.2-13.8,15.7-17.6,25.5c-1.8,4.8-2.8,9.8-4.2,14.7c-1.6,5.8-3.3,11.5-4.5,17.3c-5.2,24-10.6,48-16.1,71.9
	c-10.5,46.2-21.2,92.4-31.1,138.7c-5.6,26.6-10.9,53.2-15.9,79.9c-1,5.2-3.7,12-1,17c0.9,1.7,2.3,3.2,4.1,4.1
	c-1.8-1.1-0.1,0.2,0.2,0.3c0.9,0.5,2,0.8,3,0.9c4.3,0.3,8.9-3.4,12.3-5.6c5.1-3.4,10-7.1,14.6-11.1
	C1438.8,607.9,1432.5,601.5,1428.1,605.3z"/>
<path class="st15" d="M1427.3,603.4c8.2-0.4,15.1,5.9,15.5,14.1c0,0.4,0,0.8,0,1.2l285.5-201.3v-27.5L1427.3,603.4z"/>
</svg>
