<svg xmlns="http://www.w3.org/2000/svg" width="612" height="553" viewBox="0 0 612 553">
  <metadata><?xpacket begin="﻿" id="W5M0MpCehiHzreSzNTczkc9d"?>
<x:xmpmeta xmlns:x="adobe:ns:meta/" x:xmptk="Adobe XMP Core 5.6-c138 79.159824, 2016/09/14-01:09:01        ">
   <rdf:RDF xmlns:rdf="http://www.w3.org/1999/02/22-rdf-syntax-ns#">
      <rdf:Description rdf:about=""/>
   </rdf:RDF>
</x:xmpmeta>
                                                                                                    
                                                                                                    
                                                                                                    
                                                                                                    
                                                                                                    
                                                                                                    
                                                                                                    
                                                                                                    
                                                                                                    
                                                                                                    
                                                                                                    
                                                                                                    
                                                                                                    
                                                                                                    
                                                                                                    
                                                                                                    
                                                                                                    
                                                                                                    
                                                                                                    
                                                                                                    
                           
<?xpacket end="w"?></metadata>
<defs>
    <style>
      .cls-1 {
        fill: #03c;
        fill-rule: evenodd;
      }
    </style>
  </defs>
  <path id="Forma_1" data-name="Forma 1" class="cls-1" d="M217.863,242.829a9.767,9.767,0,0,0-13.387-3.389L90.71,307.152a9.753,9.753,0,0,0,0,16.767l113.765,67.712a9.76,9.76,0,1,0,10-16.767l-99.68-59.329,99.68-59.328A9.755,9.755,0,0,0,217.863,242.829ZM394.138,388.241a9.767,9.767,0,0,0,13.388,3.39l113.765-67.712a9.753,9.753,0,0,0,0-16.767L407.526,239.44a9.76,9.76,0,1,0-10,16.767l99.68,59.328-99.68,59.329A9.752,9.752,0,0,0,394.138,388.241ZM343.4,242.383l-91.01,135.424a9.764,9.764,0,0,0,16.216,10.88l91.009-135.424A9.763,9.763,0,0,0,343.4,242.383ZM602.234,0H9.766A9.762,9.762,0,0,0,0,9.758V543.242A9.762,9.762,0,0,0,9.766,553H602.234A9.762,9.762,0,0,0,612,543.242V439.147a9.766,9.766,0,0,0-19.532,0v94.336H19.532V97.588H592.468V400.112a9.766,9.766,0,0,0,19.532,0V9.758A9.762,9.762,0,0,0,602.234,0ZM19.532,19.517h361.34V78.07H19.532V19.517ZM400.4,78.07V19.517H592.468V78.07H400.4Zm96.358-39.686a10.41,10.41,0,1,0,10.417,10.41A10.425,10.425,0,0,0,496.762,38.384Zm-53.388,0a10.41,10.41,0,1,0,10.417,10.41A10.426,10.426,0,0,0,443.374,38.384Zm106.775,0a10.41,10.41,0,1,0,10.417,10.41A10.425,10.425,0,0,0,550.149,38.384Z"/>
</svg>
