<svg id="Layer_1" data-name="Layer 1" xmlns="http://www.w3.org/2000/svg" viewBox="0 0 944.32 944.39"><title>contact-me</title><path d="M382.31,117.67c-1.79,1.93-5.75,4.77-11.38,6.9-10.55,4-23.08,1.4-28.25-12.22-3.87-10.21-.21-23.27,14.46-28.83,5.91-2.25,9.72-2.17,11.3-2l0,2.73a23.63,23.63,0,0,0-10.19,1.62c-12.7,4.81-16.5,15.08-12.49,25.63,3.65,9.62,13,14.94,25.32,10.28a25.94,25.94,0,0,0,9.53-6Z" transform="translate(-46.89 -55.61)"/><path d="M381.1,76.13l4.84,17.64,25.23-6.94L406.33,69.2l2.92-.81,11.08,40.3-2.93.8-5.55-20.2-25.23,6.93,5.55,20.21-2.93.8L378.17,76.94Z" transform="translate(-46.89 -55.61)"/><path d="M447.68,82.33,429.39,85.7l3.31,17.93,20.37-3.76.46,2.5-23.35,4.31-7.59-41.09,22.31-4.12.46,2.5L426,67.54l2.9,15.66,18.29-3.37Z" transform="translate(-46.89 -55.61)"/><path d="M492.27,96.4c-2.23,1.41-6.79,3.12-12.77,3.73-11.23,1.15-22.66-4.6-24.14-19.09-1.11-10.86,5.8-22.53,21.4-24.13,6.3-.64,10,.42,11.44,1l-.73,2.63a23.83,23.83,0,0,0-10.26-1.07C463.7,60.8,457.38,69.74,458.53,81c1.05,10.24,8.74,17.81,21.81,16.47a26,26,0,0,0,10.76-3.34Z" transform="translate(-46.89 -55.61)"/><path d="M498.41,56.15l3-.06.41,21.38h.25a52.7,52.7,0,0,1,3.7-4.29l16.34-17.49,3.84-.08L508.73,73.74l19.93,23.61-3.78.07L506.66,75.7l-4.74,4.93.34,17.23-3,.06Z" transform="translate(-46.89 -55.61)"/><path d="M587.18,80.78c-1.49,14.37-12.53,21-23.38,19.88-11.84-1.23-19.74-11-18.48-23.11,1.36-13.07,11.54-21.11,23.38-19.88C580.91,58.94,588.42,68.82,587.18,80.78Zm-38.7-3c-1,9.81,4.78,19.33,15.7,20.46S582.86,91.74,584,80.7c.94-9-3.91-19.35-15.69-20.58S549.54,67.52,548.48,77.75Z" transform="translate(-46.89 -55.61)"/><path d="M603.13,63.12l-4.92,23.61c-2.31,11.11,2.29,16.7,9.09,18.11,7.58,1.58,14-2,16.22-12.83l4.93-23.61,3,.62-4.87,23.37c-2.74,13.17-11.27,16.71-19.95,14.9-8-1.65-14.16-7.76-11.37-21.11l4.93-23.68Z" transform="translate(-46.89 -55.61)"/><path d="M652.32,77.57l-14.91-4.46.73-2.44,32.73,9.79-.73,2.43-14.91-4.45L644,116l-2.91-.87Z" transform="translate(-46.89 -55.61)"/><path d="M718.89,124.22c2.14-5.84,4.92-13.42,6.74-17.5l-.11,0c-3.35,3.39-7.08,7-12.1,11.71l-18.14,16.88-2.1-.94.93-24.24c.28-7,.55-12.32,1.13-17l-.11,0c-2.15,4.34-5.54,11.17-8.86,17.23l-9.16,16.82-2.72-1.22,20.12-36.77,3.17,1.41-1,26.86c-.2,5.61-.5,10.23-.91,14.19l.11.05c2.46-2.77,5.71-5.94,10.12-10l19.82-18.5,3.28,1.46L714.75,144,712,142.75Z" transform="translate(-46.89 -55.61)"/><path d="M730.69,153.19l8.84-15.51-.85-28,3,1.72.28,15.15c.06,3.89.18,6.81.08,10.11l.11.06c2.51-1.64,5.45-3.17,8.85-5l13.51-7.29,3,1.72L742.11,139.3l-8.78,15.4Z" transform="translate(-46.89 -55.61)"/><path d="M766.64,175.66l15.77-40.47,2.47,1.87-9.19,23.14c-2,5.15-4,10.11-5.44,13.45l.1.08c2.65-2.27,7.09-5.37,11.82-8.63l20.61-14.5,2.37,1.8-9,23.16c-1.93,4.91-4,10.06-5.63,13.39l.1.08c3.15-2.52,7.07-5.23,11.78-8.58L823,165.91l2.52,1.9-36.24,25L786.9,191,796,167.83a134,134,0,0,1,5.82-13.55l-.1-.07A129.64,129.64,0,0,1,789.75,163L769,177.45Z" transform="translate(-46.89 -55.61)"/><path d="M846.5,216.06c-10,10.43-22.78,8.91-30.66,1.37-8.6-8.24-8.87-20.77-.43-29.59,9.09-9.5,22.07-9.61,30.67-1.37C855,195,854.82,207.37,846.5,216.06Zm-28.72-26.13c-6.81,7.12-8.06,18.2-.14,25.79s18.73,6.35,26.41-1.67c6.26-6.54,8.78-17.69.22-25.88S824.9,182.5,817.78,189.93Z" transform="translate(-46.89 -55.61)"/><path d="M867.19,209.75a60,60,0,0,1,7.38,7.06c3.9,4.49,5.41,8.11,5.21,11.66a10.27,10.27,0,0,1-3.57,7.05c-4.16,3.62-9.33,3.43-13.84.62l-.09.08c1.35,3.34.43,7.1-2,10.58-3.94,5.48-5.85,8.29-6.56,10.22l-2.11-2.43c.44-1.29,2.58-4.39,5.74-8.7,3.64-5,4-8.86.45-13.37l-5.21-6-14.45,12.58-2-2.29Zm-12.78,15.16L859.7,231c4.52,5.19,10.08,6.1,14.15,2.56,5-4.4,3.2-10.1-1.19-15.16a30.68,30.68,0,0,0-5.16-4.88Z" transform="translate(-46.89 -55.61)"/><path d="M891.15,237.21l1.81,2.44L875.8,252.42l.15.2a51,51,0,0,1,5.64.52l23.74,3.13,2.29,3.08-24.79-3.5-7.62,29.94-2.26-3L880,255.3l-6.77-1L859.44,264.6l-1.82-2.44Z" transform="translate(-46.89 -55.61)"/><path d="M922.31,319.62,920,320.88l-7.05-13.1,2.34-1.27Z" transform="translate(-46.89 -55.61)"/><path d="M929.65,392.48c-1.93-1.79-4.75-5.77-6.87-11.4-4-10.56-1.32-23.08,12.32-28.21,10.22-3.83,23.27-.13,28.79,14.56,2.22,5.92,2.13,9.73,2,11.3l-2.73,0a23.58,23.58,0,0,0-1.58-10.2c-4.77-12.72-15-16.55-25.59-12.58-9.63,3.62-15,13-10.37,25.29a26.07,26.07,0,0,0,6,9.55Z" transform="translate(-46.89 -55.61)"/><path d="M971.18,391.41l-17.65,4.79,6.84,25.25L978,416.67l.79,2.93-40.33,10.93-.8-2.93,20.23-5.48-6.85-25.26-20.22,5.49-.8-2.94,40.34-10.93Z" transform="translate(-46.89 -55.61)"/><path d="M964.75,458l-3.32-18.3-17.93,3.25,3.69,20.37-2.5.45-4.23-23.36,41.11-7.45,4,22.33-2.5.45-3.51-19.33-15.68,2.83,3.32,18.31Z" transform="translate(-46.89 -55.61)"/><path d="M950.51,502.51c-1.4-2.23-3.09-6.79-3.68-12.78-1.11-11.23,4.68-22.64,19.19-24.07,10.86-1.07,22.51,5.89,24,21.5.62,6.29-.45,9.95-1,11.43l-2.63-.73a23.81,23.81,0,0,0,1.11-10.27c-1.33-13.51-10.24-19.86-21.47-18.76-10.24,1-17.84,8.67-16.55,21.76a25.89,25.89,0,0,0,3.3,10.76Z" transform="translate(-46.89 -55.61)"/><path d="M990.76,508.83l0,3-21.39.35v.25a52.48,52.48,0,0,1,4.28,3.71l17.44,16.4.07,3.84L973.13,519.1,949.45,539l-.06-3.78L971.17,517l-4.91-4.76-17.24.28,0-3Z" transform="translate(-46.89 -55.61)"/><path d="M965.8,597.51c-14.36-1.55-21-12.61-19.8-23.46,1.28-11.84,11-19.71,23.19-18.4,13.07,1.41,21.07,11.63,19.8,23.46C987.67,591.32,977.76,598.79,965.8,597.51Zm3.17-38.7c-9.8-1.06-19.34,4.71-20.51,15.63s6.4,18.71,17.43,19.9c9,1,19.37-3.84,20.64-15.62S979.2,559.91,969,558.81Z" transform="translate(-46.89 -55.61)"/><path d="M983.41,613.51l-23.6-5c-11.09-2.35-16.69,2.23-18.13,9-1.61,7.58,2,14,12.77,16.27l23.6,5-.64,3-23.35-4.95c-13.16-2.79-16.67-11.33-14.83-20,1.68-7.94,7.81-14.12,21.15-11.29l23.66,5Z" transform="translate(-46.89 -55.61)"/><path d="M968.8,662.63l4.51-14.9,2.43.74-9.9,32.69-2.44-.73,4.51-14.9-37.56-11.37.88-2.91Z" transform="translate(-46.89 -55.61)"/><path d="M921.91,729c5.82,2.16,13.4,5,17.47,6.8l0-.11c-3.38-3.36-7-7.11-11.66-12.14L911,705.38l.95-2.09,24.23,1c7,.31,12.32.6,17,1.19l0-.11c-4.33-2.16-11.15-5.58-17.2-8.92l-16.79-9.22,1.23-2.71,36.7,20.25-1.43,3.16-26.84-1.1c-5.62-.22-10.23-.54-14.19-1l-.05.12c2.76,2.47,5.91,5.73,10,10.15L943,736l-1.48,3.28-39.31-14.48,1.22-2.72Z" transform="translate(-46.89 -55.61)"/><path d="M892.89,740.74l15.47,8.9,28-.75-1.73,3-15.15.22c-3.89,0-6.81.16-10.11,0l-.06.11c1.63,2.51,3.15,5.46,5,8.87l7.23,13.54-1.73,3-13.09-25.48-15.37-8.84Z" transform="translate(-46.89 -55.61)"/><path d="M870.31,776.58l40.41,15.91L908.84,795l-23.1-9.27c-5.14-2.05-10.1-4-13.43-5.49l-.08.1c2.26,2.66,5.34,7.11,8.59,11.85l14.42,20.66-1.81,2.36L870.31,806c-4.91-1.95-10-4-13.38-5.67l-.07.1c2.5,3.15,5.2,7.08,8.54,11.8L879.86,833,878,835.48,853.1,799.16l1.8-2.37L878,805.93a131.27,131.27,0,0,1,13.53,5.87l.08-.1a128.09,128.09,0,0,1-8.74-12L868.51,779Z" transform="translate(-46.89 -55.61)"/><path d="M829.64,856.3c-10.4-10-8.84-22.81-1.27-30.67,8.27-8.56,20.8-8.79,29.59-.32,9.47,9.12,9.53,22.1,1.27,30.67C850.71,864.82,838.29,864.65,829.64,856.3Zm26.22-28.63c-7.1-6.84-18.17-8.13-25.79-.23s-6.41,18.71,1.58,26.41c6.52,6.29,17.66,8.85,25.88.32S863.27,834.82,855.86,827.67Z" transform="translate(-46.89 -55.61)"/><path d="M835.83,877.05a58,58,0,0,1-7.08,7.35c-4.51,3.89-8.13,5.39-11.68,5.17a10.22,10.22,0,0,1-7-3.59c-3.61-4.17-3.41-9.35-.57-13.84l-.08-.1c-3.35,1.34-7.11.41-10.58-2.09-5.47-4-8.27-5.88-10.2-6.59l2.44-2.11c1.29.45,4.38,2.61,8.68,5.78,5,3.66,8.85,4,13.37.49l6-5.18-12.53-14.5,2.3-2Zm-15.1-12.84-6.1,5.27c-5.21,4.5-6.14,10.06-2.62,14.14,4.38,5.07,10.09,3.24,15.16-1.13a30.54,30.54,0,0,0,4.91-5.14Z" transform="translate(-46.89 -55.61)"/><path d="M808.3,900.89l-2.44,1.8-12.71-17.2-.2.15a53.27,53.27,0,0,1-.54,5.64L789.2,915l-3.09,2.28,3.59-24.77-29.91-7.73,3-2.25,27.42,7.18,1-6.76L781,869.08l2.44-1.8Z" transform="translate(-46.89 -55.61)"/><path d="M733.62,927.65l-1.3-2.32,13-7.27,1.3,2.33Z" transform="translate(-46.89 -55.61)"/><path d="M660.92,936.15c1.76-2,5.69-4.84,11.28-7,10.5-4.14,23.06-1.7,28.4,11.86,4,10.15.51,23.26-14.08,29-5.89,2.32-9.7,2.29-11.27,2.18v-2.73a23.81,23.81,0,0,0,10.17-1.75c12.63-5,16.3-15.29,12.16-25.78-3.77-9.58-13.22-14.78-25.45-10a25.92,25.92,0,0,0-9.45,6.12Z" transform="translate(-46.89 -55.61)"/><path d="M662.64,977.66l-5.07-17.57-25.14,7.25,5.07,17.57-2.92.85L623,945.61l2.92-.85,5.81,20.14,25.13-7.25-5.8-20.14,2.92-.84,11.58,40.15Z" transform="translate(-46.89 -55.61)"/><path d="M596,972.31l18.25-3.61-3.54-17.88-20.31,4-.49-2.49,23.29-4.6,8.11,41L599,993.13l-.49-2.49,19.28-3.81-3.09-15.64-18.24,3.61Z" transform="translate(-46.89 -55.61)"/><path d="M551.21,958.8c2.21-1.44,6.75-3.21,12.72-3.9,11.21-1.28,22.71,4.33,24.37,18.8,1.25,10.84-5.52,22.6-21.1,24.39-6.28.72-10-.29-11.45-.81l.69-2.64a23.79,23.79,0,0,0,10.28,1c13.49-1.55,19.7-10.56,18.41-21.77-1.17-10.23-9-17.7-22-16.2a25.83,25.83,0,0,0-10.71,3.47Z" transform="translate(-46.89 -55.61)"/><path d="M545.57,999.12l-3,.1-.68-21.38h-.24a51.67,51.67,0,0,1-3.65,4.33l-16.12,17.7L518,1000l17-18.34-20.22-23.37,3.78-.12,18.48,21.5,4.68-5-.54-17.23,3-.09Z" transform="translate(-46.89 -55.61)"/><path d="M456.49,975.58c1.31-14.39,12.27-21.17,23.13-20.17,11.85,1.08,19.88,10.72,18.76,22.88-1.19,13.09-11.28,21.25-23.13,20.17C463,997.34,455.39,987.56,456.49,975.58Zm38.73,2.55c.9-9.82-5-19.26-16-20.26s-18.6,6.7-19.61,17.75c-.83,9,4.15,19.3,15.94,20.38S494.29,988.37,495.22,978.13Z" transform="translate(-46.89 -55.61)"/><path d="M440.75,993.44l4.63-23.68c2.17-11.13-2.5-16.66-9.31-18-7.61-1.48-13.95,2.21-16.07,13l-4.62,23.67-3-.58L417,964.47c2.58-13.21,11.07-16.86,19.77-15.16,8,1.56,14.25,7.59,11.63,21L443.74,994Z" transform="translate(-46.89 -55.61)"/><path d="M391.42,979.61l15,4.27-.7,2.45L372.83,977l.7-2.44,15,4.27L399.26,941l2.93.83Z" transform="translate(-46.89 -55.61)"/><path d="M324.24,933.79c-2.06,5.87-4.75,13.49-6.52,17.58l.12,0c3.3-3.43,7-7.11,12-11.85l17.93-17.11,2.11.91-.63,24.26c-.19,7-.39,12.32-.92,17l.12,0c2.09-4.36,5.4-11.24,8.65-17.34L366,930.36l2.73,1.18-19.66,37-3.19-1.38.68-26.87c.13-5.62.37-10.24.74-14.21l-.12,0c-2.42,2.8-5.63,6-10,10.13L317.59,955l-3.3-1.43L328.14,914l2.74,1.18Z" transform="translate(-46.89 -55.61)"/><path d="M312.1,905l-8.65,15.61,1.2,28-3-1.69-.47-15.14c-.11-3.89-.27-6.81-.21-10.11l-.11-.06c-2.48,1.67-5.41,3.24-8.79,5.12l-13.41,7.46-3-1.69L300.85,919l8.59-15.51Z" transform="translate(-46.89 -55.61)"/><path d="M275.89,883l-15.28,40.66-2.49-1.84,8.9-23.24c2-5.18,3.87-10.17,5.27-13.53l-.1-.07c-2.62,2.3-7,5.45-11.71,8.77l-20.43,14.75-2.39-1.77,8.77-23.27c1.87-4.93,3.83-10.11,5.46-13.46l-.1-.07c-3.12,2.55-7,5.31-11.68,8.72l-20.47,14.8-2.54-1.88L253,866.11l2.4,1.76-8.77,23.28A130.46,130.46,0,0,1,241,904.77l.1.07a128.86,128.86,0,0,1,11.82-8.92l20.57-14.72Z" transform="translate(-46.89 -55.61)"/><path d="M195.52,843.54c9.86-10.55,22.67-9.19,30.64-1.74,8.7,8.13,9.13,20.66.79,29.58-9,9.61-21.95,9.87-30.65,1.75C187.33,864.75,187.3,852.33,195.52,843.54Zm29,25.78c6.73-7.21,7.85-18.3-.17-25.79s-18.81-6.12-26.38,2c-6.18,6.62-8.57,17.8.09,25.88S217.53,876.84,224.55,869.32Z" transform="translate(-46.89 -55.61)"/><path d="M174.89,850.1a58.2,58.2,0,0,1-7.46-7c-4-4.44-5.52-8-5.36-11.59a10.24,10.24,0,0,1,3.48-7.09c4.12-3.67,9.29-3.55,13.83-.79l.09-.08c-1.39-3.33-.51-7.1,1.93-10.61,3.87-5.53,5.74-8.37,6.42-10.3l2.15,2.4c-.42,1.3-2.54,4.43-5.64,8.77-3.58,5-3.84,8.92-.28,13.38l5.29,5.92,14.29-12.75,2,2.26Zm12.6-15.31-5.37-6c-4.58-5.14-10.15-6-14.18-2.39-5,4.46-3.08,10.14,1.38,15.14a30.84,30.84,0,0,0,5.21,4.82Z" transform="translate(-46.89 -55.61)"/><path d="M150.62,823l-1.84-2.42,17-13-.15-.19a54.44,54.44,0,0,1-5.65-.45l-23.77-2.83L133.88,801l24.82,3.2,7.26-30,2.29,3-6.74,27.54,6.78.9L182,795.18l1.84,2.42Z" transform="translate(-46.89 -55.61)"/><path d="M115.35,735.06l2.35-1.26,7,13.12-2.35,1.26Z" transform="translate(-46.89 -55.61)"/><path d="M108.17,662.21c1.93,1.8,4.74,5.78,6.84,11.42,3.95,10.57,1.28,23.08-12.38,28.18-10.22,3.81-23.26.08-28.75-14.62-2.21-5.92-2.11-9.73-2-11.31l2.73,0a23.75,23.75,0,0,0,1.56,10.21c4.75,12.72,15,16.57,25.56,12.63,9.64-3.6,15-13,10.42-25.27a25.83,25.83,0,0,0-6-9.56Z" transform="translate(-46.89 -55.61)"/><path d="M66.64,663.19l17.66-4.75-6.79-25.27-17.67,4.75L59.06,635l40.35-10.85.79,2.94L80,632.51l6.8,25.27L107,652.33l.79,2.94L67.43,666.12Z" transform="translate(-46.89 -55.61)"/><path d="M73.2,596.63l3.28,18.31,18-3.21-3.65-20.39,2.5-.45,4.18,23.38-41.13,7.36-4-22.34,2.5-.44,3.46,19.34L74,615.39,70.7,597.08Z" transform="translate(-46.89 -55.61)"/><path d="M87.53,552.13c1.4,2.23,3.09,6.8,3.67,12.79,1.08,11.23-4.73,22.63-19.24,24C61.1,590,49.47,583,48,567.41c-.6-6.3.48-9.95,1-11.44l2.62.75A23.73,23.73,0,0,0,50.48,567c1.3,13.51,10.2,19.88,21.43,18.79,10.24-1,17.85-8.63,16.59-21.71a26.08,26.08,0,0,0-3.28-10.77Z" transform="translate(-46.89 -55.61)"/><path d="M47.33,545.82l0-3,21.39-.35v-.24a54.23,54.23,0,0,1-4.28-3.72L47,522.07l-.06-3.84L65,535.55l23.68-19.86.06,3.78L66.92,537.62l4.91,4.76,17.24-.28.05,3Z" transform="translate(-46.89 -55.61)"/><path d="M72.46,457.08c14.36,1.58,20.94,12.65,19.75,23.5C90.9,492.41,81.12,500.26,69,498.92c-13.06-1.43-21.05-11.67-19.75-23.5C50.58,463.22,60.5,455.76,72.46,457.08ZM69.2,495.77c9.8,1.07,19.35-4.68,20.55-15.58s-6.36-18.73-17.39-19.94c-9-1-19.38,3.79-20.67,15.56S59,494.64,69.2,495.77Z" transform="translate(-46.89 -55.61)"/><path d="M54.88,441.05l23.59,5.06c11.09,2.38,16.7-2.19,18.16-9,1.62-7.58-1.95-14-12.74-16.3l-23.58-5.06.63-3,23.34,5c13.16,2.82,16.65,11.37,14.79,20-1.7,7.94-7.84,14.1-21.18,11.24L54.25,444Z" transform="translate(-46.89 -55.61)"/><path d="M69.61,392l-4.55,14.89-2.43-.75,10-32.67,2.44.74-4.55,14.89L108,400.51l-.89,2.91Z" transform="translate(-46.89 -55.61)"/><path d="M116.64,325.64c-5.83-2.17-13.4-5-17.46-6.84l-.05.11c3.37,3.37,7,7.12,11.63,12.17l16.78,18.24-1,2.09-24.23-1.07c-7-.32-12.32-.62-17-1.22l0,.11c4.33,2.17,11.14,5.6,17.18,9l16.77,9.25-1.23,2.71L81.41,349.82l1.44-3.16,26.85,1.16c5.61.23,10.23.56,14.19,1l0-.11c-2.76-2.48-5.91-5.74-10-10.17L95.59,318.6l1.49-3.27,39.28,14.56-1.23,2.71Z" transform="translate(-46.89 -55.61)"/><path d="M145.67,314l-15.46-8.94-28,.7,1.74-3,15.15-.2c3.89,0,6.81-.14,10.11,0l.06-.11c-1.62-2.52-3.14-5.47-5-8.88L117.06,280l1.74-3,13,25.51,15.35,8.88Z" transform="translate(-46.89 -55.61)"/><path d="M168.33,278.22l-40.37-16,1.88-2.46,23.08,9.31c5.14,2.06,10.09,4.06,13.43,5.52l.07-.1c-2.25-2.66-5.32-7.12-8.56-11.86l-14.37-20.69,1.8-2.37,23.11,9.19c4.91,2,10,4,13.36,5.7l.08-.1c-2.5-3.16-5.19-7.1-8.51-11.83L158.9,221.8l1.92-2.51,24.78,36.38L183.79,258l-23.11-9.19a132,132,0,0,1-13.52-5.9l-.08.1a129.84,129.84,0,0,1,8.71,12l14.35,20.82Z" transform="translate(-46.89 -55.61)"/><path d="M209.18,198.58c10.38,10,8.78,22.84,1.19,30.67-8.27,8.56-20.81,8.76-29.58.26-9.45-9.14-9.48-22.11-1.2-30.67C188.13,190,200.54,190.22,209.18,198.58ZM182.9,227.16c7.08,6.85,18.15,8.16,25.78.28s6.45-18.69-1.52-26.41c-6.51-6.3-17.64-8.88-25.88-.37S175.5,220,182.9,227.16Z" transform="translate(-46.89 -55.61)"/><path d="M203,177.83a58.79,58.79,0,0,1,7.1-7.34c4.51-3.88,8.14-5.37,11.69-5.15a10.26,10.26,0,0,1,7,3.61c3.6,4.18,3.39,9.35.55,13.84l.08.1c3.35-1.33,7.1-.39,10.57,2.11,5.46,4,8.26,5.89,10.18,6.61l-2.44,2.1c-1.29-.44-4.38-2.61-8.67-5.79-4.95-3.67-8.84-4-13.37-.52l-6,5.18,12.49,14.52-2.3,2ZM218.1,190.7l6.11-5.26c5.22-4.49,6.16-10.05,2.64-14.13-4.36-5.08-10.08-3.27-15.16,1.1a30.21,30.21,0,0,0-4.91,5.13Z" transform="translate(-46.89 -55.61)"/><path d="M230.61,154l2.45-1.8,12.67,17.23.2-.14a50.4,50.4,0,0,1,.55-5.64L249.74,140l3.1-2.28-3.65,24.76,29.9,7.8-3,2.24-27.41-7.24-1,6.76,10.21,13.88-2.44,1.8Z" transform="translate(-46.89 -55.61)"/><path d="M305.36,127.44l1.29,2.33-13,7.23-1.3-2.33Z" transform="translate(-46.89 -55.61)"/><text x="-46.89" y="-55.61"/><path d="M519.05,349.42c-104.65,0-189.46,84.82-189.46,189.47A189.44,189.44,0,0,0,519.05,728.35c104.66,0,189.47-84.81,189.47-189.46A189.45,189.45,0,0,0,519.05,349.42ZM386.43,482.05a56.84,56.84,0,0,1,113.68,0,18.95,18.95,0,1,1-37.9,0,18.95,18.95,0,1,0-37.89,0,18.95,18.95,0,1,1-37.89,0ZM632.36,607.51a132.3,132.3,0,0,1-226.61,0,7.64,7.64,0,0,1,6.34-11.78H626A7.65,7.65,0,0,1,632.36,607.51ZM632.73,501a19,19,0,0,1-18.94-18.95,18.95,18.95,0,1,0-37.9,0,18.95,18.95,0,1,1-37.89,0,56.84,56.84,0,1,1,113.68,0A19,19,0,0,1,632.73,501Z" transform="translate(-46.89 -55.61)"/></svg>