<svg xmlns="http://www.w3.org/2000/svg" width="512" height="496" viewBox="0 0 512 496">
  <metadata><?xpacket begin="﻿" id="W5M0MpCehiHzreSzNTczkc9d"?>
<x:xmpmeta xmlns:x="adobe:ns:meta/" x:xmptk="Adobe XMP Core 5.6-c138 79.159824, 2016/09/14-01:09:01        ">
   <rdf:RDF xmlns:rdf="http://www.w3.org/1999/02/22-rdf-syntax-ns#">
      <rdf:Description rdf:about=""/>
   </rdf:RDF>
</x:xmpmeta>
                                                                                                    
                                                                                                    
                                                                                                    
                                                                                                    
                                                                                                    
                                                                                                    
                                                                                                    
                                                                                                    
                                                                                                    
                                                                                                    
                                                                                                    
                                                                                                    
                                                                                                    
                                                                                                    
                                                                                                    
                                                                                                    
                                                                                                    
                                                                                                    
                                                                                                    
                                                                                                    
                           
<?xpacket end="w"?></metadata>
<defs>
    <style>
      .cls-1 {
        fill: #03c;
        fill-rule: evenodd;
      }
    </style>
  </defs>
  <path id="Forma_1" data-name="Forma 1" class="cls-1" d="M488,0H24A24,24,0,0,0,0,24V376a8,8,0,0,0,8,8H190.24l-12.8,64H160a8,8,0,0,0-8,8v24H136v16H376V480H360V456a8,8,0,0,0-8-8H334.547l-12.8-64H504a8,8,0,0,0,8-8V24A24,24,0,0,0,488,0ZM328,464h16v16H168V464H328ZM193.76,448l12.788-64H305.44l12.8,64H193.76ZM496,368H16V296H496v72ZM384,72H320a8,8,0,0,0-8,8v72h16V88h48v32H344v16h32v40H344v16h32v40H344v16h32v32H328V216H312v64H280V240c0-32.648,39.648-39.824,41.312-40.112a8,8,0,0,0,5.544-12l-72-120a8.312,8.312,0,0,0-13.712,0l-72,120a8,8,0,0,0,5.52,12C176.352,200.176,216,207.352,216,240v40H184V216H168v64h-8V136h8v16h16V128a7.908,7.908,0,0,0-.648-3.152l-24-56a8,8,0,0,0-14.7,0l-24,56A7.908,7.908,0,0,0,120,128V280H56V56H456V280H392V80A8,8,0,0,0,384,72ZM232,256v-8h32v8H232Zm32,16v8H232v-8h32Zm-32.584-40c-3.832-25.44-25.616-39.2-43.04-45.08L240,100.885V168h16V100.885l51.624,86.035c-17.44,5.84-39.208,19.64-43.04,45.08H231.416Zm-91.3-112L152,92.272,163.885,120h-23.77ZM144,136V280h-8V136h8ZM496,280H472V48a8,8,0,0,0-8-8H48a8,8,0,0,0-8,8V280H16V24a8,8,0,0,1,8-8H488a8,8,0,0,1,8,8V280ZM256,304a24,24,0,1,0,24,24A24,24,0,0,0,256,304Zm0,32a8,8,0,1,1,8-8A8,8,0,0,1,256,336Z"/>
</svg>
