<svg xmlns="http://www.w3.org/2000/svg" width="512" height="512" viewBox="0 0 512 512">
  <metadata><?xpacket begin="﻿" id="W5M0MpCehiHzreSzNTczkc9d"?>
<x:xmpmeta xmlns:x="adobe:ns:meta/" x:xmptk="Adobe XMP Core 5.6-c138 79.159824, 2016/09/14-01:09:01        ">
   <rdf:RDF xmlns:rdf="http://www.w3.org/1999/02/22-rdf-syntax-ns#">
      <rdf:Description rdf:about=""/>
   </rdf:RDF>
</x:xmpmeta>
                                                                                                    
                                                                                                    
                                                                                                    
                                                                                                    
                                                                                                    
                                                                                                    
                                                                                                    
                                                                                                    
                                                                                                    
                                                                                                    
                                                                                                    
                                                                                                    
                                                                                                    
                                                                                                    
                                                                                                    
                                                                                                    
                                                                                                    
                                                                                                    
                                                                                                    
                                                                                                    
                           
<?xpacket end="w"?></metadata>
<defs>
    <style>
      .cls-1 {
        fill: #03c;
        fill-rule: evenodd;
      }
    </style>
  </defs>
  <path class="cls-1" d="M400.794,399.294c-13.654,12.808-13.654,34.153,0,47.814a32.984,32.984,0,0,0,47.788,0c13.654-12.807,13.654-34.152,0-47.814C435.783,385.634,414.448,385.634,400.794,399.294Zm35.842,36.714A16.9,16.9,0,0,1,412.742,412.1a16.493,16.493,0,0,1,23.895,0A16.513,16.513,0,0,1,436.636,436.008Zm69.976-26.468L353,255.853,413.6,195.232h0l35.84-35.859h0l52.054-52.082a37.633,37.633,0,0,0,0-52.937L457.97,10.808a37.076,37.076,0,0,0-52.909,0L353.005,62.89,317.164,98.75l-60.591,60.622L104.672,7.393C95.284-2,78.217-2,68.83,7.393L8.241,68.014C-2,77.406-2,93.629,8.241,103.874L26.162,121.8h0L74.8,170.472h0l47.789,47.813h0l37.547,37.567L23.148,392.917c-2.554,1.127-3.931,3.432-4.667,6.377L0.56,501.752q0,5.122,2.56,7.685A7.742,7.742,0,0,0,9.094,512H10.8l98.45-18.21a8.693,8.693,0,0,0,2.248.28c2.56,0,5.12-.853,5.973-2.561l139.1-139.172,11.094,11.1h0l23.893,23.906h0L410.181,506.023A19.984,19.984,0,0,0,424.689,512c5.12,0,10.241-1.708,13.654-5.976l68.27-68.306A20.109,20.109,0,0,0,506.612,409.54ZM111.5,472.723l-29.86-29.875L365.37,159.79l29.451,29.466ZM417.008,22.761c7.68-7.684,21.334-7.684,29.014,0l43.523,43.545c7.68,7.684,7.68,21.345,0,29.029l-46.083,46.107L370.925,68.868Zm-58.029,58.06,36.269,36.288L431.516,153.4l-23.9,23.907-72.536-72.574ZM164.835,236.642l18.348-18.357a8.451,8.451,0,1,0-11.948-11.954l-18.348,18.358-12.374-12.38,29.869-29.884a8.451,8.451,0,1,0-11.948-11.954l-29.868,29.884L116.618,188.4l17.921-17.93a8.45,8.45,0,0,0-11.947-11.954l-17.921,17.93L92.723,164.494l29.869-29.884a8.451,8.451,0,0,0-11.948-11.954L80.777,152.542l-12.8-12.807L85.9,121.8A8.45,8.45,0,1,0,73.95,109.851l-17.921,17.93L44.082,115.827,73.95,85.943A8.45,8.45,0,1,0,62,73.989L32.135,103.874,20.187,91.921a8.257,8.257,0,0,1,0-11.954l60.59-60.62a7.744,7.744,0,0,1,5.973-2.561,9.212,9.212,0,0,1,5.973,2.561l151.9,151.979L172.089,243.9Zm158.3-119.107L353,147.41,69.266,430.468,39.815,401ZM32.988,418.078l28,28.012a8.88,8.88,0,0,0,1.871,2.725L93.7,479.678,20.188,492.359Zm461.678,7.684L426.4,494.068a3.874,3.874,0,0,1-4.267,0L333.8,405.7l30.3-30.31a8.451,8.451,0,1,0-11.948-11.954l-30.294,30.31-12.374-12.38,17.921-17.93a8.45,8.45,0,1,0-11.947-11.954l-17.921,17.931-11.948-11.954,29.869-29.884a8.451,8.451,0,0,0-11.948-11.954L273.64,345.5l-5.12-5.123,72.537-72.574L494.665,421.494A3.877,3.877,0,0,1,494.666,425.762Z"/>
</svg>
