<?xml version="1.0" encoding="utf-8"?>
<!-- Generator: Adobe Illustrator 18.0.0, SVG Export Plug-In . SVG Version: 6.00 Build 0)  -->
<!DOCTYPE svg PUBLIC "-//W3C//DTD SVG 1.1//EN" "http://www.w3.org/Graphics/SVG/1.1/DTD/svg11.dtd">
<svg version="1.1" id="Layer_1" xmlns:sketch="http://www.bohemiancoding.com/sketch/ns"
	 xmlns="http://www.w3.org/2000/svg" xmlns:xlink="http://www.w3.org/1999/xlink" x="0px" y="0px" viewBox="0.5 0.5 500 500"
	 enable-background="new 0.5 0.5 500 500" xml:space="preserve">
<title>Lovestudy</title>
<desc>Created with Sketch.</desc>
<g id="colored" sketch:type="MSPage">
	<g id="Lovestudy" transform="translate(27.000000, 57.000000)" sketch:type="MSLayerGroup">
		
			<rect id="Rectangle-40" x="25" sketch:type="MSShapeGroup" fill="#DBCF56" stroke="#314E55" stroke-width="16.68" stroke-linecap="square" stroke-linejoin="round" width="399.7" height="275">
		</rect>
		
			<path id="Line" sketch:type="MSShapeGroup" fill="none" stroke="#314E55" stroke-width="16.68" stroke-linecap="square" stroke-linejoin="round" d="
			M224.8,275v58.9"/>
		
			<path id="Line_1_" sketch:type="MSShapeGroup" fill="none" stroke="#314E55" stroke-width="16.68" stroke-linecap="square" stroke-linejoin="round" d="
			M141.6,283.3L91.6,400"/>
		
			<path id="Line-Copy-17" sketch:type="MSShapeGroup" fill="none" stroke="#314E55" stroke-width="16.68" stroke-linecap="square" stroke-linejoin="round" d="
			M308.1,283.3l50,116.7"/>
		
			<path id="Line_2_" sketch:type="MSShapeGroup" fill="none" stroke="#314E55" stroke-width="16.68" stroke-linecap="square" stroke-linejoin="round" d="
			M0,275h449.7"/>
		
			<path id="Oval-5-Copy-35" sketch:type="MSShapeGroup" fill="#E65F58" stroke="#314E55" stroke-width="16.68" stroke-linecap="square" stroke-linejoin="round" d="
			M149.5,81.5c15.4-34.7,48.3-43.3,78.2-30c14.4,6.4,25,17.9,30.6,31.4c13.8-4.9,29.4-4.7,43.8,1.7c29.9,13.3,45.4,43.5,30,78.2
			c-15.4,34.7-132.2,70.1-138.8,66.3C185.4,226.4,134.1,116.1,149.5,81.5z"/>
	</g>
	<g id="Love_sliced" transform="translate(-7005.000000, -2001.000000)" sketch:type="MSLayerGroup">
	</g>
</g>
</svg>
